EncodeSans-SemiBold.ufo
<glyph name="exclam" format="2">
  <advance width="561.6464646464647"/>
  <unicode hex="0021"/>
  <outline>
    <contour>
      <point x="201.7020202020202" y="432.72727272727275" type="line"/>
      <point x="362.64646464646466" y="432.72727272727275" type="line"/>
      <point x="419.50000000000006" y="947.2828282828283" type="line"/>
      <point x="419.50000000000006" y="1480.0" type="line"/>
      <point x="142.14646464646464" y="1480.0" type="line"/>
      <point x="142.14646464646464" y="947.2828282828283" type="line"/>
    </contour>
    <contour>
      <point x="280.82323232323233" y="-15.404040404040405" type="curve" smooth="yes"/>
      <point x="385.4545454545455" y="-15.404040404040405"/>
      <point x="454.14646464646466" y="46.96464646464647"/>
      <point x="454.14646464646466" y="140.62626262626264" type="curve" smooth="yes"/>
      <point x="454.14646464646466" y="234.28787878787884"/>
      <point x="387.61616161616166" y="297.5757575757576"/>
      <point x="280.82323232323233" y="297.5757575757576" type="curve" smooth="yes"/>
      <point x="174.03030303030303" y="297.5757575757576"/>
      <point x="107.49999999999999" y="236.449494949495"/>
      <point x="107.49999999999999" y="140.62626262626264" type="curve" smooth="yes"/>
      <point x="107.49999999999999" y="44.80303030303031"/>
      <point x="176.1919191919192" y="-15.404040404040405"/>
    </contour>
  </outline>
</glyph>
<glyph name="quotedbl" format="2">
  <advance width="854.0606060606061"/>
  <unicode hex="0022"/>
  <outline>
    <contour>
      <point x="148.14141414141415" y="870.6161616161615" type="line"/>
      <point x="307.03030303030306" y="870.6161616161615" type="line"/>
      <point x="357.83333333333337" y="1616.0" type="line"/>
      <point x="97.33838383838382" y="1616.0" type="line"/>
    </contour>
    <contour>
      <point x="547.030303030303" y="870.6161616161615" type="line"/>
      <point x="705.9191919191919" y="870.6161616161615" type="line"/>
      <point x="756.7222222222223" y="1616.0" type="line"/>
      <point x="496.22727272727275" y="1616.0" type="line"/>
    </contour>
  </outline>
</glyph>
<glyph name="dollar" format="2">
  <advance width="1120.2424242424242"/>
  <unicode hex="0024"/>
  <outline>
    <contour>
      <point x="482.3131313131313" y="-19.08080808080808" type="curve" smooth="yes"/>
      <point x="848.3535353535353" y="-19.08080808080808"/>
      <point x="1058.4797979797981" y="146.23737373737373"/>
      <point x="1058.4797979797981" y="423.7727272727273" type="curve" smooth="yes"/>
      <point x="1058.4797979797981" y="646.4444444444445"/>
      <point x="929.2929292929293" y="776.2525252525253"/>
      <point x="647.0808080808081" y="846.4141414141415" type="curve" smooth="yes"/>
      <point x="547.2525252525253" y="872.1414141414142" type="line" smooth="yes"/>
      <point x="380.6414141414142" y="916.3888888888889"/>
      <point x="327.22727272727275" y="969.4242424242424"/>
      <point x="327.22727272727275" y="1077.6313131313132" type="curve" smooth="yes"/>
      <point x="327.22727272727275" y="1203.3535353535353"/>
      <point x="418.0757575757576" y="1282.3080808080808"/>
      <point x="668.3232323232323" y="1282.3080808080808" type="curve" smooth="yes"/>
      <point x="772.3232323232323" y="1282.3080808080808"/>
      <point x="889.5353535353536" y="1267.2272727272727"/>
      <point x="986.429292929293" y="1239.090909090909" type="curve"/>
      <point x="986.429292929293" y="1457.8636363636363" type="line"/>
      <point x="893.2676767676768" y="1483.540404040404"/>
      <point x="772.7020202020202" y="1499.080808080808"/>
      <point x="653.409090909091" y="1499.080808080808" type="curve" smooth="yes"/>
      <point x="256.1868686868687" y="1499.080808080808"/>
      <point x="61.762626262626256" y="1335.409090909091"/>
      <point x="61.762626262626256" y="1063.3636363636363" type="curve" smooth="yes"/>
      <point x="61.762626262626256" y="841.1515151515151"/>
      <point x="192.03030303030303" y="710.3434343434343"/>
      <point x="449.2979797979798" y="645.8030303030303" type="curve" smooth="yes"/>
      <point x="549.1262626262626" y="620.0757575757575" type="line" smooth="yes"/>
      <point x="731.8434343434343" y="572.2070707070707"/>
      <point x="793.0151515151515" y="519.3888888888889"/>
      <point x="793.0151515151515" y="406.1818181818182" type="curve" smooth="yes"/>
      <point x="793.0151515151515" y="272.4040404040404"/>
      <point x="703.1919191919192" y="197.69191919191923"/>
      <point x="479.82828282828285" y="197.69191919191923" type="curve" smooth="yes"/>
      <point x="367.1010101010101" y="197.69191919191923"/>
      <point x="217.43434343434342" y="219.01515151515156"/>
      <point x="92.89393939393939" y="258.8535353535354" type="curve"/>
      <point x="92.89393939393939" y="40.08080808080808" type="line"/>
      <point x="211.45959595959596" y="1.621212121212122"/>
      <point x="353.91414141414145" y="-19.08080808080808"/>
    </contour>
    <contour>
      <point x="437.7929292929293" y="-240.0" type="line"/>
      <point x="683.368686868687" y="-240.0" type="line"/>
      <point x="683.368686868687" y="47.82828282828284" type="line"/>
      <point x="437.7929292929293" y="43.232323232323246" type="line"/>
    </contour>
    <contour>
      <point x="437.7929292929293" y="1447.5757575757575" type="line"/>
      <point x="683.368686868687" y="1447.5757575757575" type="line"/>
      <point x="683.368686868687" y="1720.0" type="line"/>
      <point x="437.7929292929293" y="1720.0" type="line"/>
    </contour>
  </outline>
</glyph>
<glyph name="ampersand" format="2">
  <advance width="1563.6969696969697"/>
  <unicode hex="0026"/>
  <outline>
    <contour>
      <point x="1440.5555555555557" y="-20.0" type="line"/>
      <point x="1563.6969696969697" y="174.12626262626267" type="line"/>
      <point x="717.5050505050505" y="768.2121212121212" type="line" smooth="yes"/>
      <point x="568.510101010101" y="881.3131313131313"/>
      <point x="525.939393939394" y="950.2676767676768"/>
      <point x="525.939393939394" y="1051.2272727272727" type="curve" smooth="yes"/>
      <point x="525.939393939394" y="1196.8131313131312"/>
      <point x="615.9747474747475" y="1282.3080808080808"/>
      <point x="863.9545454545455" y="1282.3080808080808" type="curve" smooth="yes"/>
      <point x="945.2525252525253" y="1282.3080808080808"/>
      <point x="1030.060606060606" y="1272.2272727272727"/>
      <point x="1102.1969696969697" y="1255.090909090909" type="curve"/>
      <point x="1102.1969696969697" y="1473.8636363636363" type="line"/>
      <point x="1027.550505050505" y="1489.1616161616162"/>
      <point x="943.6868686868687" y="1499.080808080808"/>
      <point x="846.4191919191919" y="1499.080808080808" type="curve" smooth="yes"/>
      <point x="450.520202020202" y="1499.080808080808"/>
      <point x="260.47474747474746" y="1333.6262626262626"/>
      <point x="260.47474747474746" y="1056.171717171717" type="curve" smooth="yes"/>
      <point x="260.47474747474746" y="892.7626262626262"/>
      <point x="331.530303030303" y="757.8737373737374"/>
      <point x="594.3636363636364" y="574.0858585858585" type="curve" smooth="yes"/>
    </contour>
    <contour>
      <point x="688.4545454545455" y="-18.0" type="curve" smooth="yes"/>
      <point x="1086.060606060606" y="-18.0"/>
      <point x="1324.2929292929293" y="185.8030303030303"/>
      <point x="1324.2929292929293" y="580.9747474747475" type="curve" smooth="yes"/>
      <point x="1324.2929292929293" y="661.7070707070707"/>
      <point x="1312.3737373737374" y="754.3030303030304"/>
      <point x="1288.7777777777778" y="838.89898989899" type="curve"/>
      <point x="1075.030303030303" y="838.89898989899" type="line"/>
      <point x="1099.0858585858587" y="754.3030303030304"/>
      <point x="1112.9242424242425" y="659.7070707070707"/>
      <point x="1112.9242424242425" y="578.8131313131313" type="curve" smooth="yes"/>
      <point x="1112.9242424242425" y="284.9747474747475"/>
      <point x="954.1919191919192" y="173.3737373737374"/>
      <point x="716.9343434343434" y="173.3737373737374" type="curve" smooth="yes"/>
      <point x="493.1565656565657" y="173.3737373737374"/>
      <point x="381.39393939393943" y="274.439393939394"/>
      <point x="381.39393939393943" y="432.85858585858585" type="curve" smooth="yes"/>
      <point x="381.39393939393943" y="549.0050505050505"/>
      <point x="435.1565656565657" y="633.3383838383838"/>
      <point x="536.0909090909091" y="692.2070707070707" type="curve"/>
      <point x="399.1969696969697" y="801.6262626262626" type="line"/>
      <point x="232.54545454545453" y="737.7020202020202"/>
      <point x="117.010101010101" y="596.4848484848485"/>
      <point x="117.010101010101" y="404.16161616161617" type="curve" smooth="yes"/>
      <point x="117.010101010101" y="150.75757575757575"/>
      <point x="309.54545454545456" y="-18.0"/>
    </contour>
  </outline>
</glyph>
<glyph name="quotesingle" format="2">
  <advance width="455.1717171717172"/>
  <unicode hex="0027"/>
  <outline>
    <contour>
      <point x="148.14141414141415" y="870.6161616161615" type="line"/>
      <point x="307.03030303030306" y="870.6161616161615" type="line"/>
      <point x="357.83333333333337" y="1616.0" type="line"/>
      <point x="97.33838383838382" y="1616.0" type="line"/>
    </contour>
  </outline>
</glyph>
<glyph name="parenleft" format="2">
  <advance width="695.1717171717172"/>
  <unicode hex="0028"/>
  <outline>
    <contour>
      <point x="453.6010101010101" y="-440.0" type="curve"/>
      <point x="728.2272727272727" y="-440.0" type="line"/>
      <point x="481.6868686868687" y="-133.94444444444446"/>
      <point x="379.6868686868687" y="200.16666666666666"/>
      <point x="379.6868686868687" y="588.0" type="curve" smooth="yes"/>
      <point x="379.6868686868687" y="975.8333333333334"/>
      <point x="481.6868686868687" y="1309.9444444444443"/>
      <point x="728.2272727272727" y="1616.0" type="curve"/>
      <point x="453.6010101010101" y="1616.0" type="line"/>
      <point x="212.27777777777777" y="1332.9141414141413"/>
      <point x="111.520202020202" y="980.7525252525253"/>
      <point x="111.520202020202" y="588.0" type="curve" smooth="yes"/>
      <point x="111.520202020202" y="195.24747474747474"/>
      <point x="212.27777777777777" y="-156.91414141414143"/>
    </contour>
  </outline>
</glyph>
<glyph name="parenright" format="2">
  <advance width="695.1717171717172"/>
  <unicode hex="0029"/>
  <outline>
    <contour>
      <point x="-33.055555555555586" y="-440.0" type="curve"/>
      <point x="241.5707070707071" y="-440.0" type="line"/>
      <point x="482.89393939393943" y="-156.91414141414143"/>
      <point x="583.6515151515152" y="195.24747474747474"/>
      <point x="583.6515151515152" y="588.0" type="curve" smooth="yes"/>
      <point x="583.6515151515152" y="980.7525252525253"/>
      <point x="482.89393939393943" y="1332.9141414141413"/>
      <point x="241.5707070707071" y="1616.0" type="curve"/>
      <point x="-33.055555555555586" y="1616.0" type="line"/>
      <point x="213.48484848484844" y="1309.9444444444443"/>
      <point x="315.48484848484844" y="975.8333333333334"/>
      <point x="315.48484848484844" y="588.0" type="curve" smooth="yes"/>
      <point x="315.48484848484844" y="200.16666666666666"/>
      <point x="213.48484848484844" y="-133.94444444444446"/>
    </contour>
  </outline>
</glyph>
<glyph name="asterisk" format="2">
  <advance width="973.9191919191919"/>
  <unicode hex="002A"/>
  <outline>
    <contour>
      <point x="584.2929292929293" y="1154.5" type="line"/>
      <point x="774.1868686868687" y="1185.2070707070707" type="line"/>
      <point x="943.9191919191919" y="1239.9646464646464" type="line"/>
      <point x="888.7929292929293" y="1408.5858585858587" type="line"/>
      <point x="719.979797979798" y="1353.2878787878788" type="line"/>
      <point x="544.5707070707072" y="1263.3989898989898" type="line"/>
      <point x="575.7020202020202" y="1458.2121212121212" type="line"/>
      <point x="575.7020202020202" y="1616.0" type="line"/>
      <point x="398.2171717171717" y="1616.0" type="line"/>
      <point x="398.2171717171717" y="1458.2121212121212" type="line"/>
      <point x="429.3484848484849" y="1263.3989898989898" type="line"/>
      <point x="253.93939393939394" y="1353.2878787878788" type="line"/>
      <point x="85.12626262626264" y="1408.5858585858587" type="line"/>
      <point x="30.0" y="1239.9646464646464" type="line"/>
      <point x="199.73232323232324" y="1185.2070707070707" type="line"/>
      <point x="389.62626262626264" y="1154.5" type="line"/>
      <point x="252.22222222222223" y="1016.8737373737374" type="line"/>
      <point x="156.57070707070707" y="885.3838383838383" type="line"/>
      <point x="300.43939393939394" y="780.9141414141413" type="line"/>
      <point x="396.0909090909091" y="911.8636363636364" type="line"/>
      <point x="486.95959595959596" y="1093.4292929292928" type="line"/>
      <point x="577.8282828282828" y="911.8636363636364" type="line"/>
      <point x="673.479797979798" y="780.9141414141413" type="line"/>
      <point x="817.3484848484849" y="885.3838383838383" type="line"/>
      <point x="721.6969696969697" y="1016.8737373737374" type="line"/>
    </contour>
  </outline>
</glyph>
<glyph name="plus" format="2">
  <advance width="1091.1818181818182"/>
  <unicode hex="002B"/>
  <outline>
    <contour>
      <point x="439.7171717171717" y="332.6060606060606" type="line"/>
      <point x="651.4646464646465" y="332.6060606060606" type="line"/>
      <point x="651.4646464646465" y="658.8282828282828" type="line"/>
      <point x="962.5505050505051" y="658.8282828282828" type="line"/>
      <point x="962.5505050505051" y="861.1717171717172" type="line"/>
      <point x="651.4646464646465" y="861.1717171717172" type="line"/>
      <point x="651.4646464646465" y="1187.3939393939395" type="line"/>
      <point x="439.7171717171717" y="1187.3939393939395" type="line"/>
      <point x="439.7171717171717" y="861.1717171717172" type="line"/>
      <point x="128.6313131313131" y="861.1717171717172" type="line"/>
      <point x="128.6313131313131" y="658.8282828282828" type="line"/>
      <point x="439.7171717171717" y="658.8282828282828" type="line"/>
    </contour>
  </outline>
</glyph>
<glyph name="hyphen" format="2">
  <advance width="883.3838383838383"/>
  <unicode hex="002D"/>
  <outline>
    <contour>
      <point x="128.6313131313131" y="458.28787878787875" type="line"/>
      <point x="754.7525252525253" y="458.28787878787875" type="line"/>
      <point x="754.7525252525253" y="672.5202020202021" type="line"/>
      <point x="128.6313131313131" y="672.5202020202021" type="line"/>
    </contour>
  </outline>
</glyph>
<glyph name="period" format="2">
  <advance width="521.6464646464647"/>
  <unicode hex="002E"/>
  <outline>
    <contour>
      <point x="260.82323232323233" y="-15.404040404040405" type="curve" smooth="yes"/>
      <point x="365.4545454545455" y="-15.404040404040405"/>
      <point x="434.14646464646466" y="49.12626262626264"/>
      <point x="434.14646464646466" y="147.65151515151518" type="curve" smooth="yes"/>
      <point x="434.14646464646466" y="246.17676767676772"/>
      <point x="367.61616161616166" y="311.6262626262627"/>
      <point x="260.82323232323233" y="311.6262626262627" type="curve" smooth="yes"/>
      <point x="154.03030303030303" y="311.6262626262627"/>
      <point x="87.49999999999999" y="248.3383838383839"/>
      <point x="87.49999999999999" y="147.65151515151518" type="curve" smooth="yes"/>
      <point x="87.49999999999999" y="46.96464646464648"/>
      <point x="156.1919191919192" y="-15.404040404040405"/>
    </contour>
  </outline>
</glyph>
<glyph name="slash" format="2">
  <advance width="725.5959595959596"/>
  <unicode hex="002F"/>
  <outline>
    <contour>
      <point x="0.0" y="-240.0" type="line"/>
      <point x="257.60101010101016" y="-240.0" type="line"/>
      <point x="725.5959595959596" y="1616.0" type="line"/>
      <point x="467.99494949494954" y="1616.0" type="line"/>
    </contour>
  </outline>
</glyph>
<glyph name="zero" format="2">
  <advance width="1305.5404040404042"/>
  <unicode hex="0030"/>
  <note>
600
</note>
  <outline>
    <contour>
      <point x="652.5" y="-19.08080808080808" type="curve" smooth="yes"/>
      <point x="993.1616161616162" y="-19.08080808080808"/>
      <point x="1204.020202020202" y="202.85858585858585"/>
      <point x="1204.020202020202" y="740.0" type="curve" smooth="yes"/>
      <point x="1204.020202020202" y="1277.141414141414"/>
      <point x="995.0" y="1499.080808080808"/>
      <point x="652.5" y="1499.080808080808" type="curve" smooth="yes"/>
      <point x="310.0" y="1499.080808080808"/>
      <point x="101.520202020202" y="1277.141414141414"/>
      <point x="101.520202020202" y="740.0" type="curve" smooth="yes"/>
      <point x="101.520202020202" y="202.85858585858585"/>
      <point x="311.83838383838383" y="-19.08080808080808"/>
    </contour>
    <contour>
      <point x="653.040404040404" y="200.93434343434348" type="curve" smooth="yes"/>
      <point x="472.4848484848485" y="200.93434343434348"/>
      <point x="363.7424242424243" y="325.969696969697"/>
      <point x="363.7424242424243" y="741.8383838383838" type="curve" smooth="yes"/>
      <point x="363.7424242424243" y="1154.030303030303"/>
      <point x="473.5656565656566" y="1279.0656565656566"/>
      <point x="653.040404040404" y="1279.0656565656566" type="curve" smooth="yes"/>
      <point x="831.9747474747475" y="1279.0656565656566"/>
      <point x="941.7979797979798" y="1154.030303030303"/>
      <point x="941.7979797979798" y="738.1616161616162" type="curve" smooth="yes"/>
      <point x="941.7979797979798" y="325.969696969697"/>
      <point x="831.9747474747475" y="200.93434343434348"/>
    </contour>
  </outline>
</glyph>
<glyph name="one" format="2">
  <advance width="794.5909090909091"/>
  <unicode hex="0031"/>
  <outline>
    <contour>
      <point x="372.57575757575756" y="0.0" type="line"/>
      <point x="638.3636363636364" y="0.0" type="line"/>
      <point x="638.3636363636364" y="1485.080808080808" type="line"/>
      <point x="467.74747474747477" y="1485.080808080808" type="line"/>
      <point x="26.242424242424242" y="1174.8939393939395" type="line"/>
      <point x="26.242424242424242" y="923.3434343434343" type="line"/>
      <point x="467.74747474747477" y="1232.611111111111" type="line"/>
      <point x="372.57575757575756" y="1316.6161616161617" type="line"/>
    </contour>
  </outline>
</glyph>
<glyph name="two" format="2">
  <advance width="1041.919191919192"/>
  <unicode hex="0032"/>
  <outline>
    <contour>
      <point x="52.40909090909091" y="0.0" type="line"/>
      <point x="984.8888888888889" y="0.0" type="line"/>
      <point x="984.8888888888889" y="221.2575757575758" type="line"/>
      <point x="337.5151515151516" y="221.2575757575758" type="line"/>
      <point x="347.57070707070716" y="152.40404040404042" type="line"/>
      <point x="694.3686868686868" y="588.8383838383838" type="line" smooth="yes"/>
      <point x="856.0202020202021" y="790.4141414141413"/>
      <point x="910.2373737373738" y="930.2777777777777"/>
      <point x="910.6969696969697" y="1083.010101010101" type="curve" smooth="yes"/>
      <point x="911.6161616161617" y="1372.111111111111"/>
      <point x="728.5151515151515" y="1499.080808080808"/>
      <point x="386.91414141414145" y="1499.080808080808" type="curve" smooth="yes"/>
      <point x="264.6717171717172" y="1499.080808080808"/>
      <point x="122.65151515151516" y="1475.919191919192"/>
      <point x="34.32828282828282" y="1443.1616161616162" type="curve"/>
      <point x="34.32828282828282" y="1224.388888888889" type="line"/>
      <point x="127.84343434343434" y="1260.6060606060605"/>
      <point x="243.35353535353534" y="1282.3080808080808"/>
      <point x="360.4343434343434" y="1282.3080808080808" type="curve" smooth="yes"/>
      <point x="559.1161616161617" y="1282.3080808080808"/>
      <point x="647.7727272727273" y="1213.7626262626263"/>
      <point x="647.7727272727273" y="1058.3131313131312" type="curve" smooth="yes"/>
      <point x="647.7727272727273" y="950.8989898989898"/>
      <point x="599.4191919191919" y="843.3787878787879"/>
      <point x="466.57575757575756" y="672.8282828282828" type="curve" smooth="yes"/>
      <point x="52.40909090909091" y="143.21717171717174" type="line"/>
    </contour>
  </outline>
</glyph>
<glyph name="three" format="2">
  <advance width="1059.7878787878788"/>
  <unicode hex="0033"/>
  <outline>
    <contour>
      <point x="421.23737373737373" y="-19.08080808080808" type="curve" smooth="yes"/>
      <point x="804.7626262626263" y="-19.08080808080808"/>
      <point x="995.2979797979798" y="140.02525252525254"/>
      <point x="995.2979797979798" y="407.0505050505051" type="curve" smooth="yes"/>
      <point x="995.2979797979798" y="615.2424242424242"/>
      <point x="870.7272727272727" y="742.3535353535353"/>
      <point x="646.1515151515152" y="774.4343434343434" type="curve"/>
      <point x="645.6919191919193" y="756.0" type="line"/>
      <point x="832.5909090909091" y="795.7575757575758"/>
      <point x="946.8383838383838" y="926.7323232323232"/>
      <point x="946.8383838383838" y="1110.141414141414" type="curve" smooth="yes"/>
      <point x="946.8383838383838" y="1357.4343434343434"/>
      <point x="772.2222222222223" y="1499.080808080808"/>
      <point x="432.7525252525253" y="1499.080808080808" type="curve" smooth="yes"/>
      <point x="310.02525252525254" y="1499.080808080808"/>
      <point x="170.62626262626262" y="1477.919191919192"/>
      <point x="75.38383838383838" y="1444.540404040404" type="curve"/>
      <point x="75.38383838383838" y="1241.979797979798" type="line"/>
      <point x="177.06060606060606" y="1278.2777777777778"/>
      <point x="295.19191919191917" y="1297.439393939394"/>
      <point x="405.7323232323232" y="1297.439393939394" type="curve" smooth="yes"/>
      <point x="599.9848484848485" y="1297.439393939394"/>
      <point x="691.4797979797979" y="1224.2424242424242"/>
      <point x="691.4797979797979" y="1087.9848484848485" type="curve" smooth="yes"/>
      <point x="691.4797979797979" y="943.1010101010102"/>
      <point x="587.3030303030303" y="859.929292929293"/>
      <point x="355.6111111111111" y="859.929292929293" type="curve" smooth="yes"/>
      <point x="213.6060606060606" y="859.929292929293" type="line"/>
      <point x="213.6060606060606" y="655.5858585858585" type="line"/>
      <point x="415.7020202020202" y="655.5858585858585" type="line" smooth="yes"/>
      <point x="648.929292929293" y="655.5858585858585"/>
      <point x="743.7222222222222" y="570.6565656565656"/>
      <point x="743.7222222222222" y="422.1818181818182" type="curve" smooth="yes"/>
      <point x="743.7222222222222" y="265.81313131313135"/>
      <point x="639.2525252525252" y="182.56060606060612"/>
      <point x="411.42929292929296" y="182.56060606060612" type="curve" smooth="yes"/>
      <point x="294.7828282828283" y="182.56060606060612"/>
      <point x="160.11111111111111" y="202.56060606060612"/>
      <point x="46.19191919191919" y="236.53535353535358" type="curve"/>
      <point x="46.19191919191919" y="33.974747474747474" type="line"/>
      <point x="159.83838383838383" y="-0.161616161616162"/>
      <point x="288.4848484848485" y="-19.08080808080808"/>
    </contour>
  </outline>
</glyph>
<glyph name="four" format="2">
  <advance width="1239.3232323232323"/>
  <unicode hex="0034"/>
  <outline>
    <contour>
      <point x="41.03030303030303" y="322.9343434343434" type="line"/>
      <point x="1203.590909090909" y="322.9343434343434" type="line"/>
      <point x="1203.590909090909" y="530.6818181818182" type="line"/>
      <point x="271.4191919191919" y="530.6818181818182" type="line"/>
      <point x="302.5505050505051" y="467.3939393939394" type="line"/>
      <point x="835.8131313131314" y="1480.0" type="line"/>
      <point x="578.2373737373737" y="1480.0" type="line"/>
      <point x="41.03030303030303" y="468.3131313131313" type="line"/>
    </contour>
    <contour>
      <point x="765.8989898989898" y="0.0" type="line"/>
      <point x="1005.7474747474748" y="0.0" type="line"/>
      <point x="1005.7474747474748" y="980.0" type="line"/>
      <point x="793.9494949494949" y="980.0" type="line"/>
      <point x="765.8989898989898" y="530.6818181818182" type="line"/>
    </contour>
  </outline>
</glyph>
<glyph name="five" format="2">
  <advance width="1071.489898989899"/>
  <unicode hex="0035"/>
  <outline>
    <contour>
      <point x="448.23737373737373" y="-19.08080808080808" type="curve" smooth="yes"/>
      <point x="824.8989898989898" y="-19.08080808080808"/>
      <point x="1020.2171717171717" y="138.64646464646464"/>
      <point x="1020.7575757575758" y="433.1010101010101" type="curve" smooth="yes"/>
      <point x="1021.2979797979798" y="711.6919191919192"/>
      <point x="843.8131313131313" y="855.959595959596"/>
      <point x="406.0656565656566" y="881.040404040404" type="curve" smooth="yes"/>
      <point x="218.90404040404042" y="891.5" type="line"/>
      <point x="377.36363636363643" y="793.0808080808081" type="line"/>
      <point x="417.50000000000006" y="1385.9595959595958" type="line"/>
      <point x="300.89898989898995" y="1272.7929292929293" type="line"/>
      <point x="960.3787878787879" y="1272.7929292929293" type="line"/>
      <point x="960.3787878787879" y="1480.0" type="line"/>
      <point x="173.08585858585857" y="1480.0" type="line"/>
      <point x="122.46464646464646" y="692.560606060606" type="line"/>
      <point x="309.62626262626264" y="682.10101010101" type="line" smooth="yes"/>
      <point x="667.2525252525252" y="661.1818181818181"/>
      <point x="768.6414141414141" y="584.9848484848485"/>
      <point x="768.6414141414141" y="427.23737373737373" type="curve" smooth="yes"/>
      <point x="768.6414141414141" y="267.51515151515156"/>
      <point x="665.5505050505051" y="184.72222222222229"/>
      <point x="438.8888888888889" y="184.72222222222229" type="curve" smooth="yes"/>
      <point x="319.94444444444446" y="184.72222222222229"/>
      <point x="185.27272727272728" y="205.72222222222226"/>
      <point x="72.73232323232322" y="239.7777777777778" type="curve"/>
      <point x="72.73232323232322" y="37.217171717171716" type="line"/>
      <point x="185.0" y="1.919191919191919"/>
      <point x="314.5656565656566" y="-19.08080808080808"/>
    </contour>
  </outline>
</glyph>
<glyph name="six" format="2">
  <advance width="1214.050505050505"/>
  <unicode hex="0036"/>
  <outline>
    <contour>
      <point x="666.6363636363636" y="-19.08080808080808" type="curve" smooth="yes"/>
      <point x="962.8636363636364" y="-19.08080808080808"/>
      <point x="1158.1565656565658" y="145.47979797979798"/>
      <point x="1158.1565656565658" y="435.26262626262627" type="curve" smooth="yes"/>
      <point x="1158.1565656565658" y="738.1767676767677"/>
      <point x="960.8636363636364" y="875.5555555555555"/>
      <point x="691.1616161616162" y="875.5555555555555" type="curve" smooth="yes"/>
      <point x="548.969696969697" y="875.5555555555555"/>
      <point x="404.69696969696975" y="826.5808080808081"/>
      <point x="325.3434343434344" y="744.3080808080808" type="curve"/>
      <point x="325.3434343434344" y="551.0656565656566" type="line"/>
      <point x="405.91414141414145" y="642.5858585858585"/>
      <point x="530.8434343434344" y="680.9393939393939"/>
      <point x="641.2272727272727" y="680.9393939393939" type="curve" smooth="yes"/>
      <point x="807.9191919191919" y="680.9393939393939"/>
      <point x="915.7676767676768" y="603.8232323232323"/>
      <point x="915.7676767676768" y="427.3989898989899" type="curve" smooth="yes"/>
      <point x="915.7676767676768" y="253.51515151515156"/>
      <point x="811.459595959596" y="176.61616161616166"/>
      <point x="668.1767676767677" y="176.61616161616166" type="curve" smooth="yes"/>
      <point x="487.1060606060606" y="176.61616161616166"/>
      <point x="370.58080808080814" y="284.68181818181824"/>
      <point x="370.58080808080814" y="654.1717171717172" type="curve" smooth="yes"/>
      <point x="370.58080808080814" y="760.2020202020202" type="line" smooth="yes"/>
      <point x="370.58080808080814" y="1129.510101010101"/>
      <point x="514.7777777777778" y="1293.1161616161617"/>
      <point x="806.4898989898991" y="1293.1161616161617" type="curve" smooth="yes"/>
      <point x="902.0" y="1293.1161616161617"/>
      <point x="999.7020202020203" y="1279.0353535353536"/>
      <point x="1084.969696969697" y="1247.5757575757575" type="curve"/>
      <point x="1084.969696969697" y="1454.459595959596" type="line"/>
      <point x="1000.7020202020202" y="1487.080808080808"/>
      <point x="899.5151515151515" y="1499.080808080808"/>
      <point x="794.5202020202021" y="1499.080808080808" type="curve" smooth="yes"/>
      <point x="357.13131313131316" y="1499.080808080808"/>
      <point x="111.43939393939394" y="1241.7878787878788"/>
      <point x="111.43939393939394" y="692.0" type="curve" smooth="yes"/>
      <point x="111.43939393939394" y="182.37373737373738"/>
      <point x="335.7828282828283" y="-19.08080808080808"/>
    </contour>
  </outline>
</glyph>
<glyph name="seven" format="2">
  <advance width="992.5151515151515"/>
  <unicode hex="0037"/>
  <outline>
    <contour>
      <point x="160.0050505050505" y="0.0" type="line"/>
      <point x="433.49494949494954" y="0.0" type="line"/>
      <point x="934.5959595959596" y="1336.7828282828282" type="line"/>
      <point x="934.5959595959596" y="1480.0" type="line"/>
      <point x="11.45959595959596" y="1480.0" type="line"/>
      <point x="11.45959595959596" y="1258.7424242424242" type="line"/>
      <point x="765.2727272727273" y="1258.7424242424242" type="line"/>
      <point x="679.8585858585858" y="1337.70202020202" type="line"/>
    </contour>
  </outline>
</glyph>
<glyph name="eight" format="2">
  <advance width="1305.5404040404042"/>
  <unicode hex="0038"/>
  <outline>
    <contour>
      <point x="658.6363636363636" y="-19.08080808080808" type="curve" smooth="yes"/>
      <point x="1026.0252525252527" y="-19.08080808080808"/>
      <point x="1216.0757575757575" y="154.6969696969697"/>
      <point x="1216.0757575757575" y="396.72222222222223" type="curve" smooth="yes"/>
      <point x="1216.0757575757575" y="610.9646464646464"/>
      <point x="1097.7222222222222" y="741.3131313131313"/>
      <point x="736.9191919191919" y="836.1464646464647" type="curve" smooth="yes"/>
      <point x="451.51010101010104" y="909.469696969697"/>
      <point x="383.23232323232327" y="977.5858585858585"/>
      <point x="383.23232323232327" y="1106.8434343434344" type="curve" smooth="yes"/>
      <point x="383.23232323232327" y="1228.9141414141413"/>
      <point x="473.1060606060606" y="1311.4898989898988"/>
      <point x="662.1717171717172" y="1311.4898989898988" type="curve" smooth="yes"/>
      <point x="842.0505050505051" y="1311.4898989898988"/>
      <point x="940.9797979797979" y="1236.9141414141413"/>
      <point x="940.9797979797979" y="1100.6818181818182" type="curve" smooth="yes"/>
      <point x="940.9797979797979" y="974.6414141414142"/>
      <point x="875.2171717171717" y="889.6363636363636"/>
      <point x="715.1515151515151" y="816.3636363636364" type="curve"/>
      <point x="880.4242424242425" y="745.9141414141415" type="line"/>
      <point x="1085.7171717171718" y="826.3181818181819"/>
      <point x="1172.1818181818182" y="961.3181818181819"/>
      <point x="1172.1818181818182" y="1124.919191919192" type="curve" smooth="yes"/>
      <point x="1172.1818181818182" y="1357.080808080808"/>
      <point x="984.1060606060606" y="1499.080808080808"/>
      <point x="665.3333333333334" y="1499.080808080808" type="curve" smooth="yes"/>
      <point x="316.27272727272725" y="1499.080808080808"/>
      <point x="130.73737373737373" y="1338.1666666666667"/>
      <point x="130.73737373737373" y="1097.2777777777778" type="curve" smooth="yes"/>
      <point x="130.73737373737373" y="882.9797979797979"/>
      <point x="254.95454545454544" y="735.3636363636364"/>
      <point x="615.1363636363636" y="646.4747474747475" type="curve" smooth="yes"/>
      <point x="887.6818181818181" y="579.6363636363636"/>
      <point x="966.8232323232323" y="514.3333333333334"/>
      <point x="966.8232323232323" y="381.45454545454544" type="curve" smooth="yes"/>
      <point x="966.8232323232323" y="246.92424242424244"/>
      <point x="865.2171717171717" y="168.51010101010104"/>
      <point x="659.6363636363636" y="168.51010101010104" type="curve" smooth="yes"/>
      <point x="443.1060606060606" y="168.51010101010104"/>
      <point x="337.1767676767677" y="251.0858585858586"/>
      <point x="337.1767676767677" y="398.3181818181818" type="curve" smooth="yes"/>
      <point x="337.1767676767677" y="523.4949494949495"/>
      <point x="418.13131313131316" y="634.9343434343434"/>
      <point x="586.4646464646464" y="686.530303030303" type="curve"/>
      <point x="407.3838383838384" y="756.2777777777777" type="line"/>
      <point x="202.8181818181818" y="689.7373737373737"/>
      <point x="87.3030303030303" y="550.3838383838383"/>
      <point x="87.3030303030303" y="369.83838383838383" type="curve" smooth="yes"/>
      <point x="87.3030303030303" y="135.5909090909091"/>
      <point x="270.54545454545456" y="-19.08080808080808"/>
    </contour>
  </outline>
</glyph>
<glyph name="nine" format="2">
  <advance width="1214.050505050505"/>
  <unicode hex="0039"/>
  <outline>
    <contour>
      <point x="547.4141414141415" y="1499.080808080808" type="curve" smooth="yes"/>
      <point x="251.1868686868687" y="1499.080808080808"/>
      <point x="55.89393939393939" y="1334.520202020202"/>
      <point x="55.89393939393939" y="1044.7373737373737" type="curve" smooth="yes"/>
      <point x="55.89393939393939" y="741.8232323232323"/>
      <point x="253.18686868686868" y="604.4444444444445"/>
      <point x="522.8888888888889" y="604.4444444444445" type="curve" smooth="yes"/>
      <point x="665.0808080808081" y="604.4444444444445"/>
      <point x="809.3535353535353" y="653.4191919191919"/>
      <point x="888.7070707070707" y="735.6919191919192" type="curve"/>
      <point x="888.7070707070707" y="928.9343434343434" type="line"/>
      <point x="808.1363636363636" y="837.4141414141415"/>
      <point x="683.2070707070707" y="799.0606060606061"/>
      <point x="572.8232323232323" y="799.0606060606061" type="curve" smooth="yes"/>
      <point x="406.13131313131316" y="799.0606060606061"/>
      <point x="298.28282828282835" y="876.1767676767677"/>
      <point x="298.28282828282835" y="1052.6010101010102" type="curve" smooth="yes"/>
      <point x="298.28282828282835" y="1226.4848484848485"/>
      <point x="402.5909090909091" y="1303.3838383838383"/>
      <point x="545.8737373737374" y="1303.3838383838383" type="curve" smooth="yes"/>
      <point x="726.9444444444445" y="1303.3838383838383"/>
      <point x="843.469696969697" y="1195.3181818181818"/>
      <point x="843.469696969697" y="825.8282828282828" type="curve" smooth="yes"/>
      <point x="843.469696969697" y="719.7979797979798" type="line" smooth="yes"/>
      <point x="843.469696969697" y="350.489898989899"/>
      <point x="699.2727272727273" y="186.88383838383842"/>
      <point x="407.56060606060606" y="186.88383838383842" type="curve" smooth="yes"/>
      <point x="312.0505050505051" y="186.88383838383842"/>
      <point x="214.34848484848484" y="200.96464646464648"/>
      <point x="129.08080808080808" y="232.42424242424246" type="curve"/>
      <point x="129.08080808080808" y="25.54040404040404" type="line"/>
      <point x="213.34848484848484" y="-7.080808080808081"/>
      <point x="314.5353535353536" y="-19.08080808080808"/>
      <point x="419.53030303030306" y="-19.08080808080808" type="curve" smooth="yes"/>
      <point x="856.9191919191919" y="-19.08080808080808"/>
      <point x="1102.6111111111113" y="238.21212121212122"/>
      <point x="1102.6111111111113" y="788.0" type="curve" smooth="yes"/>
      <point x="1102.6111111111113" y="1297.6262626262626"/>
      <point x="878.2676767676768" y="1499.080808080808"/>
    </contour>
  </outline>
</glyph>
<glyph name="colon" format="2">
  <advance width="521.6464646464647"/>
  <unicode hex="003A"/>
  <outline>
    <contour>
      <point x="260.82323232323233" y="-15.404040404040405" type="curve" smooth="yes"/>
      <point x="365.4545454545455" y="-15.404040404040405"/>
      <point x="434.14646464646466" y="49.12626262626264"/>
      <point x="434.14646464646466" y="147.65151515151518" type="curve" smooth="yes"/>
      <point x="434.14646464646466" y="246.17676767676772"/>
      <point x="367.61616161616166" y="311.6262626262627"/>
      <point x="260.82323232323233" y="311.6262626262627" type="curve" smooth="yes"/>
      <point x="154.03030303030303" y="311.6262626262627"/>
      <point x="87.49999999999999" y="248.3383838383839"/>
      <point x="87.49999999999999" y="147.65151515151518" type="curve" smooth="yes"/>
      <point x="87.49999999999999" y="46.96464646464648"/>
      <point x="156.1919191919192" y="-15.404040404040405"/>
    </contour>
    <contour>
      <point x="260.82323232323233" y="779.1818181818181" type="curve" smooth="yes"/>
      <point x="365.4545454545455" y="779.1818181818181"/>
      <point x="434.14646464646466" y="843.7121212121211"/>
      <point x="434.14646464646466" y="942.2373737373737" type="curve" smooth="yes"/>
      <point x="434.14646464646466" y="1040.7626262626263"/>
      <point x="367.61616161616166" y="1106.2121212121212"/>
      <point x="260.82323232323233" y="1106.2121212121212" type="curve" smooth="yes"/>
      <point x="154.03030303030303" y="1106.2121212121212"/>
      <point x="87.49999999999999" y="1042.9242424242425"/>
      <point x="87.49999999999999" y="942.2373737373737" type="curve" smooth="yes"/>
      <point x="87.49999999999999" y="841.550505050505"/>
      <point x="156.1919191919192" y="779.1818181818181"/>
    </contour>
  </outline>
</glyph>
<glyph name="semicolon" format="2">
  <advance width="521.6464646464647"/>
  <unicode hex="003B"/>
  <outline>
    <contour>
      <point x="147.05555555555554" y="-332.42424242424244" type="curve"/>
      <point x="296.97474747474746" y="-332.42424242424244" type="line"/>
      <point x="378.2070707070708" y="-212.4848484848485"/>
      <point x="433.0656565656566" y="-55.252525252525245"/>
      <point x="433.0656565656566" y="98.46969696969698" type="curve" smooth="yes"/>
      <point x="433.0656565656566" y="241.69191919191925"/>
      <point x="370.31818181818187" y="311.6262626262627"/>
      <point x="256.66161616161617" y="311.6262626262627" type="curve" smooth="yes"/>
      <point x="153.11111111111111" y="311.6262626262627"/>
      <point x="87.49999999999999" y="249.95959595959602"/>
      <point x="87.49999999999999" y="148.5707070707071" type="curve" smooth="yes"/>
      <point x="87.49999999999999" y="47.883838383838395"/>
      <point x="157.27272727272728" y="-15.404040404040405"/>
      <point x="260.82323232323233" y="-15.404040404040405" type="curve" smooth="yes"/>
      <point x="294.439393939394" y="-15.404040404040405" type="line"/>
      <point x="240.1818181818182" y="33.61616161616162" type="line"/>
      <point x="240.1818181818182" y="-85.67676767676768"/>
      <point x="205.75252525252526" y="-196.8080808080808"/>
    </contour>
    <contour>
      <point x="260.82323232323233" y="779.1818181818181" type="curve" smooth="yes"/>
      <point x="365.4545454545455" y="779.1818181818181"/>
      <point x="434.14646464646466" y="843.7121212121211"/>
      <point x="434.14646464646466" y="942.2373737373737" type="curve" smooth="yes"/>
      <point x="434.14646464646466" y="1040.7626262626263"/>
      <point x="367.61616161616166" y="1106.2121212121212"/>
      <point x="260.82323232323233" y="1106.2121212121212" type="curve" smooth="yes"/>
      <point x="154.03030303030303" y="1106.2121212121212"/>
      <point x="87.49999999999999" y="1042.9242424242425"/>
      <point x="87.49999999999999" y="942.2373737373737" type="curve" smooth="yes"/>
      <point x="87.49999999999999" y="841.550505050505"/>
      <point x="156.1919191919192" y="779.1818181818181"/>
    </contour>
  </outline>
</glyph>
<glyph name="less" format="2">
  <advance width="1091.1818181818182"/>
  <unicode hex="003C"/>
  <outline>
    <contour>
      <point x="962.5505050505051" y="308.7272727272727" type="line"/>
      <point x="962.5505050505051" y="514.7474747474747" type="line"/>
      <point x="280.7171717171717" y="777.9444444444445" type="line"/>
      <point x="280.7171717171717" y="744.7575757575758" type="line"/>
      <point x="962.5505050505051" y="1005.2525252525253" type="line"/>
      <point x="962.5505050505051" y="1211.2727272727273" type="line"/>
      <point x="128.6313131313131" y="882.1919191919192" type="line"/>
      <point x="128.6313131313131" y="637.8080808080808" type="line"/>
    </contour>
  </outline>
</glyph>
<glyph name="equal" format="2">
  <advance width="1091.1818181818182"/>
  <unicode hex="003D"/>
  <outline>
    <contour>
      <point x="128.6313131313131" y="872.1717171717172" type="line"/>
      <point x="962.5505050505051" y="872.1717171717172" type="line"/>
      <point x="962.5505050505051" y="1074.5151515151515" type="line"/>
      <point x="128.6313131313131" y="1074.5151515151515" type="line"/>
    </contour>
    <contour>
      <point x="128.6313131313131" y="445.48484848484844" type="line"/>
      <point x="962.5505050505051" y="445.48484848484844" type="line"/>
      <point x="962.5505050505051" y="647.8282828282828" type="line"/>
      <point x="128.6313131313131" y="647.8282828282828" type="line"/>
    </contour>
  </outline>
</glyph>
<glyph name="greater" format="2">
  <advance width="1091.1818181818182"/>
  <unicode hex="003E"/>
  <outline>
    <contour>
      <point x="128.6313131313131" y="308.7272727272727" type="line"/>
      <point x="962.5505050505051" y="637.8080808080808" type="line"/>
      <point x="962.5505050505051" y="882.1919191919192" type="line"/>
      <point x="128.6313131313131" y="1211.2727272727273" type="line"/>
      <point x="128.6313131313131" y="1005.2525252525253" type="line"/>
      <point x="810.4646464646464" y="744.7575757575758" type="line"/>
      <point x="810.4646464646464" y="777.9444444444445" type="line"/>
      <point x="128.6313131313131" y="514.7474747474747" type="line"/>
    </contour>
  </outline>
</glyph>
<glyph name="question" format="2">
  <advance width="959.459595959596"/>
  <unicode hex="003F"/>
  <outline>
    <contour>
      <point x="349.19191919191917" y="425.3737373737374" type="line"/>
      <point x="510.1363636363636" y="425.3737373737374" type="line"/>
      <point x="530.4040404040404" y="679.5959595959596" type="line"/>
      <point x="783.3030303030304" y="764.3333333333334"/>
      <point x="905.7272727272727" y="894.1969696969697"/>
      <point x="905.7272727272727" y="1107.439393939394" type="curve" smooth="yes"/>
      <point x="905.7272727272727" y="1357.4343434343434"/>
      <point x="731.1111111111111" y="1499.080808080808"/>
      <point x="391.64141414141415" y="1499.080808080808" type="curve" smooth="yes"/>
      <point x="268.9141414141414" y="1499.080808080808"/>
      <point x="129.5151515151515" y="1477.919191919192"/>
      <point x="34.272727272727266" y="1444.540404040404" type="curve"/>
      <point x="34.272727272727266" y="1236.5757575757575" type="line"/>
      <point x="135.94949494949495" y="1272.8737373737374"/>
      <point x="253.0" y="1292.0353535353536"/>
      <point x="363.0808080808081" y="1292.0353535353536" type="curve" smooth="yes"/>
      <point x="558.8737373737374" y="1292.0353535353536"/>
      <point x="650.3686868686868" y="1220.4595959595958"/>
      <point x="650.3686868686868" y="1086.9040404040404" type="curve" smooth="yes"/>
      <point x="650.3686868686868" y="956.969696969697"/>
      <point x="571.959595959596" y="872.6111111111111"/>
      <point x="304.2272727272727" y="807.2777777777778" type="curve"/>
    </contour>
    <contour>
      <point x="429.9343434343434" y="-15.404040404040405" type="curve" smooth="yes"/>
      <point x="535.4848484848485" y="-15.404040404040405"/>
      <point x="603.2575757575758" y="47.883838383838395"/>
      <point x="603.2575757575758" y="140.62626262626264" type="curve" smooth="yes"/>
      <point x="603.2575757575758" y="234.28787878787884"/>
      <point x="536.7272727272727" y="297.5757575757576"/>
      <point x="429.9343434343434" y="297.5757575757576" type="curve" smooth="yes"/>
      <point x="323.14141414141415" y="297.5757575757576"/>
      <point x="256.6111111111111" y="236.449494949495"/>
      <point x="256.6111111111111" y="140.62626262626264" type="curve" smooth="yes"/>
      <point x="256.6111111111111" y="45.72222222222223"/>
      <point x="325.3030303030303" y="-15.404040404040405"/>
    </contour>
  </outline>
</glyph>
<glyph name="at" format="2">
  <advance width="2027.378787878788"/>
  <unicode hex="0040"/>
  <outline>
    <contour>
      <point x="1060.378787878788" y="-460.0" type="curve" smooth="yes"/>
      <point x="1210.9141414141413" y="-460.0"/>
      <point x="1357.828282828283" y="-440.16161616161617"/>
      <point x="1493.090909090909" y="-405.0808080808081" type="curve"/>
      <point x="1493.090909090909" y="-230.08080808080805" type="line"/>
      <point x="1347.0959595959596" y="-267.45959595959596"/>
      <point x="1208.6161616161617" y="-285.9191919191919"/>
      <point x="1060.378787878788" y="-285.9191919191919" type="curve" smooth="yes"/>
      <point x="536.6010101010102" y="-285.9191919191919"/>
      <point x="293.21717171717177" y="-64.04545454545452"/>
      <point x="293.21717171717177" y="521.8383838383838" type="curve" smooth="yes"/>
      <point x="293.21717171717177" y="1101.2878787878788"/>
      <point x="535.6818181818182" y="1323.919191919192"/>
      <point x="1021.0808080808081" y="1323.919191919192" type="curve" smooth="yes"/>
      <point x="1506.560606060606" y="1323.919191919192"/>
      <point x="1746.8080808080808" y="1107.449494949495"/>
      <point x="1748.969696969697" y="568.0505050505051" type="curve" smooth="yes"/>
      <point x="1750.590909090909" y="245.30808080808083"/>
      <point x="1669.9343434343434" y="155.00000000000003"/>
      <point x="1572.469696969697" y="155.00000000000003" type="curve" smooth="yes"/>
      <point x="1502.7070707070707" y="155.00000000000003"/>
      <point x="1465.6515151515152" y="193.5707070707071"/>
      <point x="1465.6515151515152" y="289.7676767676768" type="curve" smooth="yes"/>
      <point x="1465.6515151515152" y="671.1818181818181" type="line" smooth="yes"/>
      <point x="1465.6515151515152" y="989.3030303030303"/>
      <point x="1315.439393939394" y="1097.080808080808"/>
      <point x="1000.5151515151515" y="1097.080808080808" type="curve" smooth="yes"/>
      <point x="892.3030303030303" y="1097.080808080808"/>
      <point x="765.2525252525253" y="1078.459595959596"/>
      <point x="665.5" y="1044.29797979798" type="curve"/>
      <point x="664.4191919191919" y="843.8989898989898" type="line"/>
      <point x="761.9343434343434" y="878.7373737373737"/>
      <point x="872.3383838383838" y="895.4393939393939"/>
      <point x="957.2828282828283" y="895.4393939393939" type="curve" smooth="yes"/>
      <point x="1133.4747474747476" y="895.4393939393939"/>
      <point x="1210.6717171717173" y="845.0050505050505"/>
      <point x="1210.6717171717173" y="681.4494949494949" type="curve" smooth="yes"/>
      <point x="1210.6717171717173" y="261.0707070707071" type="line"/>
      <point x="1153.7171717171718" y="195.2727272727273"/>
      <point x="1069.0050505050506" y="168.8888888888889"/>
      <point x="1000.6414141414141" y="168.8888888888889" type="curve" smooth="yes"/>
      <point x="896.4646464646465" y="168.8888888888889"/>
      <point x="833.2979797979799" y="217.24747474747477"/>
      <point x="833.2979797979799" y="316.7727272727273" type="curve" smooth="yes"/>
      <point x="833.2979797979799" y="414.32323232323233"/>
      <point x="893.0606060606061" y="464.0050505050505"/>
      <point x="1025.6969696969697" y="477.27777777777777" type="curve" smooth="yes"/>
      <point x="1285.3383838383838" y="502.0656565656566" type="line"/>
      <point x="1259.3989898989898" y="649.1262626262626" type="line"/>
      <point x="1002.3787878787879" y="624.3383838383838" type="line" smooth="yes"/>
      <point x="702.9343434343434" y="599.6616161616162"/>
      <point x="574.4797979797979" y="489.1515151515152"/>
      <point x="574.4797979797979" y="289.6969696969697" type="curve" smooth="yes"/>
      <point x="574.4797979797979" y="100.13131313131314"/>
      <point x="703.5050505050506" y="-19.242424242424242"/>
      <point x="919.8232323232323" y="-19.242424242424242" type="curve" smooth="yes"/>
      <point x="1044.7171717171718" y="-19.242424242424242"/>
      <point x="1161.3131313131314" y="25.030303030303028"/>
      <point x="1217.7777777777778" y="129.24242424242425" type="curve"/>
      <point x="1233.2626262626263" y="129.24242424242425" type="line"/>
      <point x="1281.9848484848485" y="32.89393939393939"/>
      <point x="1376.328282828283" y="-19.242424242424242"/>
      <point x="1517.1313131313132" y="-19.242424242424242" type="curve" smooth="yes"/>
      <point x="1759.9494949494951" y="-19.242424242424242"/>
      <point x="1935.39898989899" y="143.67676767676767"/>
      <point x="1935.858585858586" y="575.1313131313132" type="curve" smooth="yes"/>
      <point x="1936.318181818182" y="1197.2171717171718"/>
      <point x="1608.8434343434344" y="1498.0"/>
      <point x="1021.0808080808081" y="1498.0" type="curve" smooth="yes"/>
      <point x="433.85858585858585" y="1498.0"/>
      <point x="91.520202020202" y="1197.2171717171718"/>
      <point x="91.520202020202" y="520.0" type="curve" smooth="yes"/>
      <point x="91.520202020202" y="-159.97474747474746"/>
      <point x="435.23737373737373" y="-459.54040404040404"/>
    </contour>
  </outline>
</glyph>
<glyph name="B" format="2">
  <advance width="1305.7070707070707"/>
  <unicode hex="0042"/>
  <anchor x="667.7727272727273" y="0.0" name="bottom"/>
  <anchor x="667.7727272727273" y="1480.0" name="top"/>
  <outline>
    <contour>
      <point x="544.4545454545455" y="-15.404040404040405" type="curve" smooth="yes"/>
      <point x="1055.5707070707072" y="-15.404040404040405"/>
      <point x="1245.4848484848485" y="136.56565656565658"/>
      <point x="1245.4848484848485" y="410.6717171717172" type="curve" smooth="yes"/>
      <point x="1245.4848484848485" y="616.9949494949495"/>
      <point x="1128.29797979798" y="741.8383838383838"/>
      <point x="924.1767676767677" y="769.3787878787879" type="curve"/>
      <point x="922.7979797979799" y="756.0" type="line"/>
      <point x="1110.378787878788" y="789.540404040404"/>
      <point x="1204.1060606060607" y="924.1919191919192"/>
      <point x="1204.1060606060607" y="1091.6262626262626" type="curve" smooth="yes"/>
      <point x="1204.1060606060607" y="1363.5959595959596"/>
      <point x="1021.7878787878788" y="1497.2424242424242"/>
      <point x="595.9090909090909" y="1497.2424242424242" type="curve" smooth="yes"/>
      <point x="437.72222222222223" y="1497.2424242424242"/>
      <point x="277.6010101010101" y="1478.2171717171718"/>
      <point x="146.22727272727272" y="1449.7323232323233" type="curve"/>
      <point x="146.22727272727272" y="11.621212121212121" type="line"/>
      <point x="273.46969696969694" y="-5.540404040404041"/>
      <point x="423.0505050505051" y="-15.404040404040405"/>
    </contour>
    <contour>
      <point x="611.3030303030303" y="182.4545454545455" type="curve" smooth="yes"/>
      <point x="539.4848484848485" y="182.4545454545455"/>
      <point x="477.10101010101016" y="184.83333333333337"/>
      <point x="406.07070707070716" y="193.05050505050508" type="curve"/>
      <point x="406.07070707070716" y="1280.7070707070707" type="line"/>
      <point x="471.2373737373738" y="1292.4646464646464"/>
      <point x="539.8636363636364" y="1299.3838383838383"/>
      <point x="627.8737373737374" y="1299.3838383838383" type="curve" smooth="yes"/>
      <point x="865.1414141414141" y="1299.3838383838383"/>
      <point x="953.530303030303" y="1234.3232323232323"/>
      <point x="953.530303030303" y="1078.6565656565656" type="curve" smooth="yes"/>
      <point x="953.530303030303" y="931.4242424242425"/>
      <point x="870.3585858585859" y="858.8484848484849"/>
      <point x="646.5" y="858.8484848484849" type="curve" smooth="yes"/>
      <point x="376.0202020202021" y="858.8484848484849" type="line"/>
      <point x="376.0202020202021" y="656.1262626262626" type="line"/>
      <point x="676.7424242424242" y="656.1262626262626" type="line" smooth="yes"/>
      <point x="902.5454545454545" y="656.1262626262626"/>
      <point x="998.2323232323232" y="582.0909090909091"/>
      <point x="998.2323232323232" y="420.93939393939394" type="curve" smooth="yes"/>
      <point x="998.2323232323232" y="259.949494949495"/>
      <point x="904.6818181818182" y="182.4545454545455"/>
    </contour>
  </outline>
</glyph>
<glyph name="D" format="2">
  <advance width="1463.5101010101012"/>
  <unicode hex="0044"/>
  <anchor x="667.7424242424242" y="0.0" name="bottom"/>
  <anchor x="723.959595959596" y="740.0" name="center"/>
  <anchor x="146.22727272727272" y="762.0" name="stroke"/>
  <anchor x="656.9343434343434" y="1520.0" name="top"/>
  <outline>
    <contour>
      <point x="531.7777777777778" y="-13.782828282828284" type="curve" smooth="yes"/>
      <point x="1091.9444444444443" y="-13.782828282828284"/>
      <point x="1371.989898989899" y="212.81313131313132"/>
      <point x="1371.989898989899" y="740.0" type="curve" smooth="yes"/>
      <point x="1371.989898989899" y="1255.9444444444443"/>
      <point x="1104.7272727272727" y="1495.621212121212"/>
      <point x="585.2020202020202" y="1495.621212121212" type="curve" smooth="yes"/>
      <point x="439.37373737373736" y="1495.621212121212"/>
      <point x="277.3030303030303" y="1478.2171717171718"/>
      <point x="146.22727272727272" y="1450.1919191919192" type="curve"/>
      <point x="146.22727272727272" y="8.919191919191919" type="line"/>
      <point x="281.17171717171715" y="-7.161616161616162"/>
      <point x="412.72727272727275" y="-13.782828282828284"/>
    </contour>
    <contour>
      <point x="597.0050505050506" y="204.61111111111114" type="curve" smooth="yes"/>
      <point x="528.969696969697" y="204.61111111111114"/>
      <point x="471.80303030303037" y="206.90909090909093"/>
      <point x="412.01515151515156" y="213.5858585858586" type="curve"/>
      <point x="412.01515151515156" y="1261.7121212121212" type="line"/>
      <point x="473.5909090909091" y="1271.9292929292928"/>
      <point x="543.2171717171717" y="1278.3080808080808"/>
      <point x="601.8181818181819" y="1278.3080808080808" type="curve" smooth="yes"/>
      <point x="932.3282828282828" y="1278.3080808080808"/>
      <point x="1098.9595959595958" y="1123.050505050505"/>
      <point x="1098.9595959595958" y="741.0808080808081" type="curve" smooth="yes"/>
      <point x="1098.9595959595958" y="355.1919191919192"/>
      <point x="933.0555555555555" y="204.61111111111114"/>
    </contour>
  </outline>
</glyph>
<glyph name="F" format="2">
  <advance width="1181.0"/>
  <unicode hex="0046"/>
  <outline>
    <contour>
      <point x="146.22727272727272" y="0.0" type="line"/>
      <point x="412.01515151515156" y="0.0" type="line"/>
      <point x="412.01515151515156" y="1261.0656565656566" type="line"/>
      <point x="1135.8636363636365" y="1261.0656565656566" type="line"/>
      <point x="1135.8636363636365" y="1480.0" type="line"/>
      <point x="146.22727272727272" y="1480.0" type="line"/>
    </contour>
    <contour>
      <point x="319.1717171717172" y="622.0808080808081" type="line"/>
      <point x="1035.459595959596" y="622.0808080808081" type="line"/>
      <point x="1035.459595959596" y="841.0151515151515" type="line"/>
      <point x="319.1717171717172" y="841.0151515151515" type="line"/>
    </contour>
  </outline>
</glyph>
<glyph name="H" format="2">
  <advance width="1496.3535353535353"/>
  <unicode hex="0048"/>
  <anchor x="748.7171717171717" y="0.0" name="bottom"/>
  <anchor x="748.7171717171717" y="1178.3686868686868" name="center"/>
  <anchor x="748.7171717171717" y="1520.0" name="top"/>
  <anchor x="38.2979797979798" y="1480.0" name="topleft"/>
  <outline>
    <contour>
      <point x="146.22727272727272" y="0.0" type="line"/>
      <point x="412.01515151515156" y="0.0" type="line"/>
      <point x="412.01515151515156" y="639.9141414141413" type="line"/>
      <point x="1084.3383838383838" y="639.9141414141413" type="line"/>
      <point x="1084.3383838383838" y="0.0" type="line"/>
      <point x="1350.1262626262626" y="0.0" type="line"/>
      <point x="1350.1262626262626" y="1480.0" type="line"/>
      <point x="1084.3383838383838" y="1480.0" type="line"/>
      <point x="1084.3383838383838" y="875.6010101010102" type="line"/>
      <point x="412.01515151515156" y="875.6010101010102" type="line"/>
      <point x="412.01515151515156" y="1480.0" type="line"/>
      <point x="146.22727272727272" y="1480.0" type="line"/>
    </contour>
  </outline>
</glyph>
<glyph name="I" format="2">
  <advance width="558.2424242424242"/>
  <unicode hex="0049"/>
  <anchor x="278.5808080808081" y="0.0" name="bottom"/>
  <anchor x="412.01515151515156" y="0.0" name="ogonek"/>
  <anchor x="279.1212121212121" y="1520.0" name="top"/>
  <outline>
    <contour>
      <point x="146.22727272727272" y="0.0" type="line"/>
      <point x="412.01515151515156" y="0.0" type="line"/>
      <point x="412.01515151515156" y="1480.0" type="line"/>
      <point x="146.22727272727272" y="1480.0" type="line"/>
    </contour>
  </outline>
</glyph>
<glyph name="J" format="2">
  <advance width="558.2424242424242"/>
  <unicode hex="004A"/>
  <anchor x="435.91414141414145" y="0.0" name="bottom"/>
  <anchor x="279.66161616161617" y="1520.0" name="top"/>
  <outline>
    <contour>
      <point x="153.37878787878793" y="-347.5656565656566" type="line"/>
      <point x="341.07070707070716" y="-138.75757575757575"/>
      <point x="406.959595959596" y="47.93939393939395"/>
      <point x="412.01515151515156" y="289.2070707070707" type="curve"/>
      <point x="412.01515151515156" y="1480.0" type="line"/>
      <point x="147.3080808080808" y="1480.0" type="line"/>
      <point x="147.3080808080808" y="295.72727272727275" type="line" smooth="yes"/>
      <point x="147.3080808080808" y="74.1010101010101"/>
      <point x="102.81818181818181" y="-71.2020202020202"/>
      <point x="-17.212121212121218" y="-233.12626262626262" type="curve"/>
    </contour>
  </outline>
</glyph>
<glyph name="K" format="2">
  <advance width="1295.9444444444446"/>
  <unicode hex="004B"/>
  <anchor x="678.1464646464647" y="0.0" name="bottom"/>
  <anchor x="673.2828282828283" y="1480.0" name="top"/>
  <outline>
    <contour>
      <point x="1042.0707070707072" y="0.0" type="line"/>
      <point x="1333.5050505050506" y="0.0" type="line"/>
      <point x="767.4343434343435" y="795.6161616161617" type="line"/>
      <point x="763.1111111111112" y="725.1414141414141" type="line"/>
      <point x="1290.9646464646464" y="1480.0" type="line"/>
      <point x="1008.5555555555555" y="1480.0" type="line"/>
      <point x="501.51010101010104" y="754.7575757575758" type="line"/>
    </contour>
    <contour>
      <point x="146.22727272727272" y="0.0" type="line"/>
      <point x="412.01515151515156" y="0.0" type="line"/>
      <point x="412.01515151515156" y="1480.0" type="line"/>
      <point x="146.22727272727272" y="1480.0" type="line"/>
    </contour>
    <contour>
      <point x="373.31818181818187" y="639.9141414141413" type="line"/>
      <point x="610.3585858585859" y="639.9141414141413" type="line"/>
      <point x="610.3585858585859" y="875.1414141414142" type="line"/>
      <point x="373.31818181818187" y="875.1414141414142" type="line"/>
    </contour>
  </outline>
</glyph>
<glyph name="L" format="2">
  <advance width="1119.949494949495"/>
  <unicode hex="004C"/>
  <anchor x="628.39898989899" y="0.0" name="bottom"/>
  <anchor x="736.2525252525253" y="1616.0" name="caronalt"/>
  <anchor x="829.6767676767677" y="848.5757575757576" name="periodcentered"/>
  <anchor x="281.2828282828283" y="817.2323232323232" name="slash"/>
  <anchor x="281.2828282828283" y="1520.0" name="top"/>
  <outline>
    <contour>
      <point x="146.22727272727272" y="0.0" type="line"/>
      <point x="1109.6515151515152" y="0.0" type="line"/>
      <point x="1109.6515151515152" y="223.2575757575758" type="line"/>
      <point x="412.01515151515156" y="223.2575757575758" type="line"/>
      <point x="412.01515151515156" y="1480.0" type="line"/>
      <point x="146.22727272727272" y="1480.0" type="line"/>
    </contour>
  </outline>
</glyph>
<glyph name="M" format="2">
  <advance width="1834.6666666666667"/>
  <unicode hex="004D"/>
  <anchor x="933.0050505050506" y="0.0" name="bottom"/>
  <anchor x="933.0050505050506" y="1480.0" name="top"/>
  <outline>
    <contour>
      <point x="150.22727272727272" y="0.0" type="line"/>
      <point x="398.88383838383845" y="0.0" type="line"/>
      <point x="398.88383838383845" y="1247.9898989898988" type="line"/>
      <point x="330.0808080808081" y="1247.9898989898988" type="line"/>
      <point x="805.8383838383838" y="210.8080808080808" type="line"/>
      <point x="1028.828282828283" y="210.8080808080808" type="line"/>
      <point x="1493.3989898989898" y="1247.9898989898988" type="line"/>
      <point x="1435.7828282828282" y="1247.9898989898988" type="line"/>
      <point x="1435.7828282828282" y="0.0" type="line"/>
      <point x="1684.439393939394" y="0.0" type="line"/>
      <point x="1684.439393939394" y="1480.0" type="line"/>
      <point x="1363.0151515151515" y="1480.0" type="line"/>
      <point x="903.3333333333334" y="439.51515151515156" type="line"/>
      <point x="940.7373737373738" y="439.51515151515156" type="line"/>
      <point x="471.6515151515152" y="1480.0" type="line"/>
      <point x="150.22727272727272" y="1480.0" type="line"/>
    </contour>
  </outline>
</glyph>
<glyph name="N" format="2">
  <advance width="1516.1666666666667"/>
  <unicode hex="004E"/>
  <anchor x="758.3131313131313" y="0.0" name="bottom"/>
  <anchor x="758.3131313131313" y="1520.0" name="top"/>
  <outline>
    <contour>
      <point x="146.22727272727272" y="0.0" type="line"/>
      <point x="396.5050505050506" y="0.0" type="line"/>
      <point x="396.5050505050506" y="1156.2828282828282" type="line"/>
      <point x="346.5909090909091" y="1156.2828282828282" type="line"/>
      <point x="1101.4747474747473" y="0.0" type="line"/>
      <point x="1369.939393939394" y="0.0" type="line"/>
      <point x="1369.939393939394" y="1480.0" type="line"/>
      <point x="1119.6616161616162" y="1480.0" type="line"/>
      <point x="1119.6616161616162" y="323.71717171717177" type="line"/>
      <point x="1169.5757575757575" y="323.71717171717177" type="line"/>
      <point x="414.6919191919193" y="1480.0" type="line"/>
      <point x="146.22727272727272" y="1480.0" type="line"/>
    </contour>
  </outline>
</glyph>
<glyph name="P" format="2">
  <advance width="1286.1363636363637"/>
  <unicode hex="0050"/>
  <outline>
    <contour>
      <point x="146.22727272727272" y="0.0" type="line"/>
      <point x="412.01515151515156" y="0.0" type="line"/>
      <point x="412.01515151515156" y="455.50505050505046" type="line"/>
      <point x="467.7777777777778" y="451.8282828282828"/>
      <point x="515.9444444444445" y="449.36868686868684"/>
      <point x="573.8686868686868" y="449.36868686868684" type="curve" smooth="yes"/>
      <point x="998.5707070707072" y="449.36868686868684"/>
      <point x="1207.1313131313132" y="630.4747474747475"/>
      <point x="1207.1313131313132" y="973.4949494949495" type="curve" smooth="yes"/>
      <point x="1207.1313131313132" y="1335.9747474747476"/>
      <point x="991.4343434343434" y="1497.2424242424242"/>
      <point x="569.4494949494949" y="1497.2424242424242" type="curve" smooth="yes"/>
      <point x="415.02525252525254" y="1497.2424242424242"/>
      <point x="279.22222222222223" y="1480.919191919192"/>
      <point x="146.22727272727272" y="1455.0555555555557" type="curve"/>
    </contour>
    <contour>
      <point x="577.409090909091" y="652.6313131313132" type="curve" smooth="yes"/>
      <point x="515.4848484848485" y="652.6313131313132"/>
      <point x="466.10101010101016" y="655.5505050505051"/>
      <point x="412.01515151515156" y="662.8484848484849" type="curve"/>
      <point x="412.01515151515156" y="1279.5454545454545" type="line"/>
      <point x="467.4545454545455" y="1289.2222222222222"/>
      <point x="522.570707070707" y="1293.979797979798"/>
      <point x="592.1464646464647" y="1293.979797979798" type="curve" smooth="yes"/>
      <point x="832.9242424242424" y="1293.979797979798"/>
      <point x="947.6111111111111" y="1197.3232323232323"/>
      <point x="947.6111111111111" y="971.0353535353536" type="curve" smooth="yes"/>
      <point x="947.6111111111111" y="749.39898989899"/>
      <point x="834.7626262626262" y="652.6313131313132"/>
    </contour>
  </outline>
</glyph>
<glyph name="Q" format="2">
  <advance width="1517.1515151515152"/>
  <unicode hex="0051"/>
  <outline>
    <contour>
      <point x="1361.0707070707072" y="-284.8383838383839" type="curve"/>
      <point x="1404.5757575757575" y="-74.010101010101" type="line"/>
      <point x="1177.0656565656566" y="-49.444444444444436"/>
      <point x="942.1161616161617" y="-4.959595959595944"/>
      <point x="727.939393939394" y="80.30808080808083" type="curve"/>
      <point x="651.8787878787879" y="13.075757575757581" type="line"/>
      <point x="1164.4242424242425" y="-52.05555555555556"/>
      <point x="1425.6313131313132" y="226.02020202020202"/>
      <point x="1425.6313131313132" y="740.0" type="curve" smooth="yes"/>
      <point x="1425.6313131313132" y="1263.979797979798"/>
      <point x="1160.5050505050506" y="1499.080808080808"/>
      <point x="758.5757575757576" y="1499.080808080808" type="curve" smooth="yes"/>
      <point x="356.64646464646466" y="1499.080808080808"/>
      <point x="91.520202020202" y="1262.3030303030303"/>
      <point x="91.520202020202" y="734.5959595959596" type="curve" smooth="yes"/>
      <point x="91.520202020202" y="168.61111111111111"/>
      <point x="376.02525252525254" y="-146.95959595959596"/>
    </contour>
    <contour>
      <point x="758.5757575757576" y="198.69191919191923" type="curve" smooth="yes"/>
      <point x="514.2929292929293" y="198.69191919191923"/>
      <point x="364.5505050505051" y="343.42929292929296"/>
      <point x="364.5505050505051" y="746.1616161616162" type="curve" smooth="yes"/>
      <point x="364.5505050505051" y="1135.4898989898988"/>
      <point x="516.9949494949495" y="1281.3080808080808"/>
      <point x="758.5757575757576" y="1281.3080808080808" type="curve" smooth="yes"/>
      <point x="1000.1565656565656" y="1281.3080808080808"/>
      <point x="1152.6010101010102" y="1133.8686868686868"/>
      <point x="1152.6010101010102" y="733.8383838383838" type="curve" smooth="yes"/>
      <point x="1152.6010101010102" y="346.13131313131316"/>
      <point x="1001.7777777777778" y="198.69191919191923"/>
    </contour>
  </outline>
</glyph>
<glyph name="T" format="2">
  <advance width="1245.4797979797981"/>
  <unicode hex="0054"/>
  <anchor x="623.010101010101" y="0.0" name="bottom"/>
  <anchor x="623.010101010101" y="745.959595959596" name="center"/>
  <anchor x="623.010101010101" y="1520.0" name="top"/>
  <outline>
    <contour>
      <point x="489.57575757575756" y="0.0" type="line"/>
      <point x="755.9040404040404" y="0.0" type="line"/>
      <point x="755.9040404040404" y="1256.7424242424242" type="line"/>
      <point x="1232.020202020202" y="1256.7424242424242" type="line"/>
      <point x="1232.020202020202" y="1480.0" type="line"/>
      <point x="13.459595959595958" y="1480.0" type="line"/>
      <point x="13.459595959595958" y="1256.7424242424242" type="line"/>
      <point x="489.57575757575756" y="1256.7424242424242" type="line"/>
    </contour>
  </outline>
</glyph>
<glyph name="V" format="2">
  <advance width="1388.6666666666667"/>
  <unicode hex="0056"/>
  <outline>
    <contour>
      <point x="498.7222222222222" y="0.0" type="line"/>
      <point x="889.9444444444446" y="0.0" type="line"/>
      <point x="1384.0959595959596" y="1480.0" type="line"/>
      <point x="1123.9545454545455" y="1480.0" type="line"/>
      <point x="672.1212121212121" y="111.8737373737374" type="line"/>
      <point x="730.2727272727273" y="111.8737373737374" type="line"/>
      <point x="283.30303030303037" y="1480.0" type="line"/>
      <point x="4.570707070707067" y="1480.0" type="line"/>
    </contour>
  </outline>
</glyph>
<glyph name="X" format="2">
  <advance width="1340.348484848485"/>
  <unicode hex="0058"/>
  <outline>
    <contour>
      <point x="1057.8484848484848" y="0.0" type="line"/>
      <point x="1354.0656565656566" y="0.0" type="line"/>
      <point x="824.929292929293" y="765.2929292929293" type="line"/>
      <point x="670.4444444444445" y="960.0151515151515" type="line"/>
      <point x="310.49494949494954" y="1480.0" type="line"/>
      <point x="13.116161616161609" y="1480.0" type="line"/>
      <point x="512.7979797979798" y="762.1313131313132" type="line"/>
      <point x="667.2828282828283" y="568.570707070707" type="line"/>
    </contour>
    <contour>
      <point x="-16.338383838383848" y="0.0" type="line"/>
      <point x="276.2575757575758" y="0.0" type="line"/>
      <point x="667.2828282828283" y="568.570707070707" type="line"/>
      <point x="824.929292929293" y="765.2929292929293" type="line"/>
      <point x="1319.7474747474748" y="1480.0" type="line"/>
      <point x="1030.3131313131312" y="1480.0" type="line"/>
      <point x="670.4444444444445" y="960.0151515151515" type="line"/>
      <point x="512.7979797979798" y="762.1313131313132" type="line"/>
    </contour>
  </outline>
</glyph>
<glyph name="Y" format="2">
  <advance width="1245.4797979797981"/>
  <unicode hex="0059"/>
  <anchor x="622.469696969697" y="0.0" name="bottom"/>
  <anchor x="623.010101010101" y="1520.0" name="top"/>
  <anchor x="-2.752525252525258" y="1480.0" name="topleft"/>
  <outline>
    <contour>
      <point x="491.1969696969697" y="0.0" type="line"/>
      <point x="756.9848484848485" y="0.0" type="line"/>
      <point x="756.9848484848485" y="742.6666666666666" type="line"/>
      <point x="702.2373737373738" y="549.8636363636364" type="line"/>
      <point x="1279.1767676767677" y="1480.0" type="line"/>
      <point x="1014.3585858585859" y="1480.0" type="line"/>
      <point x="590.7979797979798" y="801.6010101010102" type="line"/>
      <point x="669.1111111111111" y="801.6010101010102" type="line"/>
      <point x="240.1717171717172" y="1480.0" type="line"/>
      <point x="-44.39898989898991" y="1480.0" type="line"/>
      <point x="545.9444444444445" y="549.8636363636364" type="line"/>
      <point x="491.1969696969697" y="745.9090909090909" type="line"/>
    </contour>
  </outline>
</glyph>
<glyph name="Z" format="2">
  <advance width="1207.8383838383838"/>
  <unicode hex="005A"/>
  <anchor x="602.7979797979798" y="0.0" name="bottom"/>
  <anchor x="604.959595959596" y="1520.0" name="top"/>
  <outline>
    <contour>
      <point x="60.2979797979798" y="0.0" type="line"/>
      <point x="1147.5404040404042" y="0.0" type="line"/>
      <point x="1147.5404040404042" y="222.3383838383839" type="line"/>
      <point x="363.69696969696975" y="222.3383838383839" type="line"/>
      <point x="370.13131313131316" y="169.23737373737376" type="line"/>
      <point x="1136.6212121212122" y="1333.540404040404" type="line"/>
      <point x="1136.6212121212122" y="1480.0" type="line"/>
      <point x="71.21717171717171" y="1480.0" type="line"/>
      <point x="71.21717171717171" y="1257.6616161616162" type="line"/>
      <point x="833.2222222222222" y="1257.6616161616162" type="line"/>
      <point x="826.7878787878788" y="1310.7626262626263" type="line"/>
      <point x="60.2979797979798" y="146.459595959596" type="line"/>
    </contour>
  </outline>
</glyph>
<glyph name="bracketleft" format="2">
  <advance width="695.1717171717172"/>
  <unicode hex="005B"/>
  <outline>
    <contour>
      <point x="166.22727272727272" y="-440.0" type="line"/>
      <point x="722.2020202020202" y="-440.0" type="line"/>
      <point x="722.2020202020202" y="-232.25252525252523" type="line"/>
      <point x="427.1515151515152" y="-232.25252525252523" type="line"/>
      <point x="427.1515151515152" y="1408.2525252525252" type="line"/>
      <point x="727.6060606060606" y="1408.2525252525252" type="line"/>
      <point x="727.6060606060606" y="1616.0" type="line"/>
      <point x="166.22727272727272" y="1616.0" type="line"/>
    </contour>
  </outline>
</glyph>
<glyph name="backslash" format="2">
  <advance width="727.4343434343434"/>
  <unicode hex="005C"/>
  <outline>
    <contour>
      <point x="468.91414141414145" y="-240.0" type="line"/>
      <point x="727.4343434343434" y="-240.0" type="line"/>
      <point x="258.5202020202021" y="1616.0" type="line"/>
      <point x="0.0" y="1616.0" type="line"/>
    </contour>
  </outline>
</glyph>
<glyph name="bracketright" format="2">
  <advance width="695.1717171717172"/>
  <unicode hex="005D"/>
  <outline>
    <contour>
      <point x="-27.030303030303028" y="-440.0" type="line"/>
      <point x="528.9444444444445" y="-440.0" type="line"/>
      <point x="528.9444444444445" y="1616.0" type="line"/>
      <point x="-32.43434343434343" y="1616.0" type="line"/>
      <point x="-32.43434343434343" y="1408.2525252525252" type="line"/>
      <point x="268.020202020202" y="1408.2525252525252" type="line"/>
      <point x="268.020202020202" y="-232.25252525252523" type="line"/>
      <point x="-27.030303030303028" y="-232.25252525252523" type="line"/>
    </contour>
  </outline>
</glyph>
<glyph name="asciicircum" format="2">
  <advance width="1218.888888888889"/>
  <unicode hex="005E"/>
  <outline>
    <contour>
      <point x="76.17171717171715" y="740.0" type="line"/>
      <point x="332.96464646464653" y="740.0" type="line"/>
      <point x="660.459595959596" y="1350.0757575757575" type="line"/>
      <point x="558.429292929293" y="1350.0757575757575" type="line"/>
      <point x="885.9242424242424" y="740.0" type="line"/>
      <point x="1142.7171717171718" y="740.0" type="line"/>
      <point x="735.9646464646464" y="1480.0" type="line"/>
      <point x="482.0050505050505" y="1480.0" type="line"/>
    </contour>
  </outline>
</glyph>
<glyph name="underscore" format="2">
  <advance width="1177.919191919192"/>
  <unicode hex="005F"/>
  <outline>
    <contour>
      <point x="89.5959595959596" y="-208.2878787878788" type="line"/>
      <point x="1088.3232323232323" y="-208.2878787878788" type="line"/>
      <point x="1088.3232323232323" y="-0.5404040404040406" type="line"/>
      <point x="89.5959595959596" y="-0.5404040404040406" type="line"/>
    </contour>
  </outline>
</glyph>
<glyph name="b" format="2">
  <advance width="1193.1313131313132"/>
  <unicode hex="0062"/>
  <anchor x="600.6868686868687" y="0.0" name="bottom"/>
  <anchor x="261.2828282828283" y="1616.0" name="top"/>
  <outline>
    <contour>
      <point x="520.469696969697" y="-19.62121212121212" type="curve" smooth="yes"/>
      <point x="916.5606060606061" y="-20.161616161616163"/>
      <point x="1114.8535353535353" y="178.67171717171718"/>
      <point x="1114.8535353535353" y="567.0252525252525" type="curve" smooth="yes"/>
      <point x="1114.8535353535353" y="952.2727272727273"/>
      <point x="922.2070707070707" y="1107.888888888889"/>
      <point x="693.9646464646465" y="1107.888888888889" type="curve" smooth="yes"/>
      <point x="567.6919191919192" y="1107.888888888889"/>
      <point x="468.79797979797985" y="1058.9949494949494"/>
      <point x="404.50000000000006" y="982.2929292929293" type="curve"/>
      <point x="391.4747474747475" y="982.2929292929293" type="line"/>
      <point x="391.4747474747475" y="1616.0" type="line"/>
      <point x="130.55050505050502" y="1616.0" type="line"/>
      <point x="130.55050505050502" y="36.96969696969697" type="line"/>
      <point x="247.89393939393938" y="-1.3787878787878785"/>
      <point x="389.9646464646465" y="-19.62121212121212"/>
    </contour>
    <contour>
      <point x="542.3030303030303" y="181.479797979798" type="curve" smooth="yes"/>
      <point x="485.7828282828283" y="181.479797979798"/>
      <point x="431.2626262626263" y="189.61616161616166"/>
      <point x="391.4747474747475" y="200.6717171717172" type="curve"/>
      <point x="391.4747474747475" y="804.1515151515151" type="line"/>
      <point x="444.39898989898995" y="863.8939393939394"/>
      <point x="522.8686868686868" y="891.6565656565656"/>
      <point x="599.7171717171717" y="891.6565656565656" type="curve" smooth="yes"/>
      <point x="747.9444444444445" y="891.6565656565656"/>
      <point x="851.5505050505051" y="815.2979797979798"/>
      <point x="851.5505050505051" y="545.5151515151515" type="curve" smooth="yes"/>
      <point x="851.5505050505051" y="284.62626262626264"/>
      <point x="745.9444444444445" y="181.479797979798"/>
    </contour>
  </outline>
</glyph>
<glyph name="f" format="2">
  <advance width="771.2979797979799"/>
  <unicode hex="0066"/>
  <outline>
    <contour>
      <point x="210.14141414141415" y="0.0" type="line"/>
      <point x="469.44444444444446" y="0.0" type="line"/>
      <point x="469.44444444444446" y="1212.2373737373737" type="line" smooth="yes"/>
      <point x="469.44444444444446" y="1362.5202020202019"/>
      <point x="541.6919191919192" y="1426.2525252525252"/>
      <point x="702.479797979798" y="1426.2525252525252" type="curve" smooth="yes"/>
      <point x="742.2929292929293" y="1426.2525252525252"/>
      <point x="779.5656565656566" y="1422.8737373737374"/>
      <point x="821.0808080808081" y="1416.5757575757575" type="curve"/>
      <point x="821.0808080808081" y="1624.0" type="line"/>
      <point x="770.6767676767677" y="1632.0"/>
      <point x="719.7575757575758" y="1636.0"/>
      <point x="665.9494949494949" y="1636.0" type="curve" smooth="yes"/>
      <point x="368.5353535353536" y="1636.0"/>
      <point x="210.14141414141415" y="1478.0656565656566"/>
      <point x="210.14141414141415" y="1200.050505050505" type="curve" smooth="yes"/>
    </contour>
    <contour>
      <point x="22.565656565656568" y="883.060606060606" type="line"/>
      <point x="776.6767676767677" y="883.060606060606" type="line"/>
      <point x="776.6767676767677" y="1090.8080808080808" type="line"/>
      <point x="22.565656565656568" y="1090.8080808080808" type="line"/>
    </contour>
  </outline>
</glyph>
<glyph name="h" format="2">
  <advance width="1191.29797979798"/>
  <unicode hex="0068"/>
  <anchor x="601.2575757575758" y="0.0" name="bottom"/>
  <anchor x="601.2575757575758" y="545.4040404040404" name="center"/>
  <anchor x="130.55050505050502" y="1352.7575757575758" name="stroke"/>
  <anchor x="601.2575757575758" y="1616.0" name="top"/>
  <outline>
    <contour>
      <point x="130.55050505050502" y="0.0" type="line"/>
      <point x="391.4747474747475" y="0.0" type="line"/>
      <point x="391.4747474747475" y="771.4797979797979" type="line"/>
      <point x="451.42929292929296" y="847.520202020202"/>
      <point x="546.2525252525253" y="880.469696969697"/>
      <point x="628.5858585858585" y="880.469696969697" type="curve" smooth="yes"/>
      <point x="738.7878787878788" y="880.469696969697"/>
      <point x="809.5" y="831.6262626262626"/>
      <point x="809.5" y="678.9343434343434" type="curve" smooth="yes"/>
      <point x="809.5" y="0.0" type="line"/>
      <point x="1070.4242424242425" y="0.0" type="line"/>
      <point x="1070.4242424242425" y="695.2272727272727" type="line" smooth="yes"/>
      <point x="1070.4242424242425" y="995.8939393939394"/>
      <point x="917.8333333333334" y="1107.888888888889"/>
      <point x="718.5909090909091" y="1107.888888888889" type="curve" smooth="yes"/>
      <point x="591.5353535353536" y="1107.888888888889"/>
      <point x="483.8282828282829" y="1062.510101010101"/>
      <point x="404.50000000000006" y="976.7777777777778" type="curve"/>
      <point x="391.4747474747475" y="976.7777777777778" type="line"/>
      <point x="391.4747474747475" y="1616.0" type="line"/>
      <point x="130.55050505050502" y="1616.0" type="line"/>
    </contour>
  </outline>
</glyph>
<glyph name="j" format="2">
  <advance width="522.5656565656566"/>
  <unicode hex="006A"/>
  <anchor x="258.5808080808081" y="1202.7575757575758" name="_top"/>
  <anchor x="258.5808080808081" y="1202.7575757575758" name="top"/>
  <outline>
    <contour>
      <point x="135.54040404040407" y="-468.64646464646466" type="line"/>
      <point x="321.61111111111114" y="-259.83838383838383"/>
      <point x="392.01515151515156" y="-69.62626262626262"/>
      <point x="392.01515151515156" y="185.42929292929293" type="curve" smooth="yes"/>
      <point x="392.01515151515156" y="1090.8080808080808" type="line"/>
      <point x="130.55050505050502" y="1090.8080808080808" type="line"/>
      <point x="130.55050505050502" y="173.56565656565658" type="line" smooth="yes"/>
      <point x="130.55050505050502" y="-48.060606060606055"/>
      <point x="86.06060606060605" y="-193.36363636363635"/>
      <point x="-33.96969696969697" y="-355.28787878787875" type="curve"/>
    </contour>
    <contour>
      <point x="258.5808080808081" y="1280.6161616161617" type="curve" smooth="yes"/>
      <point x="370.2373737373738" y="1280.6161616161617"/>
      <point x="424.3383838383839" y="1332.7171717171716"/>
      <point x="424.3383838383839" y="1422.5959595959596" type="curve" smooth="yes"/>
      <point x="424.3383838383839" y="1512.4747474747476"/>
      <point x="370.2373737373738" y="1565.4949494949494"/>
      <point x="258.5808080808081" y="1565.4949494949494" type="curve" smooth="yes"/>
      <point x="146.9242424242424" y="1565.4949494949494"/>
      <point x="92.8232323232323" y="1512.4747474747476"/>
      <point x="92.8232323232323" y="1422.5959595959596" type="curve" smooth="yes"/>
      <point x="92.8232323232323" y="1332.7171717171716"/>
      <point x="146.9242424242424" y="1280.6161616161617"/>
    </contour>
  </outline>
</glyph>
<glyph name="l" format="2">
  <advance width="522.0252525252525"/>
  <unicode hex="006C"/>
  <anchor x="260.74242424242425" y="0.0" name="bottom"/>
  <anchor x="495.2626262626263" y="1616.0" name="caronalt"/>
  <anchor x="615.8636363636365" y="794.0" name="periodcentered"/>
  <anchor x="261.2828282828283" y="714.0" name="slash"/>
  <anchor x="261.2828282828283" y="1616.0" name="top"/>
  <outline>
    <contour>
      <point x="130.55050505050502" y="0.0" type="line"/>
      <point x="391.4747474747475" y="0.0" type="line"/>
      <point x="391.4747474747475" y="1616.0" type="line"/>
      <point x="130.55050505050502" y="1616.0" type="line"/>
    </contour>
  </outline>
</glyph>
<glyph name="p" format="2">
  <advance width="1193.1313131313132"/>
  <unicode hex="0070"/>
  <outline>
    <contour>
      <point x="130.55050505050502" y="-440.0" type="line"/>
      <point x="391.4747474747475" y="-440.0" type="line"/>
      <point x="391.4747474747475" y="-9.646464646464649" type="line"/>
      <point x="434.1818181818182" y="-14.863636363636365"/>
      <point x="485.94444444444446" y="-19.62121212121212"/>
      <point x="536.409090909091" y="-19.62121212121212" type="curve" smooth="yes"/>
      <point x="915.39898989899" y="-19.62121212121212"/>
      <point x="1114.8535353535353" y="180.83333333333334"/>
      <point x="1114.8535353535353" y="565.9444444444445" type="curve" smooth="yes"/>
      <point x="1114.8535353535353" y="957.6767676767677"/>
      <point x="913.1010101010102" y="1107.888888888889"/>
      <point x="673.9141414141415" y="1107.888888888889" type="curve" smooth="yes"/>
      <point x="544.4545454545455" y="1107.888888888889"/>
      <point x="443.47979797979804" y="1053.590909090909"/>
      <point x="380.18181818181824" y="973.0505050505051" type="curve"/>
      <point x="367.2373737373738" y="973.0505050505051" type="line"/>
      <point x="350.51010101010104" y="1090.8080808080808" type="line"/>
      <point x="130.55050505050502" y="1090.8080808080808" type="line"/>
    </contour>
    <contour>
      <point x="537.2474747474748" y="182.02020202020205" type="curve" smooth="yes"/>
      <point x="487.4040404040404" y="182.02020202020205"/>
      <point x="431.2626262626263" y="188.31818181818187"/>
      <point x="391.4747474747475" y="196.91414141414145" type="curve"/>
      <point x="391.4747474747475" y="796.1515151515151" type="line"/>
      <point x="443.8585858585859" y="862.8131313131313"/>
      <point x="524.030303030303" y="892.1969696969696"/>
      <point x="601.2020202020202" y="892.1969696969696" type="curve" smooth="yes"/>
      <point x="747.4040404040404" y="892.1969696969696"/>
      <point x="851.5505050505051" y="815.8383838383838"/>
      <point x="851.5505050505051" y="544.9747474747475" type="curve" smooth="yes"/>
      <point x="851.5505050505051" y="285.1666666666667"/>
      <point x="745.9444444444445" y="182.02020202020205"/>
    </contour>
  </outline>
</glyph>
<glyph name="q" format="2">
  <advance width="1193.1313131313132"/>
  <unicode hex="0071"/>
  <outline>
    <contour>
      <point x="801.6565656565656" y="-440.0" type="line"/>
      <point x="1062.580808080808" y="-440.0" type="line"/>
      <point x="1062.580808080808" y="1051.29797979798" type="line"/>
      <point x="951.0202020202021" y="1087.5656565656566"/>
      <point x="803.1666666666667" y="1107.888888888889"/>
      <point x="672.6616161616162" y="1107.888888888889" type="curve" smooth="yes"/>
      <point x="276.57070707070704" y="1107.888888888889"/>
      <point x="78.27777777777777" y="909.5959595959596"/>
      <point x="78.27777777777777" y="521.2424242424242" type="curve" smooth="yes"/>
      <point x="78.27777777777777" y="135.99494949494948"/>
      <point x="270.92424242424244" y="-19.62121212121212"/>
      <point x="499.1666666666667" y="-19.62121212121212" type="curve" smooth="yes"/>
      <point x="625.439393939394" y="-19.62121212121212"/>
      <point x="724.3333333333334" y="29.27272727272727"/>
      <point x="788.6313131313132" y="105.97474747474747" type="curve"/>
      <point x="801.6565656565656" y="105.97474747474747" type="line"/>
    </contour>
    <contour>
      <point x="593.4141414141415" y="196.61111111111114" type="curve" smooth="yes"/>
      <point x="445.1868686868687" y="196.61111111111114"/>
      <point x="341.5808080808081" y="272.969696969697"/>
      <point x="341.5808080808081" y="542.7525252525253" type="curve" smooth="yes"/>
      <point x="341.5808080808081" y="803.6414141414141"/>
      <point x="450.42929292929296" y="906.7878787878788"/>
      <point x="650.2878787878788" y="906.7878787878788" type="curve" smooth="yes"/>
      <point x="707.3484848484849" y="906.7878787878788"/>
      <point x="761.8686868686868" y="899.1111111111111"/>
      <point x="801.6565656565656" y="889.5151515151515" type="curve"/>
      <point x="801.6565656565656" y="284.11616161616166" type="line"/>
      <point x="748.7323232323232" y="224.3737373737374"/>
      <point x="669.3434343434344" y="196.61111111111114"/>
    </contour>
  </outline>
</glyph>
<glyph name="t" format="2">
  <advance width="808.5656565656566"/>
  <unicode hex="0074"/>
  <anchor x="491.5050505050505" y="0.0" name="bottom"/>
  <anchor x="611.1060606060606" y="1616.0" name="caronalt"/>
  <anchor x="202.14141414141415" y="604.3383838383838" name="stroke"/>
  <anchor x="332.8737373737374" y="1501.6161616161617" name="top"/>
  <anchor x="740.060606060606" y="1616.0" name="topright"/>
  <outline>
    <contour>
      <point x="591.1767676767677" y="-19.62121212121212" type="curve" smooth="yes"/>
      <point x="655.3080808080808" y="-19.62121212121212"/>
      <point x="724.0858585858587" y="-10.838383838383837"/>
      <point x="780.409090909091" y="2.242424242424243" type="curve"/>
      <point x="780.409090909091" y="211.82828282828285" type="line"/>
      <point x="732.4343434343434" y="202.61111111111114"/>
      <point x="695.9191919191919" y="197.69191919191923"/>
      <point x="658.9444444444445" y="197.69191919191923" type="curve" smooth="yes"/>
      <point x="524.0454545454546" y="197.69191919191923"/>
      <point x="463.0656565656566" y="251.77777777777783"/>
      <point x="463.0656565656566" y="413.32828282828285" type="curve" smooth="yes"/>
      <point x="463.0656565656566" y="1480.0" type="line"/>
      <point x="248.510101010101" y="1480.0" type="line"/>
      <point x="202.14141414141415" y="1090.8080808080808" type="line"/>
      <point x="202.14141414141415" y="372.14646464646466" type="line" smooth="yes"/>
      <point x="202.14141414141415" y="99.53535353535355"/>
      <point x="342.2979797979798" y="-19.62121212121212"/>
    </contour>
    <contour>
      <point x="14.565656565656568" y="883.060606060606" type="line"/>
      <point x="770.2979797979799" y="883.060606060606" type="line"/>
      <point x="770.2979797979799" y="1090.8080808080808" type="line"/>
      <point x="14.565656565656568" y="1090.8080808080808" type="line"/>
    </contour>
  </outline>
</glyph>
<glyph name="v" format="2">
  <advance width="1126.318181818182"/>
  <unicode hex="0076"/>
  <anchor x="563.8484848484849" y="0.0" name="bottom"/>
  <anchor x="563.8484848484849" y="1200.0" name="top"/>
  <outline>
    <contour>
      <point x="398.5808080808081" y="0.0" type="line"/>
      <point x="727.1969696969697" y="0.0" type="line"/>
      <point x="1121.3131313131314" y="1090.8080808080808" type="line"/>
      <point x="862.9545454545455" y="1090.8080808080808" type="line"/>
      <point x="559.7121212121212" y="202.44444444444449" type="line"/>
      <point x="582.0353535353536" y="202.44444444444449" type="line"/>
      <point x="278.79292929292933" y="1090.8080808080808" type="line"/>
      <point x="5.005050505050498" y="1090.8080808080808" type="line"/>
    </contour>
  </outline>
</glyph>
<glyph name="x" format="2">
  <advance width="1083.1262626262628"/>
  <unicode hex="0078"/>
  <anchor x="542.2525252525253" y="0.0" name="bottom"/>
  <anchor x="542.7929292929293" y="1200.0" name="top"/>
  <outline>
    <contour>
      <point x="794.4141414141413" y="0.0" type="line"/>
      <point x="1084.1464646464647" y="0.0" type="line"/>
      <point x="694.5757575757576" y="553.0252525252525" type="line"/>
      <point x="544.9545454545455" y="735.5606060606061" type="line"/>
      <point x="297.63131313131316" y="1090.8080808080808" type="line"/>
      <point x="7.898989898989893" y="1090.8080808080808" type="line"/>
      <point x="387.38888888888886" y="549.4040404040404" type="line"/>
      <point x="539.7121212121212" y="368.4090909090909" type="line"/>
    </contour>
    <contour>
      <point x="0.8989898989898908" y="0.0" type="line"/>
      <point x="283.14646464646466" y="0.0" type="line"/>
      <point x="539.7121212121212" y="368.4090909090909" type="line"/>
      <point x="694.5757575757576" y="553.0252525252525" type="line"/>
      <point x="1072.4444444444443" y="1090.8080808080808" type="line"/>
      <point x="791.1161616161617" y="1090.8080808080808" type="line"/>
      <point x="544.9545454545455" y="735.5606060606061" type="line"/>
      <point x="387.38888888888886" y="549.4040404040404" type="line"/>
    </contour>
  </outline>
</glyph>
<glyph name="z" format="2">
  <advance width="978.4848484848485"/>
  <unicode hex="007A"/>
  <anchor x="496.0656565656566" y="0.0" name="bottom"/>
  <anchor x="496.0656565656566" y="1200.0" name="top"/>
  <outline>
    <contour>
      <point x="64.24242424242425" y="0.0" type="line"/>
      <point x="926.8888888888889" y="0.0" type="line"/>
      <point x="926.8888888888889" y="207.74747474747477" type="line"/>
      <point x="349.8383838383839" y="207.74747474747477" type="line"/>
      <point x="349.8383838383839" y="157.34848484848487" type="line"/>
      <point x="915.969696969697" y="926.5151515151515" type="line"/>
      <point x="915.969696969697" y="1090.8080808080808" type="line"/>
      <point x="75.16161616161617" y="1090.8080808080808" type="line"/>
      <point x="75.16161616161617" y="883.060606060606" type="line"/>
      <point x="630.3737373737374" y="883.060606060606" type="line"/>
      <point x="630.3737373737374" y="933.459595959596" type="line"/>
      <point x="64.24242424242425" y="164.29292929292933" type="line"/>
    </contour>
  </outline>
</glyph>
<glyph name="braceleft" format="2">
  <advance width="735.1717171717172"/>
  <unicode hex="007B"/>
  <outline>
    <contour>
      <point x="605.9949494949495" y="-460.0" type="curve" smooth="yes"/>
      <point x="667.8282828282828" y="-460.0"/>
      <point x="723.0151515151515" y="-454.9191919191919"/>
      <point x="767.6060606060606" y="-447.83838383838383" type="curve"/>
      <point x="767.6060606060606" y="-248.09090909090904" type="line"/>
      <point x="646.3080808080808" y="-248.09090909090904" type="line" smooth="yes"/>
      <point x="527.1313131313132" y="-248.09090909090904"/>
      <point x="467.1515151515152" y="-199.57070707070704"/>
      <point x="467.1515151515152" y="-81.0151515151515" type="curve" smooth="yes"/>
      <point x="467.1515151515152" y="371.3030303030303" type="line" smooth="yes"/>
      <point x="467.1515151515152" y="539.7272727272727"/>
      <point x="387.64646464646466" y="631.1818181818182"/>
      <point x="188.05050505050505" y="643.1313131313132" type="curve"/>
      <point x="188.05050505050505" y="611.6767676767677" type="line"/>
      <point x="387.64646464646466" y="623.6262626262626"/>
      <point x="467.1515151515152" y="715.0808080808081"/>
      <point x="467.1515151515152" y="883.5050505050505" type="curve" smooth="yes"/>
      <point x="467.1515151515152" y="1257.0151515151515" type="line" smooth="yes"/>
      <point x="467.1515151515152" y="1375.5707070707072"/>
      <point x="527.1313131313132" y="1424.090909090909"/>
      <point x="646.3080808080808" y="1424.090909090909" type="curve" smooth="yes"/>
      <point x="767.6060606060606" y="1424.090909090909" type="line"/>
      <point x="767.6060606060606" y="1623.8383838383838" type="line"/>
      <point x="723.0151515151515" y="1630.919191919192"/>
      <point x="667.8282828282828" y="1636.0"/>
      <point x="605.9949494949495" y="1636.0" type="curve" smooth="yes"/>
      <point x="341.3030303030303" y="1636.0"/>
      <point x="206.22727272727272" y="1507.9242424242425"/>
      <point x="206.22727272727272" y="1262.4444444444443" type="curve" smooth="yes"/>
      <point x="206.22727272727272" y="875.6666666666666" type="line" smooth="yes"/>
      <point x="206.22727272727272" y="779.8737373737374"/>
      <point x="153.95454545454544" y="731.2777777777778"/>
      <point x="62.75757575757576" y="731.2777777777778" type="curve" smooth="yes"/>
      <point x="19.116161616161605" y="731.2777777777778" type="line"/>
      <point x="19.116161616161605" y="523.530303030303" type="line"/>
      <point x="62.75757575757576" y="523.530303030303" type="line" smooth="yes"/>
      <point x="153.95454545454544" y="523.530303030303"/>
      <point x="206.22727272727272" y="474.9343434343434"/>
      <point x="206.22727272727272" y="379.14141414141415" type="curve" smooth="yes"/>
      <point x="206.22727272727272" y="-86.44444444444443" type="line" smooth="yes"/>
      <point x="206.22727272727272" y="-331.92424242424244"/>
      <point x="341.3030303030303" y="-460.0"/>
    </contour>
  </outline>
</glyph>
<glyph name="bar" format="2">
  <advance width="529.0606060606061"/>
  <unicode hex="007C"/>
  <outline>
    <contour>
      <point x="146.22727272727272" y="-440.0" type="line"/>
      <point x="382.83333333333337" y="-440.0" type="line"/>
      <point x="382.83333333333337" y="1616.0" type="line"/>
      <point x="146.22727272727272" y="1616.0" type="line"/>
    </contour>
  </outline>
</glyph>
<glyph name="braceright" format="2">
  <advance width="735.1717171717172"/>
  <unicode hex="007D"/>
  <outline>
    <contour>
      <point x="129.1767676767677" y="-460.0" type="curve" smooth="yes"/>
      <point x="393.8686868686869" y="-460.0"/>
      <point x="528.9444444444445" y="-331.92424242424244"/>
      <point x="528.9444444444445" y="-86.44444444444443" type="curve" smooth="yes"/>
      <point x="528.9444444444445" y="379.14141414141415" type="line" smooth="yes"/>
      <point x="528.9444444444445" y="474.9343434343434"/>
      <point x="581.2171717171718" y="523.530303030303"/>
      <point x="672.4141414141415" y="523.530303030303" type="curve" smooth="yes"/>
      <point x="716.0555555555557" y="523.530303030303" type="line"/>
      <point x="716.0555555555557" y="731.2777777777778" type="line"/>
      <point x="672.4141414141415" y="731.2777777777778" type="line" smooth="yes"/>
      <point x="581.2171717171718" y="731.2777777777778"/>
      <point x="528.9444444444445" y="779.8737373737374"/>
      <point x="528.9444444444445" y="875.6666666666666" type="curve" smooth="yes"/>
      <point x="528.9444444444445" y="1262.4444444444443" type="line" smooth="yes"/>
      <point x="528.9444444444445" y="1507.9242424242425"/>
      <point x="393.8686868686869" y="1636.0"/>
      <point x="129.1767676767677" y="1636.0" type="curve" smooth="yes"/>
      <point x="67.34343434343435" y="1636.0"/>
      <point x="12.156565656565661" y="1630.919191919192"/>
      <point x="-32.43434343434343" y="1623.8383838383838" type="curve"/>
      <point x="-32.43434343434343" y="1424.090909090909" type="line"/>
      <point x="88.86363636363636" y="1424.090909090909" type="line" smooth="yes"/>
      <point x="208.040404040404" y="1424.090909090909"/>
      <point x="268.020202020202" y="1375.5707070707072"/>
      <point x="268.020202020202" y="1257.0151515151515" type="curve" smooth="yes"/>
      <point x="268.020202020202" y="883.5050505050505" type="line" smooth="yes"/>
      <point x="268.020202020202" y="715.0808080808081"/>
      <point x="349.1464646464646" y="623.6262626262626"/>
      <point x="547.1212121212121" y="611.6767676767677" type="curve"/>
      <point x="547.1212121212121" y="643.1313131313132" type="line"/>
      <point x="349.1464646464646" y="631.1818181818182"/>
      <point x="268.020202020202" y="539.7272727272727"/>
      <point x="268.020202020202" y="371.3030303030303" type="curve" smooth="yes"/>
      <point x="268.020202020202" y="-81.0151515151515" type="line" smooth="yes"/>
      <point x="268.020202020202" y="-199.57070707070704"/>
      <point x="208.040404040404" y="-248.09090909090904"/>
      <point x="88.86363636363636" y="-248.09090909090904" type="curve" smooth="yes"/>
      <point x="-32.43434343434343" y="-248.09090909090904" type="line"/>
      <point x="-32.43434343434343" y="-447.83838383838383" type="line"/>
      <point x="12.156565656565661" y="-454.9191919191919"/>
      <point x="67.34343434343435" y="-460.0"/>
    </contour>
  </outline>
</glyph>
<glyph name="asciitilde" format="2">
  <advance width="1091.1818181818182"/>
  <unicode hex="007E"/>
  <outline>
    <contour>
      <point x="735.9646464646464" y="599.1515151515151" type="curve" smooth="yes"/>
      <point x="831.7979797979798" y="599.1515151515151"/>
      <point x="905.040404040404" y="630.070707070707"/>
      <point x="962.5505050505051" y="695.6363636363636" type="curve"/>
      <point x="962.5505050505051" y="907.3333333333334" type="line"/>
      <point x="893.4191919191919" y="832.0909090909091"/>
      <point x="824.5555555555555" y="798.2525252525253"/>
      <point x="737.2070707070707" y="798.2525252525253" type="curve" smooth="yes"/>
      <point x="618.0757575757576" y="798.2525252525253"/>
      <point x="504.51010101010104" y="915.3333333333334"/>
      <point x="355.2171717171717" y="915.3333333333334" type="curve" smooth="yes"/>
      <point x="259.3838383838384" y="915.3333333333334"/>
      <point x="186.14141414141415" y="884.4141414141415"/>
      <point x="128.6313131313131" y="818.8484848484849" type="curve"/>
      <point x="128.6313131313131" y="607.1515151515151" type="line"/>
      <point x="197.76262626262627" y="682.3939393939394"/>
      <point x="266.62626262626264" y="716.2323232323232"/>
      <point x="353.97474747474746" y="716.2323232323232" type="curve" smooth="yes"/>
      <point x="473.1060606060606" y="716.2323232323232"/>
      <point x="586.6717171717172" y="599.1515151515151"/>
    </contour>
  </outline>
</glyph>
<glyph name="exclamdown" format="2">
  <advance width="561.6464646464647"/>
  <unicode hex="00A1"/>
  <outline>
    <contour>
      <point x="201.7020202020202" y="644.030303030303" type="line"/>
      <point x="142.14646464646464" y="136.5" type="line"/>
      <point x="142.14646464646464" y="-380.0" type="line"/>
      <point x="419.50000000000006" y="-380.0" type="line"/>
      <point x="419.50000000000006" y="136.5" type="line"/>
      <point x="362.64646464646466" y="644.030303030303" type="line"/>
    </contour>
    <contour>
      <point x="280.82323232323233" y="1106.2121212121212" type="curve" smooth="yes"/>
      <point x="176.1919191919192" y="1106.2121212121212"/>
      <point x="107.49999999999999" y="1043.8434343434344"/>
      <point x="107.49999999999999" y="943.1565656565656" type="curve" smooth="yes"/>
      <point x="107.49999999999999" y="842.4696969696969"/>
      <point x="174.03030303030303" y="779.1818181818181"/>
      <point x="280.82323232323233" y="779.1818181818181" type="curve" smooth="yes"/>
      <point x="387.61616161616166" y="779.1818181818181"/>
      <point x="454.14646464646466" y="844.631313131313"/>
      <point x="454.14646464646466" y="943.1565656565656" type="curve" smooth="yes"/>
      <point x="454.14646464646466" y="1041.6818181818182"/>
      <point x="385.4545454545455" y="1106.2121212121212"/>
    </contour>
  </outline>
</glyph>
<glyph name="cent" format="2">
  <advance width="935.2979797979798"/>
  <unicode hex="00A2"/>
  <outline>
    <contour>
      <point x="614.1969696969697" y="-20.161616161616163" type="curve" smooth="yes"/>
      <point x="709.6262626262626" y="-20.161616161616163"/>
      <point x="804.3535353535353" y="-5.161616161616163"/>
      <point x="886.4898989898991" y="22.515151515151512" type="curve"/>
      <point x="886.4898989898991" y="232.10101010101016" type="line"/>
      <point x="792.8131313131314" y="204.66666666666669"/>
      <point x="723.0808080808081" y="192.82828282828285"/>
      <point x="654.1616161616162" y="192.82828282828285" type="curve" smooth="yes"/>
      <point x="452.3686868686869" y="192.82828282828285"/>
      <point x="347.52525252525254" y="288.8636363636364"/>
      <point x="347.52525252525254" y="547.2424242424242" type="curve" smooth="yes"/>
      <point x="347.52525252525254" y="798.0"/>
      <point x="451.96464646464653" y="894.8989898989898"/>
      <point x="682.5959595959596" y="894.8989898989898" type="curve" smooth="yes"/>
      <point x="750.0555555555555" y="894.8989898989898"/>
      <point x="815.1919191919192" y="887.060606060606"/>
      <point x="886.4898989898991" y="872.0050505050505" type="curve"/>
      <point x="886.4898989898991" y="1081.590909090909" type="line"/>
      <point x="812.1666666666667" y="1099.4292929292928"/>
      <point x="734.6010101010102" y="1107.888888888889"/>
      <point x="650.469696969697" y="1107.888888888889" type="curve" smooth="yes"/>
      <point x="284.2676767676768" y="1107.888888888889"/>
      <point x="78.27777777777777" y="933.1363636363636"/>
      <point x="78.27777777777777" y="543.7828282828283" type="curve" smooth="yes"/>
      <point x="78.27777777777777" y="157.75252525252526"/>
      <point x="268.94444444444446" y="-20.161616161616163"/>
    </contour>
    <contour>
      <point x="478.43939393939394" y="-240.0" type="line"/>
      <point x="702.39898989899" y="-240.0" type="line"/>
      <point x="702.39898989899" y="32.424242424242436" type="line"/>
      <point x="478.43939393939394" y="32.424242424242436" type="line"/>
    </contour>
    <contour>
      <point x="478.43939393939394" y="1058.3838383838383" type="line"/>
      <point x="702.39898989899" y="1058.3838383838383" type="line"/>
      <point x="702.39898989899" y="1330.8080808080808" type="line"/>
      <point x="478.43939393939394" y="1330.8080808080808" type="line"/>
    </contour>
  </outline>
</glyph>
<glyph name="sterling" format="2">
  <advance width="1315.489898989899"/>
  <unicode hex="00A3"/>
  <outline>
    <contour>
      <point x="279.4141414141414" y="81.71717171717174" type="line"/>
      <point x="537.6363636363637" y="81.71717171717174" type="line"/>
      <point x="537.6363636363637" y="1027.090909090909" type="line" smooth="yes"/>
      <point x="537.6363636363637" y="1210.4898989898988"/>
      <point x="638.3232323232323" y="1282.3080808080808"/>
      <point x="889.6515151515151" y="1282.3080808080808" type="curve" smooth="yes"/>
      <point x="993.6515151515151" y="1282.3080808080808"/>
      <point x="1110.8636363636365" y="1267.2272727272727"/>
      <point x="1207.7575757575758" y="1239.090909090909" type="curve"/>
      <point x="1207.7575757575758" y="1457.8636363636363" type="line"/>
      <point x="1114.5959595959596" y="1483.540404040404"/>
      <point x="994.030303030303" y="1499.080808080808"/>
      <point x="874.2777777777778" y="1499.080808080808" type="curve" smooth="yes"/>
      <point x="477.5151515151515" y="1499.080808080808"/>
      <point x="279.4141414141414" y="1335.520202020202"/>
      <point x="279.4141414141414" y="1017.3636363636364" type="curve" smooth="yes"/>
    </contour>
    <contour>
      <point x="74.5959595959596" y="0.0" type="line"/>
      <point x="1250.6212121212122" y="0.0" type="line"/>
      <point x="1250.6212121212122" y="214.2323232323233" type="line"/>
      <point x="74.5959595959596" y="214.2323232323233" type="line"/>
    </contour>
    <contour>
      <point x="74.5959595959596" y="651.530303030303" type="line"/>
      <point x="1021.5454545454545" y="651.530303030303" type="line"/>
      <point x="1021.5454545454545" y="848.469696969697" type="line"/>
      <point x="74.5959595959596" y="848.469696969697" type="line"/>
    </contour>
  </outline>
</glyph>
<glyph name="currency" format="2">
  <advance width="1218.888888888889"/>
  <unicode hex="00A4"/>
  <outline>
    <contour>
      <point x="385.44444444444446" y="864.3434343434343" type="line"/>
      <point x="485.10101010101016" y="963.0808080808081" type="line"/>
      <point x="333.49494949494954" y="1144.848484848485" type="line"/>
      <point x="225.60606060606062" y="1255.6565656565656" type="line"/>
      <point x="92.86868686868686" y="1122.919191919192" type="line"/>
      <point x="204.59595959595958" y="1015.030303030303" type="line"/>
    </contour>
    <contour>
      <point x="833.4444444444445" y="864.3434343434343" type="line"/>
      <point x="1014.2929292929293" y="1015.030303030303" type="line"/>
      <point x="1126.020202020202" y="1122.919191919192" type="line"/>
      <point x="993.2828282828283" y="1255.6565656565656" type="line"/>
      <point x="885.3939393939394" y="1144.848484848485" type="line"/>
      <point x="733.7878787878788" y="963.0808080808081" type="line"/>
    </contour>
    <contour>
      <point x="992.3636363636364" y="224.34343434343432" type="line"/>
      <point x="1125.1010101010102" y="357.0808080808081" type="line"/>
      <point x="1014.2929292929293" y="464.969696969697" type="line"/>
      <point x="838.040404040404" y="611.0606060606061" type="line"/>
      <point x="738.3838383838383" y="510.4848484848485" type="line"/>
      <point x="884.4747474747475" y="335.1515151515151" type="line"/>
    </contour>
    <contour>
      <point x="226.52525252525254" y="224.34343434343432" type="line"/>
      <point x="334.41414141414145" y="335.1515151515151" type="line"/>
      <point x="480.5050505050506" y="510.4848484848485" type="line"/>
      <point x="380.8484848484849" y="611.0606060606061" type="line"/>
      <point x="204.59595959595958" y="464.969696969697" type="line"/>
      <point x="93.78787878787878" y="357.0808080808081" type="line"/>
    </contour>
    <contour>
      <point x="609.4444444444445" y="381.27777777777777" type="curve" smooth="yes"/>
      <point x="813.8181818181819" y="381.27777777777777"/>
      <point x="963.1363636363637" y="524.7070707070707"/>
      <point x="963.1363636363637" y="740.0" type="curve" smooth="yes"/>
      <point x="963.1363636363637" y="953.2929292929293"/>
      <point x="813.8181818181819" y="1096.7222222222222"/>
      <point x="609.4444444444445" y="1096.7222222222222" type="curve" smooth="yes"/>
      <point x="404.1515151515152" y="1096.7222222222222"/>
      <point x="255.75252525252526" y="953.2929292929293"/>
      <point x="255.75252525252526" y="740.0" type="curve" smooth="yes"/>
      <point x="255.75252525252526" y="524.7070707070707"/>
      <point x="404.1515151515152" y="381.27777777777777"/>
    </contour>
    <contour>
      <point x="609.4444444444445" y="530.8232323232323" type="curve" smooth="yes"/>
      <point x="496.03030303030306" y="530.8232323232323"/>
      <point x="415.02525252525254" y="608.7474747474747"/>
      <point x="415.02525252525254" y="740.0" type="curve" smooth="yes"/>
      <point x="415.02525252525254" y="871.2525252525253"/>
      <point x="496.03030303030306" y="949.1767676767677"/>
      <point x="611.4444444444445" y="949.1767676767677" type="curve" smooth="yes"/>
      <point x="731.4545454545455" y="949.1767676767677"/>
      <point x="803.8636363636364" y="861.4141414141415"/>
      <point x="803.8636363636364" y="740.0" type="curve" smooth="yes"/>
      <point x="803.8636363636364" y="607.8282828282828"/>
      <point x="722.8585858585859" y="530.8232323232323"/>
    </contour>
  </outline>
</glyph>
<glyph name="yen" format="2">
  <advance width="1268.2979797979797"/>
  <unicode hex="00A5"/>
  <outline>
    <contour>
      <point x="502.60606060606057" y="0.0" type="line"/>
      <point x="768.3939393939395" y="0.0" type="line"/>
      <point x="768.3939393939395" y="742.6666666666666" type="line"/>
      <point x="713.6464646464647" y="549.8636363636364" type="line"/>
      <point x="1292.4242424242425" y="1480.0" type="line"/>
      <point x="1027.6060606060605" y="1480.0" type="line"/>
      <point x="602.2070707070707" y="801.6010101010102" type="line"/>
      <point x="680.5202020202021" y="801.6010101010102" type="line"/>
      <point x="253.41919191919195" y="1480.0" type="line"/>
      <point x="-31.151515151515163" y="1480.0" type="line"/>
      <point x="557.3535353535353" y="549.8636363636364" type="line"/>
      <point x="502.60606060606057" y="745.9090909090909" type="line"/>
    </contour>
    <contour>
      <point x="188.010101010101" y="275.14646464646466" type="line"/>
      <point x="1082.989898989899" y="275.14646464646466" type="line"/>
      <point x="1082.989898989899" y="435.33838383838383" type="line"/>
      <point x="188.010101010101" y="435.33838383838383" type="line"/>
    </contour>
    <contour>
      <point x="188.010101010101" y="612.6616161616162" type="line"/>
      <point x="1082.989898989899" y="612.6616161616162" type="line"/>
      <point x="1082.989898989899" y="772.8535353535353" type="line"/>
      <point x="188.010101010101" y="772.8535353535353" type="line"/>
    </contour>
  </outline>
</glyph>
<glyph name="brokenbar" format="2">
  <advance width="529.0606060606061"/>
  <unicode hex="00A6"/>
  <outline>
    <contour>
      <point x="146.22727272727272" y="836.0" type="line"/>
      <point x="382.83333333333337" y="836.0" type="line"/>
      <point x="382.83333333333337" y="1616.0" type="line"/>
      <point x="146.22727272727272" y="1616.0" type="line"/>
    </contour>
    <contour>
      <point x="146.22727272727272" y="-440.0" type="line"/>
      <point x="382.83333333333337" y="-440.0" type="line"/>
      <point x="382.83333333333337" y="340.0" type="line"/>
      <point x="146.22727272727272" y="340.0" type="line"/>
    </contour>
  </outline>
</glyph>
<glyph name="section" format="2">
  <advance width="1074.5656565656566"/>
  <unicode hex="00A7"/>
  <outline>
    <contour>
      <point x="459.2878787878788" y="-20.161616161616163" type="curve" smooth="yes"/>
      <point x="772.5707070707072" y="-20.161616161616163"/>
      <point x="932.9949494949495" y="108.96969696969697"/>
      <point x="932.9949494949495" y="315.12626262626264" type="curve" smooth="yes"/>
      <point x="932.9949494949495" y="471.3939393939394"/>
      <point x="840.8383838383838" y="557.6111111111111"/>
      <point x="652.429292929293" y="597.6666666666666" type="curve" smooth="yes"/>
      <point x="456.95959595959596" y="636.4747474747475" type="line" smooth="yes"/>
      <point x="353.81313131313135" y="658.6666666666666"/>
      <point x="318.2676767676768" y="707.2676767676768"/>
      <point x="318.2676767676768" y="778.4393939393939" type="curve" smooth="yes"/>
      <point x="318.2676767676768" y="831.3636363636364"/>
      <point x="342.0" y="876.989898989899"/>
      <point x="395.24747474747477" y="921.7727272727273" type="curve"/>
      <point x="255.08080808080808" y="1017.1919191919192" type="line"/>
      <point x="159.7070707070707" y="959.3282828282828"/>
      <point x="101.57575757575756" y="875.0050505050505"/>
      <point x="101.57575757575756" y="764.6313131313132" type="curve" smooth="yes"/>
      <point x="101.57575757575756" y="595.7727272727273"/>
      <point x="197.97474747474746" y="501.3131313131313"/>
      <point x="375.22222222222223" y="463.7979797979798" type="curve" smooth="yes"/>
      <point x="570.1515151515151" y="424.98989898989896" type="line" smooth="yes"/>
      <point x="658.7070707070707" y="406.04040404040404"/>
      <point x="694.469696969697" y="371.43939393939394"/>
      <point x="694.469696969697" y="299.93939393939394" type="curve" smooth="yes"/>
      <point x="694.469696969697" y="216.46464646464648"/>
      <point x="633.6767676767677" y="164.72727272727275"/>
      <point x="457.42424242424244" y="164.72727272727275" type="curve" smooth="yes"/>
      <point x="352.7525252525253" y="164.72727272727275"/>
      <point x="249.5151515151515" y="177.34848484848487"/>
      <point x="141.89393939393938" y="207.1868686868687" type="curve"/>
      <point x="141.89393939393938" y="21.37878787878788" type="line"/>
      <point x="241.40404040404042" y="-6.621212121212121"/>
      <point x="354.34343434343435" y="-20.161616161616163"/>
    </contour>
    <contour>
      <point x="811.9747474747475" y="456.7828282828283" type="line"/>
      <point x="910.4545454545455" y="515.2676767676768"/>
      <point x="972.9898989898991" y="600.3737373737374"/>
      <point x="972.9898989898991" y="717.8282828282828" type="curve" smooth="yes"/>
      <point x="972.9898989898991" y="888.6868686868687"/>
      <point x="880.8333333333334" y="979.0656565656566"/>
      <point x="697.2878787878788" y="1016.959595959596" type="curve" smooth="yes"/>
      <point x="496.9545454545455" y="1054.6868686868686" type="line" smooth="yes"/>
      <point x="408.39898989898995" y="1073.6363636363637"/>
      <point x="374.6919191919192" y="1112.671717171717"/>
      <point x="374.6919191919192" y="1175.7373737373737" type="curve" smooth="yes"/>
      <point x="374.6919191919192" y="1249.2373737373737"/>
      <point x="434.0505050505051" y="1312.1919191919192"/>
      <point x="645.7828282828283" y="1312.1919191919192" type="curve" smooth="yes"/>
      <point x="730.0252525252525" y="1312.1919191919192"/>
      <point x="806.9141414141415" y="1304.1919191919192"/>
      <point x="893.7525252525253" y="1283.4343434343434" type="curve"/>
      <point x="893.7525252525253" y="1469.2424242424242" type="line"/>
      <point x="813.969696969697" y="1487.080808080808"/>
      <point x="721.5959595959596" y="1497.080808080808"/>
      <point x="627.9494949494949" y="1497.080808080808" type="curve" smooth="yes"/>
      <point x="284.64646464646466" y="1497.080808080808"/>
      <point x="136.16666666666666" y="1360.2727272727273"/>
      <point x="136.16666666666666" y="1161.9292929292928" type="curve" smooth="yes"/>
      <point x="136.16666666666666" y="1013.0656565656566"/>
      <point x="231.4848484848485" y="921.1464646464647"/>
      <point x="420.0808080808081" y="882.010101010101" type="curve" smooth="yes"/>
      <point x="615.010101010101" y="843.2020202020202" type="line" smooth="yes"/>
      <point x="718.1565656565656" y="821.010101010101"/>
      <point x="756.2979797979798" y="776.8434343434343"/>
      <point x="756.2979797979798" y="699.939393939394" type="curve" smooth="yes"/>
      <point x="756.2979797979798" y="642.7171717171717"/>
      <point x="730.4040404040404" y="600.6313131313132"/>
      <point x="666.0252525252525" y="555.0656565656566" type="curve"/>
    </contour>
  </outline>
</glyph>
<glyph name="copyright" format="2">
  <advance width="1677.5252525252524"/>
  <unicode hex="00A9"/>
  <outline>
    <contour>
      <point x="838.7626262626262" y="-22.0" type="curve" smooth="yes"/>
      <point x="1288.0050505050506" y="-22.0"/>
      <point x="1586.0050505050506" y="282.0"/>
      <point x="1586.0050505050506" y="740.0" type="curve" smooth="yes"/>
      <point x="1586.0050505050506" y="1198.0"/>
      <point x="1288.0050505050506" y="1502.0"/>
      <point x="838.7626262626262" y="1502.0" type="curve" smooth="yes"/>
      <point x="389.520202020202" y="1502.0"/>
      <point x="91.520202020202" y="1198.0"/>
      <point x="91.520202020202" y="740.0" type="curve" smooth="yes"/>
      <point x="91.520202020202" y="282.0"/>
      <point x="389.520202020202" y="-22.0"/>
    </contour>
    <contour>
      <point x="892.2171717171717" y="324.0" type="curve" smooth="yes"/>
      <point x="972.3787878787879" y="324.0"/>
      <point x="1044.378787878788" y="336.0"/>
      <point x="1102.6515151515152" y="359.5151515151515" type="curve"/>
      <point x="1102.6515151515152" y="524.9494949494949" type="line"/>
      <point x="1022.8131313131313" y="500.51515151515156"/>
      <point x="967.0252525252525" y="492.6767676767677"/>
      <point x="910.1060606060606" y="492.6767676767677" type="curve" smooth="yes"/>
      <point x="759.5" y="492.6767676767677"/>
      <point x="669.9242424242425" y="572.4141414141415"/>
      <point x="669.9242424242425" y="734.7575757575758" type="curve" smooth="yes"/>
      <point x="669.9242424242425" y="895.4242424242424"/>
      <point x="756.2575757575758" y="975.3232323232323"/>
      <point x="926.7020202020202" y="975.3232323232323" type="curve" smooth="yes"/>
      <point x="989.1363636363636" y="975.3232323232323"/>
      <point x="1041.7323232323233" y="967.4848484848485"/>
      <point x="1102.6515151515152" y="953.8080808080808" type="curve"/>
      <point x="1102.6515151515152" y="1119.2424242424242" type="line"/>
      <point x="1042.9747474747476" y="1136.0"/>
      <point x="981.8939393939394" y="1144.0"/>
      <point x="910.6515151515151" y="1144.0" type="curve" smooth="yes"/>
      <point x="638.0050505050505" y="1144.0"/>
      <point x="474.7121212121212" y="993.8383838383838"/>
      <point x="474.7121212121212" y="732.9191919191919" type="curve" smooth="yes"/>
      <point x="474.7121212121212" y="468.4848484848485"/>
      <point x="639.520202020202" y="324.0"/>
    </contour>
    <contour>
      <point x="838.7626262626262" y="123.81818181818184" type="curve" smooth="yes"/>
      <point x="469.51010101010104" y="123.81818181818184"/>
      <point x="242.74242424242425" y="364.1515151515152"/>
      <point x="242.74242424242425" y="740.0" type="curve" smooth="yes"/>
      <point x="242.74242424242425" y="1115.8484848484848"/>
      <point x="469.51010101010104" y="1356.1818181818182"/>
      <point x="838.7626262626262" y="1356.1818181818182" type="curve" smooth="yes"/>
      <point x="1208.0151515151515" y="1356.1818181818182"/>
      <point x="1434.7828282828282" y="1115.8484848484848"/>
      <point x="1434.7828282828282" y="740.0" type="curve" smooth="yes"/>
      <point x="1434.7828282828282" y="364.1515151515152"/>
      <point x="1208.0151515151515" y="123.81818181818184"/>
    </contour>
  </outline>
</glyph>
<glyph name="ordfeminine" format="2">
  <advance width="911.2222222222223"/>
  <unicode hex="00AA"/>
  <outline>
    <contour>
      <point x="339.57070707070704" y="593.8383838383838" type="curve" smooth="yes"/>
      <point x="439.76262626262627" y="593.8383838383838"/>
      <point x="532.4949494949494" y="628.6515151515151"/>
      <point x="587.8484848484849" y="700.6515151515151" type="curve"/>
      <point x="599.7929292929293" y="700.6515151515151" type="line"/>
      <point x="617.6818181818181" y="610.0" type="line"/>
      <point x="819.0505050505051" y="610.0" type="line"/>
      <point x="819.0505050505051" y="1135.989898989899" type="line" smooth="yes"/>
      <point x="819.0505050505051" y="1405.7878787878788"/>
      <point x="689.7575757575758" y="1497.4040404040404"/>
      <point x="408.93939393939394" y="1497.4040404040404" type="curve" smooth="yes"/>
      <point x="316.5909090909091" y="1497.4040404040404"/>
      <point x="207.91919191919192" y="1484.4848484848485"/>
      <point x="118.62626262626262" y="1458.5656565656566" type="curve"/>
      <point x="118.62626262626262" y="1278.3787878787878" type="line"/>
      <point x="200.6818181818182" y="1302.9747474747473"/>
      <point x="290.4646464646465" y="1315.4343434343434"/>
      <point x="364.86868686868684" y="1315.4343434343434" type="curve" smooth="yes"/>
      <point x="522.4646464646464" y="1315.4343434343434"/>
      <point x="578.3383838383838" y="1276.080808080808"/>
      <point x="578.3383838383838" y="1165.010101010101" type="curve" smooth="yes"/>
      <point x="578.3383838383838" y="822.4242424242424" type="line"/>
      <point x="534.2222222222222" y="777.5202020202021"/>
      <point x="475.9949494949495" y="759.0555555555555"/>
      <point x="423.8484848484849" y="759.0555555555555" type="curve" smooth="yes"/>
      <point x="334.4040404040404" y="759.0555555555555"/>
      <point x="288.5606060606061" y="798.89898989899"/>
      <point x="288.5606060606061" y="872.989898989899" type="curve" smooth="yes"/>
      <point x="288.5606060606061" y="942.7020202020202"/>
      <point x="333.24242424242425" y="981.1666666666666"/>
      <point x="442.7979797979798" y="990.520202020202" type="curve" smooth="yes"/>
      <point x="649.9242424242424" y="1006.469696969697" type="line"/>
      <point x="622.0656565656566" y="1130.858585858586" type="line"/>
      <point x="409.3737373737374" y="1113.828282828283" type="line" smooth="yes"/>
      <point x="154.84343434343432" y="1097.3131313131314"/>
      <point x="49.79292929292929" y="1008.8282828282828"/>
      <point x="49.79292929292929" y="844.2929292929293" type="curve" smooth="yes"/>
      <point x="49.79292929292929" y="695.429292929293"/>
      <point x="153.87373737373736" y="593.8383838383838"/>
    </contour>
  </outline>
</glyph>
<glyph name="guillemetleft" format="2">
  <advance width="1145.257575757576"/>
  <unicode hex="00AB"/>
  <outline>
    <contour>
      <point x="346.17171717171715" y="134.59595959595958" type="line"/>
      <point x="612.5555555555557" y="134.59595959595958" type="line"/>
      <point x="360.87878787878793" y="565.4040404040404" type="line"/>
      <point x="612.5555555555557" y="996.2121212121212" type="line"/>
      <point x="346.17171717171715" y="996.2121212121212" type="line"/>
      <point x="94.49494949494948" y="565.4040404040404" type="line"/>
    </contour>
    <contour>
      <point x="824.3787878787879" y="134.59595959595958" type="line"/>
      <point x="1090.7626262626263" y="134.59595959595958" type="line"/>
      <point x="839.0858585858587" y="565.4040404040404" type="line"/>
      <point x="1090.7626262626263" y="996.2121212121212" type="line"/>
      <point x="824.3787878787879" y="996.2121212121212" type="line"/>
      <point x="572.7020202020202" y="565.4040404040404" type="line"/>
    </contour>
  </outline>
</glyph>
<glyph name="logicalnot" format="2">
  <advance width="1332.919191919192"/>
  <unicode hex="00AC"/>
  <outline>
    <contour>
      <point x="1000.2979797979798" y="196.32323232323233" type="line"/>
      <point x="1212.0454545454545" y="196.32323232323233" type="line"/>
      <point x="1212.0454545454545" y="861.1717171717172" type="line"/>
      <point x="128.6313131313131" y="861.1717171717172" type="line"/>
      <point x="128.6313131313131" y="658.8282828282828" type="line"/>
      <point x="1000.2979797979798" y="658.8282828282828" type="line"/>
    </contour>
  </outline>
</glyph>
<glyph name="softhyphen" format="2">
  <advance width="883.3838383838383"/>
  <unicode hex="00AD"/>
  <outline>
    <contour>
      <point x="128.6313131313131" y="458.28787878787875" type="line"/>
      <point x="754.7525252525253" y="458.28787878787875" type="line"/>
      <point x="754.7525252525253" y="672.5202020202021" type="line"/>
      <point x="128.6313131313131" y="672.5202020202021" type="line"/>
    </contour>
  </outline>
</glyph>
<glyph name="registered" format="2">
  <advance width="1461.1010101010102"/>
  <unicode hex="00AE"/>
  <outline>
    <contour>
      <point x="730.5505050505051" y="268.0" type="curve" smooth="yes"/>
      <point x="1092.550505050505" y="268.0"/>
      <point x="1340.550505050505" y="518.0"/>
      <point x="1340.550505050505" y="882.0" type="curve" smooth="yes"/>
      <point x="1340.550505050505" y="1246.0"/>
      <point x="1092.550505050505" y="1498.0"/>
      <point x="730.5505050505051" y="1498.0" type="curve" smooth="yes"/>
      <point x="368.550505050505" y="1498.0"/>
      <point x="120.55050505050504" y="1246.0"/>
      <point x="120.55050505050504" y="882.0" type="curve" smooth="yes"/>
      <point x="120.55050505050504" y="518.0"/>
      <point x="368.550505050505" y="268.0"/>
    </contour>
    <contour>
      <point x="869.6414141414141" y="600.0" type="line"/>
      <point x="1002.9242424242424" y="600.0" type="line"/>
      <point x="839.8939393939394" y="838.3838383838383" type="line"/>
      <point x="723.6919191919192" y="812.3838383838383" type="line"/>
    </contour>
    <contour>
      <point x="730.5505050505051" y="382.6363636363636" type="curve" smooth="yes"/>
      <point x="434.97474747474746" y="382.6363636363636"/>
      <point x="242.5909090909091" y="579.1818181818182"/>
      <point x="242.5909090909091" y="882.0" type="curve" smooth="yes"/>
      <point x="242.5909090909091" y="1185.8989898989898"/>
      <point x="434.97474747474746" y="1383.3636363636363"/>
      <point x="730.5505050505051" y="1383.3636363636363" type="curve" smooth="yes"/>
      <point x="1026.1262626262626" y="1383.3636363636363"/>
      <point x="1218.510101010101" y="1185.8989898989898"/>
      <point x="1218.510101010101" y="882.0" type="curve" smooth="yes"/>
      <point x="1218.510101010101" y="579.1818181818182"/>
      <point x="1026.1262626262626" y="382.6363636363636"/>
    </contour>
    <contour>
      <point x="514.9848484848485" y="600.0" type="line"/>
      <point x="635.0252525252525" y="600.0" type="line"/>
      <point x="638.2676767676768" y="804.3838383838383" type="line"/>
      <point x="719.7929292929293" y="804.3838383838383" type="line" smooth="yes"/>
      <point x="891.520202020202" y="804.3838383838383"/>
      <point x="974.60101010101" y="869.3030303030303"/>
      <point x="974.60101010101" y="997.1919191919192" type="curve" smooth="yes"/>
      <point x="974.60101010101" y="1125.080808080808"/>
      <point x="889.520202020202" y="1192.0"/>
      <point x="719.7929292929293" y="1192.0" type="curve" smooth="yes"/>
      <point x="514.9848484848485" y="1192.0" type="line"/>
    </contour>
    <contour>
      <point x="638.2676767676768" y="904.2121212121212" type="line"/>
      <point x="638.2676767676768" y="1092.171717171717" type="line"/>
      <point x="739.3585858585858" y="1092.171717171717" type="line" smooth="yes"/>
      <point x="816.7727272727273" y="1092.171717171717"/>
      <point x="856.7222222222222" y="1060.8181818181818"/>
      <point x="856.7222222222222" y="997.1919191919192" type="curve" smooth="yes"/>
      <point x="856.7222222222222" y="933.5656565656566"/>
      <point x="818.7727272727273" y="904.2121212121212"/>
      <point x="739.3585858585858" y="904.2121212121212" type="curve" smooth="yes"/>
    </contour>
  </outline>
</glyph>
<glyph name="macron" format="2">
  <advance width="1108.080808080808"/>
  <unicode hex="00AF"/>
  <anchor x="554.040404040404" y="1200.0" name="_top"/>
  <anchor x="554.040404040404" y="1588.4242424242425" name="top"/>
  <outline>
    <contour>
      <point x="215.37878787878788" y="1340.5" type="line"/>
      <point x="892.7020202020202" y="1340.5" type="line"/>
      <point x="892.7020202020202" y="1501.6363636363637" type="line"/>
      <point x="215.37878787878788" y="1501.6363636363637" type="line"/>
    </contour>
  </outline>
</glyph>
<glyph name="degree" format="2">
  <advance width="974.2727272727273"/>
  <unicode hex="00B0"/>
  <outline>
    <contour>
      <point x="487.1363636363636" y="772.5555555555555" type="curve" smooth="yes"/>
      <point x="699.510101010101" y="772.5555555555555"/>
      <point x="853.7222222222222" y="925.5252525252525"/>
      <point x="853.7222222222222" y="1135.8989898989898" type="curve" smooth="yes"/>
      <point x="853.7222222222222" y="1346.2727272727273"/>
      <point x="699.510101010101" y="1498.1616161616162"/>
      <point x="487.1363636363636" y="1498.1616161616162" type="curve" smooth="yes"/>
      <point x="274.76262626262627" y="1498.1616161616162"/>
      <point x="120.55050505050504" y="1346.2727272727273"/>
      <point x="120.55050505050504" y="1135.8989898989898" type="curve" smooth="yes"/>
      <point x="120.55050505050504" y="925.5252525252525"/>
      <point x="274.76262626262627" y="772.5555555555555"/>
    </contour>
    <contour>
      <point x="487.1363636363636" y="930.0454545454545" type="curve" smooth="yes"/>
      <point x="372.12626262626264" y="930.0454545454545"/>
      <point x="288.0656565656566" y="1009.1868686868687"/>
      <point x="288.0656565656566" y="1135.8989898989898" type="curve" smooth="yes"/>
      <point x="288.0656565656566" y="1263.151515151515"/>
      <point x="373.2070707070707" y="1340.671717171717"/>
      <point x="487.1363636363636" y="1340.671717171717" type="curve" smooth="yes"/>
      <point x="601.0656565656566" y="1340.671717171717"/>
      <point x="686.2070707070707" y="1263.151515151515"/>
      <point x="686.2070707070707" y="1135.8989898989898" type="curve" smooth="yes"/>
      <point x="686.2070707070707" y="1009.1868686868687"/>
      <point x="602.1464646464647" y="930.0454545454545"/>
    </contour>
  </outline>
</glyph>
<glyph name="plusminus" format="2">
  <advance width="1091.1818181818182"/>
  <unicode hex="00B1"/>
  <outline>
    <contour>
      <point x="439.7171717171717" y="360.3131313131313" type="line"/>
      <point x="651.4646464646465" y="360.3131313131313" type="line"/>
      <point x="651.4646464646465" y="670.3232323232323" type="line"/>
      <point x="962.5505050505051" y="670.3232323232323" type="line"/>
      <point x="962.5505050505051" y="872.6666666666667" type="line"/>
      <point x="651.4646464646465" y="872.6666666666667" type="line"/>
      <point x="651.4646464646465" y="1182.6767676767677" type="line"/>
      <point x="439.7171717171717" y="1182.6767676767677" type="line"/>
      <point x="439.7171717171717" y="872.6666666666667" type="line"/>
      <point x="128.6313131313131" y="872.6666666666667" type="line"/>
      <point x="128.6313131313131" y="670.3232323232323" type="line"/>
      <point x="439.7171717171717" y="670.3232323232323" type="line"/>
    </contour>
    <contour>
      <point x="128.6313131313131" y="0.5404040404040406" type="line"/>
      <point x="962.5505050505051" y="0.5404040404040406" type="line"/>
      <point x="962.5505050505051" y="202.88383838383842" type="line"/>
      <point x="128.6313131313131" y="202.88383838383842" type="line"/>
    </contour>
  </outline>
</glyph>
<glyph name="twosuperior" format="2">
  <advance width="830.6010101010102"/>
  <unicode hex="00B2"/>
  <outline>
    <contour>
      <point x="84.27272727272727" y="-136.0" type="line"/>
      <point x="749.9494949494949" y="-136.0" type="line"/>
      <point x="749.9494949494949" y="35.70202020202022" type="line"/>
      <point x="317.87878787878793" y="35.70202020202022" type="line"/>
      <point x="320.8535353535354" y="-17.18181818181816" type="line"/>
      <point x="551.540404040404" y="261.3787878787879" type="line" smooth="yes"/>
      <point x="660.8131313131314" y="392.6818181818182"/>
      <point x="704.1919191919192" y="486.3030303030303"/>
      <point x="704.6515151515152" y="590.439393939394" type="curve" smooth="yes"/>
      <point x="705.1111111111111" y="789.8939393939394"/>
      <point x="572.5757575757576" y="877.0808080808081"/>
      <point x="328.37373737373736" y="877.0808080808081" type="curve" smooth="yes"/>
      <point x="235.42929292929293" y="877.0808080808081"/>
      <point x="138.75757575757575" y="863.540404040404"/>
      <point x="71.73232323232322" y="839.6212121212121" type="curve"/>
      <point x="71.73232323232322" y="670.7828282828283" type="line"/>
      <point x="135.32828282828282" y="694.540404040404"/>
      <point x="218.13636363636363" y="710.2424242424242"/>
      <point x="299.4343434343434" y="710.2424242424242" type="curve" smooth="yes"/>
      <point x="437.84343434343435" y="710.2424242424242"/>
      <point x="495.9848484848485" y="666.2929292929293"/>
      <point x="495.9848484848485" y="570.2272727272727" type="curve" smooth="yes"/>
      <point x="495.9848484848485" y="502.54545454545456"/>
      <point x="460.010101010101" y="433.83838383838383"/>
      <point x="370.76262626262627" y="324.3989898989899" type="curve" smooth="yes"/>
      <point x="84.27272727272727" y="-25.126262626262616" type="line"/>
    </contour>
  </outline>
</glyph>
<glyph name="threesuperior" format="2">
  <advance width="830.6010101010102"/>
  <unicode hex="00B3"/>
  <outline>
    <contour>
      <point x="336.15656565656565" y="-149.08080808080808" type="curve" smooth="yes"/>
      <point x="610.929292929293" y="-149.08080808080808"/>
      <point x="746.979797979798" y="-41.13636363636363"/>
      <point x="746.979797979798" y="140.72727272727272" type="curve" smooth="yes"/>
      <point x="746.979797979798" y="280.16161616161617"/>
      <point x="663.3282828282829" y="365.5151515151515"/>
      <point x="514.1868686868687" y="387.05555555555554" type="curve"/>
      <point x="514.1868686868687" y="375.45959595959596" type="line"/>
      <point x="637.1111111111111" y="402.2171717171717"/>
      <point x="713.5202020202021" y="488.97474747474746"/>
      <point x="713.5202020202021" y="610.7070707070707" type="curve" smooth="yes"/>
      <point x="713.5202020202021" y="780.5959595959596"/>
      <point x="588.3888888888889" y="877.0808080808081"/>
      <point x="342.21212121212125" y="877.0808080808081" type="curve" smooth="yes"/>
      <point x="254.64646464646466" y="877.0808080808081"/>
      <point x="153.35353535353536" y="862.9191919191919"/>
      <point x="87.65151515151516" y="840.540404040404" type="curve"/>
      <point x="87.65151515151516" y="683.0505050505051" type="line"/>
      <point x="157.32828282828282" y="708.8888888888889"/>
      <point x="243.75757575757575" y="722.0505050505051"/>
      <point x="318.67676767676767" y="722.0505050505051" type="curve" smooth="yes"/>
      <point x="451.65656565656565" y="722.0505050505051"/>
      <point x="512.2575757575758" y="676.5858585858585"/>
      <point x="512.2575757575758" y="592.5757575757575" type="curve" smooth="yes"/>
      <point x="512.2575757575758" y="505.45454545454544"/>
      <point x="447.030303030303" y="454.3939393939394"/>
      <point x="302.85353535353534" y="454.3939393939394" type="curve" smooth="yes"/>
      <point x="179.73737373737373" y="454.3939393939394" type="line"/>
      <point x="179.73737373737373" y="296.74242424242425" type="line"/>
      <point x="339.2121212121212" y="296.74242424242425" type="line" smooth="yes"/>
      <point x="487.520202020202" y="296.74242424242425"/>
      <point x="548.4191919191919" y="245.38383838383837"/>
      <point x="548.4191919191919" y="153.9949494949495" type="curve" smooth="yes"/>
      <point x="548.4191919191919" y="57.550505050505066"/>
      <point x="480.22222222222223" y="6.489898989899004"/>
      <point x="326.969696969697" y="6.489898989899004" type="curve" smooth="yes"/>
      <point x="247.8080808080808" y="6.489898989899004"/>
      <point x="152.54040404040404" y="18.949494949494976"/>
      <point x="69.29797979797979" y="43.626262626262644" type="curve"/>
      <point x="69.29797979797979" y="-113.86363636363636" type="line"/>
      <point x="151.94444444444446" y="-137.16161616161617"/>
      <point x="243.96969696969697" y="-149.08080808080808"/>
    </contour>
  </outline>
</glyph>
<glyph name="paragraph" format="2">
  <advance width="1286.1363636363637"/>
  <unicode hex="00B6"/>
  <outline>
    <contour>
      <point x="630.7272727272727" y="0.0" type="line"/>
      <point x="820.3181818181818" y="0.0" type="line"/>
      <point x="820.3181818181818" y="1480.0" type="line"/>
      <point x="736.9949494949495" y="1490.70202020202"/>
      <point x="639.510101010101" y="1497.2424242424242"/>
      <point x="542.429292929293" y="1497.2424242424242" type="curve" smooth="yes"/>
      <point x="228.9242424242424" y="1497.2424242424242"/>
      <point x="79.0050505050505" y="1335.9747474747476"/>
      <point x="79.0050505050505" y="973.4949494949495" type="curve" smooth="yes"/>
      <point x="79.0050505050505" y="630.4747474747475"/>
      <point x="223.24747474747474" y="449.36868686868684"/>
      <point x="522.0656565656566" y="449.36868686868684" type="curve" smooth="yes"/>
      <point x="562.1515151515151" y="449.36868686868684"/>
      <point x="594.020202020202" y="451.28787878787875"/>
      <point x="630.7272727272727" y="454.50505050505046" type="curve"/>
    </contour>
    <contour>
      <point x="950.3181818181818" y="0.0" type="line"/>
      <point x="1139.909090909091" y="0.0" type="line"/>
      <point x="1139.909090909091" y="1480.0" type="line"/>
      <point x="950.3181818181818" y="1480.0" type="line"/>
    </contour>
  </outline>
</glyph>
<glyph name="cedilla" format="2">
  <advance width="1108.080808080808"/>
  <unicode hex="00B8"/>
  <anchor x="554.040404040404" y="0.0" name="_bottom"/>
  <outline>
    <contour>
      <point x="551.4747474747475" y="-432.42424242424244" type="curve" smooth="yes"/>
      <point x="708.409090909091" y="-432.42424242424244"/>
      <point x="787.459595959596" y="-366.5353535353535"/>
      <point x="787.459595959596" y="-260.7828282828283" type="curve" smooth="yes"/>
      <point x="787.459595959596" y="-153.03030303030303"/>
      <point x="710.8686868686868" y="-89.22222222222221"/>
      <point x="566.9848484848485" y="-89.22222222222221" type="curve"/>
      <point x="627.2727272727273" y="-131.1919191919192" type="line"/>
      <point x="627.2727272727273" y="20.0" type="line"/>
      <point x="496.69696969696975" y="20.0" type="line"/>
      <point x="496.69696969696975" y="-173.18686868686868" type="line"/>
      <point x="539.5050505050506" y="-173.18686868686868" type="line" smooth="yes"/>
      <point x="608.7777777777778" y="-173.18686868686868"/>
      <point x="645.9949494949494" y="-196.7828282828283"/>
      <point x="645.9949494949494" y="-250.5151515151515" type="curve" smooth="yes"/>
      <point x="645.9949494949494" y="-303.4090909090909"/>
      <point x="610.7777777777778" y="-325.84343434343435"/>
      <point x="540.9646464646464" y="-325.84343434343435" type="curve" smooth="yes"/>
      <point x="492.74747474747477" y="-325.84343434343435"/>
      <point x="429.64141414141415" y="-316.3838383838384"/>
      <point x="374.42424242424244" y="-291.8686868686869" type="curve"/>
      <point x="374.42424242424244" y="-399.74747474747477" type="line"/>
      <point x="423.449494949495" y="-420.5050505050505"/>
      <point x="487.2878787878788" y="-432.42424242424244"/>
    </contour>
  </outline>
</glyph>
<glyph name="onesuperior" format="2">
  <advance width="830.6010101010102"/>
  <unicode hex="00B9"/>
  <outline>
    <contour>
      <point x="352.0353535353535" y="-110.5959595959596" type="line"/>
      <point x="562.4848484848485" y="-110.5959595959596" type="line"/>
      <point x="562.4848484848485" y="868.0" type="line"/>
      <point x="426.3737373737374" y="868.0" type="line"/>
      <point x="135.67676767676767" y="674.9444444444445" type="line"/>
      <point x="135.67676767676767" y="487.83838383838383" type="line"/>
      <point x="426.3737373737374" y="680.8939393939394" type="line"/>
      <point x="352.0353535353535" y="744.3131313131313" type="line"/>
    </contour>
    <contour>
      <point x="134.1919191919192" y="-136.0" type="line"/>
      <point x="768.8686868686868" y="-136.0" type="line"/>
      <point x="768.8686868686868" y="35.70202020202022" type="line"/>
      <point x="134.1919191919192" y="35.70202020202022" type="line"/>
    </contour>
  </outline>
</glyph>
<glyph name="ordmasculine" format="2">
  <advance width="985.0606060606061"/>
  <unicode hex="00BA"/>
  <outline>
    <contour>
      <point x="492.53030303030306" y="593.8383838383838" type="curve" smooth="yes"/>
      <point x="764.9747474747476" y="593.8383838383838"/>
      <point x="928.7272727272727" y="750.1565656565657"/>
      <point x="928.7272727272727" y="1046.540404040404" type="curve" smooth="yes"/>
      <point x="928.7272727272727" y="1342.9242424242425"/>
      <point x="764.9747474747476" y="1497.4040404040404"/>
      <point x="492.53030303030306" y="1497.4040404040404" type="curve" smooth="yes"/>
      <point x="220.08585858585857" y="1497.4040404040404"/>
      <point x="56.33333333333333" y="1345.6262626262626"/>
      <point x="56.33333333333333" y="1046.540404040404" type="curve" smooth="yes"/>
      <point x="56.33333333333333" y="747.4545454545455"/>
      <point x="220.08585858585857" y="593.8383838383838"/>
    </contour>
    <contour>
      <point x="492.53030303030306" y="776.2676767676768" type="curve" smooth="yes"/>
      <point x="376.0555555555556" y="776.2676767676768"/>
      <point x="299.42424242424244" y="841.7626262626263"/>
      <point x="299.42424242424244" y="1046.540404040404" type="curve" smooth="yes"/>
      <point x="299.42424242424244" y="1251.858585858586"/>
      <point x="376.0555555555556" y="1314.9747474747473"/>
      <point x="492.53030303030306" y="1314.9747474747473" type="curve" smooth="yes"/>
      <point x="610.0858585858585" y="1314.9747474747473"/>
      <point x="685.6363636363636" y="1251.858585858586"/>
      <point x="685.6363636363636" y="1046.540404040404" type="curve" smooth="yes"/>
      <point x="685.6363636363636" y="841.7626262626263"/>
      <point x="610.0858585858585" y="776.2676767676768"/>
    </contour>
  </outline>
</glyph>
<glyph name="guillemetright" format="2">
  <advance width="1145.257575757576"/>
  <unicode hex="00BB"/>
  <outline>
    <contour>
      <point x="54.49494949494949" y="134.59595959595958" type="line"/>
      <point x="320.87878787878793" y="134.59595959595958" type="line"/>
      <point x="572.5555555555557" y="565.4040404040404" type="line"/>
      <point x="320.87878787878793" y="996.2121212121212" type="line"/>
      <point x="54.49494949494949" y="996.2121212121212" type="line"/>
      <point x="306.17171717171715" y="565.4040404040404" type="line"/>
    </contour>
    <contour>
      <point x="532.7020202020202" y="134.59595959595958" type="line"/>
      <point x="799.0858585858587" y="134.59595959595958" type="line"/>
      <point x="1050.7626262626263" y="565.4040404040404" type="line"/>
      <point x="799.0858585858587" y="996.2121212121212" type="line"/>
      <point x="532.7020202020202" y="996.2121212121212" type="line"/>
      <point x="784.3787878787879" y="565.4040404040404" type="line"/>
    </contour>
  </outline>
</glyph>
<glyph name="onequarter" format="2">
  <advance width="1996.6060606060607"/>
  <unicode hex="00BC"/>
  <outline>
    <contour>
      <point x="352.0353535353535" y="641.4040404040404" type="line"/>
      <point x="562.4848484848485" y="641.4040404040404" type="line"/>
      <point x="562.4848484848485" y="1620.0" type="line"/>
      <point x="426.3737373737374" y="1620.0" type="line"/>
      <point x="135.67676767676767" y="1426.9444444444443" type="line"/>
      <point x="135.67676767676767" y="1239.8383838383838" type="line"/>
      <point x="426.3737373737374" y="1432.8939393939393" type="line"/>
      <point x="352.0353535353535" y="1496.3131313131312" type="line"/>
    </contour>
    <contour>
      <point x="134.1919191919192" y="616.0" type="line"/>
      <point x="768.8686868686868" y="616.0" type="line"/>
      <point x="768.8686868686868" y="787.7020202020202" type="line"/>
      <point x="134.1919191919192" y="787.7020202020202" type="line"/>
    </contour>
    <contour>
      <point x="488.5808080808081" y="-136.0" type="line"/>
      <point x="707.5151515151515" y="-136.0" type="line"/>
      <point x="1508.0252525252527" y="1616.0" type="line"/>
      <point x="1289.090909090909" y="1616.0" type="line"/>
    </contour>
    <contour>
      <point x="1193.060606060606" y="73.3080808080808" type="line"/>
      <point x="1972.848484848485" y="73.3080808080808" type="line"/>
      <point x="1972.848484848485" y="233.82323232323233" type="line"/>
      <point x="1371.3535353535353" y="233.82323232323233" type="line"/>
      <point x="1391.8383838383838" y="186.34343434343435" type="line"/>
      <point x="1719.3131313131314" y="864.0" type="line"/>
      <point x="1522.6969696969697" y="864.0" type="line"/>
      <point x="1193.060606060606" y="186.8030303030303" type="line"/>
    </contour>
    <contour>
      <point x="1659.469696969697" y="-136.0" type="line"/>
      <point x="1844.6818181818182" y="-136.0" type="line"/>
      <point x="1844.6818181818182" y="526.0" type="line"/>
      <point x="1696.8686868686868" y="526.0" type="line"/>
      <point x="1659.469696969697" y="233.82323232323233" type="line"/>
    </contour>
  </outline>
</glyph>
<glyph name="onehalf" format="2">
  <advance width="1996.6060606060607"/>
  <unicode hex="00BD"/>
  <outline>
    <contour>
      <point x="352.0353535353535" y="641.4040404040404" type="line"/>
      <point x="562.4848484848485" y="641.4040404040404" type="line"/>
      <point x="562.4848484848485" y="1620.0" type="line"/>
      <point x="426.3737373737374" y="1620.0" type="line"/>
      <point x="135.67676767676767" y="1426.9444444444443" type="line"/>
      <point x="135.67676767676767" y="1239.8383838383838" type="line"/>
      <point x="426.3737373737374" y="1432.8939393939393" type="line"/>
      <point x="352.0353535353535" y="1496.3131313131312" type="line"/>
    </contour>
    <contour>
      <point x="134.1919191919192" y="616.0" type="line"/>
      <point x="768.8686868686868" y="616.0" type="line"/>
      <point x="768.8686868686868" y="787.7020202020202" type="line"/>
      <point x="134.1919191919192" y="787.7020202020202" type="line"/>
    </contour>
    <contour>
      <point x="488.5808080808081" y="-136.0" type="line"/>
      <point x="707.5151515151515" y="-136.0" type="line"/>
      <point x="1508.0252525252527" y="1616.0" type="line"/>
      <point x="1289.090909090909" y="1616.0" type="line"/>
    </contour>
    <contour>
      <point x="1250.2777777777778" y="-136.0" type="line"/>
      <point x="1915.9545454545455" y="-136.0" type="line"/>
      <point x="1915.9545454545455" y="35.70202020202022" type="line"/>
      <point x="1483.8838383838386" y="35.70202020202022" type="line"/>
      <point x="1486.858585858586" y="-17.18181818181816" type="line"/>
      <point x="1717.5454545454547" y="261.3787878787879" type="line" smooth="yes"/>
      <point x="1826.818181818182" y="392.6818181818182"/>
      <point x="1870.1969696969697" y="486.3030303030303"/>
      <point x="1870.6565656565658" y="590.439393939394" type="curve" smooth="yes"/>
      <point x="1871.1161616161617" y="789.8939393939394"/>
      <point x="1738.580808080808" y="877.0808080808081"/>
      <point x="1494.378787878788" y="877.0808080808081" type="curve" smooth="yes"/>
      <point x="1401.4343434343434" y="877.0808080808081"/>
      <point x="1304.7626262626263" y="863.540404040404"/>
      <point x="1237.7373737373737" y="839.6212121212121" type="curve"/>
      <point x="1237.7373737373737" y="670.7828282828283" type="line"/>
      <point x="1301.3333333333335" y="694.540404040404"/>
      <point x="1384.141414141414" y="710.2424242424242"/>
      <point x="1465.439393939394" y="710.2424242424242" type="curve" smooth="yes"/>
      <point x="1603.848484848485" y="710.2424242424242"/>
      <point x="1661.989898989899" y="666.2929292929293"/>
      <point x="1661.989898989899" y="570.2272727272727" type="curve" smooth="yes"/>
      <point x="1661.989898989899" y="502.54545454545456"/>
      <point x="1626.0151515151515" y="433.83838383838383"/>
      <point x="1536.767676767677" y="324.3989898989899" type="curve" smooth="yes"/>
      <point x="1250.2777777777778" y="-25.126262626262616" type="line"/>
    </contour>
  </outline>
</glyph>
<glyph name="questiondown" format="2">
  <advance width="959.459595959596"/>
  <unicode hex="00BF"/>
  <outline>
    <contour>
      <point x="610.2676767676768" y="665.4343434343434" type="line"/>
      <point x="449.32323232323233" y="665.4343434343434" type="line"/>
      <point x="429.05555555555554" y="411.21212121212125" type="line"/>
      <point x="176.15656565656565" y="326.47474747474746"/>
      <point x="53.732323232323225" y="196.61111111111114"/>
      <point x="53.732323232323225" y="-12.954545454545446" type="curve" smooth="yes"/>
      <point x="53.732323232323225" y="-258.35353535353534"/>
      <point x="228.34848484848484" y="-400.0"/>
      <point x="567.8181818181819" y="-400.0" type="curve" smooth="yes"/>
      <point x="690.5454545454545" y="-400.0"/>
      <point x="829.9444444444445" y="-378.83838383838383"/>
      <point x="925.1868686868687" y="-345.45959595959596" type="curve"/>
      <point x="925.1868686868687" y="-137.49494949494945" type="line"/>
      <point x="823.510101010101" y="-173.79292929292924"/>
      <point x="706.459595959596" y="-192.9545454545454"/>
      <point x="596.3787878787879" y="-192.9545454545454" type="curve" smooth="yes"/>
      <point x="400.58585858585866" y="-192.9545454545454"/>
      <point x="309.0909090909091" y="-121.37878787878785"/>
      <point x="309.0909090909091" y="7.58080808080809" type="curve" smooth="yes"/>
      <point x="309.0909090909091" y="133.83838383838383"/>
      <point x="387.5" y="218.1969696969697"/>
      <point x="655.2323232323233" y="283.530303030303" type="curve"/>
    </contour>
    <contour>
      <point x="529.5252525252525" y="1106.2121212121212" type="curve" smooth="yes"/>
      <point x="423.97474747474746" y="1106.2121212121212"/>
      <point x="356.2020202020202" y="1042.9242424242425"/>
      <point x="356.2020202020202" y="950.1818181818181" type="curve" smooth="yes"/>
      <point x="356.2020202020202" y="856.520202020202"/>
      <point x="422.7323232323232" y="793.2323232323232"/>
      <point x="529.5252525252525" y="793.2323232323232" type="curve" smooth="yes"/>
      <point x="636.3181818181819" y="793.2323232323232"/>
      <point x="702.8484848484849" y="854.3585858585858"/>
      <point x="702.8484848484849" y="950.1818181818181" type="curve" smooth="yes"/>
      <point x="702.8484848484849" y="1045.0858585858587"/>
      <point x="634.1565656565657" y="1106.2121212121212"/>
    </contour>
  </outline>
</glyph>
<glyph name="Agrave" format="2">
  <advance width="1417.858585858586"/>
  <unicode hex="00C0"/>
  <anchor x="708.8484848484849" y="1520.0" name="_top"/>
  <anchor x="709.3888888888889" y="0.0" name="bottom"/>
  <anchor x="1398.6919191919192" y="0.0" name="ogonek"/>
  <anchor x="708.8484848484849" y="1520.0" name="top"/>
  <outline>
    <contour>
      <point x="19.166666666666664" y="0.0" type="line"/>
      <point x="279.6868686868687" y="0.0" type="line"/>
      <point x="722.6313131313132" y="1361.641414141414" type="line"/>
      <point x="691.0656565656566" y="1361.641414141414" type="line"/>
      <point x="1135.090909090909" y="0.0" type="line"/>
      <point x="1398.6919191919192" y="0.0" type="line"/>
      <point x="901.0808080808081" y="1480.0" type="line"/>
      <point x="516.7777777777777" y="1480.0" type="line"/>
    </contour>
    <contour>
      <point x="332.0959595959596" y="425.8636363636363" type="line"/>
      <point x="1084.141414141414" y="425.8636363636363" type="line"/>
      <point x="1026.3131313131314" y="639.9343434343434" type="line"/>
      <point x="390.4646464646465" y="639.9343434343434" type="line"/>
    </contour>
    <contour>
      <point x="590.9242424242424" y="1599.7878787878788" type="line"/>
      <point x="826.7727272727273" y="1599.7878787878788" type="line"/>
      <point x="647.4494949494949" y="1895.5656565656566" type="line"/>
      <point x="371.2020202020202" y="1895.5656565656566" type="line"/>
    </contour>
  </outline>
</glyph>
<glyph name="Atilde" format="2">
  <advance width="1417.858585858586"/>
  <unicode hex="00C3"/>
  <anchor x="708.8484848484849" y="1520.0" name="_top"/>
  <anchor x="709.3888888888889" y="0.0" name="bottom"/>
  <anchor x="1398.6919191919192" y="0.0" name="ogonek"/>
  <anchor x="708.8484848484849" y="1520.0" name="top"/>
  <outline>
    <contour>
      <point x="19.166666666666664" y="0.0" type="line"/>
      <point x="279.6868686868687" y="0.0" type="line"/>
      <point x="722.6313131313132" y="1361.641414141414" type="line"/>
      <point x="691.0656565656566" y="1361.641414141414" type="line"/>
      <point x="1135.090909090909" y="0.0" type="line"/>
      <point x="1398.6919191919192" y="0.0" type="line"/>
      <point x="901.0808080808081" y="1480.0" type="line"/>
      <point x="516.7777777777777" y="1480.0" type="line"/>
    </contour>
    <contour>
      <point x="332.0959595959596" y="425.8636363636363" type="line"/>
      <point x="1084.141414141414" y="425.8636363636363" type="line"/>
      <point x="1026.3131313131314" y="639.9343434343434" type="line"/>
      <point x="390.4646464646465" y="639.9343434343434" type="line"/>
    </contour>
    <contour>
      <point x="874.4646464646465" y="1637.0151515151515" type="curve" smooth="yes"/>
      <point x="960.2171717171717" y="1637.0151515151515"/>
      <point x="1019.3232323232323" y="1659.0151515151515"/>
      <point x="1067.8333333333335" y="1705.580808080808" type="curve"/>
      <point x="1067.8333333333335" y="1862.2878787878788" type="line"/>
      <point x="1010.7828282828283" y="1814.828282828283"/>
      <point x="957.2171717171717" y="1791.828282828283"/>
      <point x="878.7878787878789" y="1791.828282828283" type="curve" smooth="yes"/>
      <point x="766.7929292929293" y="1791.828282828283"/>
      <point x="675.2272727272727" y="1868.909090909091"/>
      <point x="543.2323232323232" y="1868.909090909091" type="curve" smooth="yes"/>
      <point x="457.479797979798" y="1868.909090909091"/>
      <point x="398.3737373737374" y="1845.828282828283"/>
      <point x="349.8636363636364" y="1799.2626262626263" type="curve"/>
      <point x="349.8636363636364" y="1642.5555555555557" type="line"/>
      <point x="406.91414141414145" y="1690.0151515151515"/>
      <point x="460.479797979798" y="1713.0151515151515"/>
      <point x="538.9090909090909" y="1713.0151515151515" type="curve" smooth="yes"/>
      <point x="650.9040404040404" y="1713.0151515151515"/>
      <point x="742.469696969697" y="1637.0151515151515"/>
    </contour>
  </outline>
</glyph>
<glyph name="Adieresis" format="2">
  <advance width="1417.858585858586"/>
  <unicode hex="00C4"/>
  <anchor x="708.8484848484849" y="1520.0" name="_top"/>
  <anchor x="709.3888888888889" y="0.0" name="bottom"/>
  <anchor x="1398.6919191919192" y="0.0" name="ogonek"/>
  <anchor x="708.8484848484849" y="1520.0" name="top"/>
  <outline>
    <contour>
      <point x="19.166666666666664" y="0.0" type="line"/>
      <point x="279.6868686868687" y="0.0" type="line"/>
      <point x="722.6313131313132" y="1361.641414141414" type="line"/>
      <point x="691.0656565656566" y="1361.641414141414" type="line"/>
      <point x="1135.090909090909" y="0.0" type="line"/>
      <point x="1398.6919191919192" y="0.0" type="line"/>
      <point x="901.0808080808081" y="1480.0" type="line"/>
      <point x="516.7777777777777" y="1480.0" type="line"/>
    </contour>
    <contour>
      <point x="332.0959595959596" y="425.8636363636363" type="line"/>
      <point x="1084.141414141414" y="425.8636363636363" type="line"/>
      <point x="1026.3131313131314" y="639.9343434343434" type="line"/>
      <point x="390.4646464646465" y="639.9343434343434" type="line"/>
    </contour>
    <contour>
      <point x="957.489898989899" y="1625.151515151515" type="curve" smooth="yes"/>
      <point x="1052.9343434343434" y="1625.151515151515"/>
      <point x="1103.7929292929293" y="1671.8484848484848"/>
      <point x="1103.7929292929293" y="1750.919191919192" type="curve" smooth="yes"/>
      <point x="1103.7929292929293" y="1829.989898989899"/>
      <point x="1052.9343434343434" y="1877.6060606060605"/>
      <point x="957.489898989899" y="1877.6060606060605" type="curve" smooth="yes"/>
      <point x="862.0454545454545" y="1877.6060606060605"/>
      <point x="811.1868686868687" y="1829.989898989899"/>
      <point x="811.1868686868687" y="1750.919191919192" type="curve" smooth="yes"/>
      <point x="811.1868686868687" y="1671.8484848484848"/>
      <point x="862.0454545454545" y="1625.151515151515"/>
    </contour>
    <contour>
      <point x="460.2070707070707" y="1625.151515151515" type="curve" smooth="yes"/>
      <point x="555.6515151515152" y="1625.151515151515"/>
      <point x="606.510101010101" y="1671.8484848484848"/>
      <point x="606.510101010101" y="1750.919191919192" type="curve" smooth="yes"/>
      <point x="606.510101010101" y="1829.989898989899"/>
      <point x="555.6515151515152" y="1877.6060606060605"/>
      <point x="460.2070707070707" y="1877.6060606060605" type="curve" smooth="yes"/>
      <point x="364.76262626262627" y="1877.6060606060605"/>
      <point x="313.9040404040404" y="1829.989898989899"/>
      <point x="313.9040404040404" y="1750.919191919192" type="curve" smooth="yes"/>
      <point x="313.9040404040404" y="1671.8484848484848"/>
      <point x="364.76262626262627" y="1625.151515151515"/>
    </contour>
  </outline>
</glyph>
<glyph name="Aring" format="2">
  <advance width="1417.858585858586"/>
  <unicode hex="00C5"/>
  <anchor x="710.2272727272727" y="1437.2727272727273" name="_top"/>
  <anchor x="709.3888888888889" y="0.0" name="bottom"/>
  <anchor x="1398.6919191919192" y="0.0" name="ogonek"/>
  <anchor x="708.8484848484849" y="1520.0" name="top"/>
  <outline>
    <contour>
      <point x="19.166666666666664" y="0.0" type="line"/>
      <point x="279.6868686868687" y="0.0" type="line"/>
      <point x="722.6313131313132" y="1361.641414141414" type="line"/>
      <point x="691.0656565656566" y="1361.641414141414" type="line"/>
      <point x="1135.090909090909" y="0.0" type="line"/>
      <point x="1398.6919191919192" y="0.0" type="line"/>
      <point x="901.0808080808081" y="1480.0" type="line"/>
      <point x="516.7777777777777" y="1480.0" type="line"/>
    </contour>
    <contour>
      <point x="332.0959595959596" y="425.8636363636363" type="line"/>
      <point x="1084.141414141414" y="425.8636363636363" type="line"/>
      <point x="1026.3131313131314" y="639.9343434343434" type="line"/>
      <point x="390.4646464646465" y="639.9343434343434" type="line"/>
    </contour>
    <contour>
      <point x="710.2272727272727" y="1506.1161616161617" type="curve" smooth="yes"/>
      <point x="830.2777777777778" y="1506.1161616161617"/>
      <point x="918.0050505050506" y="1591.6818181818182"/>
      <point x="918.0050505050506" y="1709.5707070707072" type="curve" smooth="yes"/>
      <point x="918.0050505050506" y="1827.459595959596"/>
      <point x="830.2777777777778" y="1913.0252525252527"/>
      <point x="710.2272727272727" y="1913.0252525252527" type="curve" smooth="yes"/>
      <point x="590.1767676767677" y="1913.0252525252527"/>
      <point x="502.449494949495" y="1827.459595959596"/>
      <point x="502.449494949495" y="1709.5707070707072" type="curve" smooth="yes"/>
      <point x="502.449494949495" y="1591.6818181818182"/>
      <point x="590.1767676767677" y="1506.1161616161617"/>
    </contour>
    <contour>
      <point x="710.2272727272727" y="1604.590909090909" type="curve" smooth="yes"/>
      <point x="650.439393939394" y="1604.590909090909"/>
      <point x="608.3282828282829" y="1644.8636363636365"/>
      <point x="608.3282828282829" y="1709.5707070707072" type="curve" smooth="yes"/>
      <point x="608.3282828282829" y="1774.2777777777778"/>
      <point x="650.439393939394" y="1814.550505050505"/>
      <point x="710.2272727272727" y="1814.550505050505" type="curve" smooth="yes"/>
      <point x="770.0151515151515" y="1814.550505050505"/>
      <point x="812.1262626262626" y="1774.2777777777778"/>
      <point x="812.1262626262626" y="1709.5707070707072" type="curve" smooth="yes"/>
      <point x="812.1262626262626" y="1644.8636363636365"/>
      <point x="770.0151515151515" y="1604.590909090909"/>
    </contour>
  </outline>
</glyph>
<glyph name="Egrave" format="2">
  <advance width="1222.0"/>
  <unicode hex="00C8"/>
  <anchor x="665.3434343434344" y="1520.0" name="_top"/>
  <anchor x="666.2626262626263" y="0.0" name="bottom"/>
  <anchor x="1065.0555555555557" y="0.0" name="ogonek"/>
  <anchor x="665.3434343434344" y="1520.0" name="top"/>
  <anchor x="39.378787878787875" y="1480.0" name="topleft"/>
  <outline>
    <contour>
      <point x="146.22727272727272" y="0.0" type="line"/>
      <point x="1150.459595959596" y="0.0" type="line"/>
      <point x="1150.459595959596" y="215.1515151515152" type="line"/>
      <point x="408.7727272727273" y="215.1515151515152" type="line"/>
      <point x="408.7727272727273" y="1264.8484848484848" type="line"/>
      <point x="1140.459595959596" y="1264.8484848484848" type="line"/>
      <point x="1140.459595959596" y="1480.0" type="line"/>
      <point x="146.22727272727272" y="1480.0" type="line"/>
    </contour>
    <contour>
      <point x="305.92929292929296" y="650.1818181818181" type="line"/>
      <point x="1040.0555555555557" y="650.1818181818181" type="line"/>
      <point x="1040.0555555555557" y="865.3333333333334" type="line"/>
      <point x="305.92929292929296" y="865.3333333333334" type="line"/>
    </contour>
    <contour>
      <point x="547.4191919191919" y="1599.7878787878788" type="line"/>
      <point x="783.2676767676768" y="1599.7878787878788" type="line"/>
      <point x="603.9444444444445" y="1895.5656565656566" type="line"/>
      <point x="327.6969696969697" y="1895.5656565656566" type="line"/>
    </contour>
  </outline>
</glyph>
<glyph name="Eacute" format="2">
  <advance width="1222.0"/>
  <unicode hex="00C9"/>
  <anchor x="665.3434343434344" y="1520.0" name="_top"/>
  <anchor x="666.2626262626263" y="0.0" name="bottom"/>
  <anchor x="1065.0555555555557" y="0.0" name="ogonek"/>
  <anchor x="665.3434343434344" y="1520.0" name="top"/>
  <anchor x="39.378787878787875" y="1480.0" name="topleft"/>
  <outline>
    <contour>
      <point x="146.22727272727272" y="0.0" type="line"/>
      <point x="1150.459595959596" y="0.0" type="line"/>
      <point x="1150.459595959596" y="215.1515151515152" type="line"/>
      <point x="408.7727272727273" y="215.1515151515152" type="line"/>
      <point x="408.7727272727273" y="1264.8484848484848" type="line"/>
      <point x="1140.459595959596" y="1264.8484848484848" type="line"/>
      <point x="1140.459595959596" y="1480.0" type="line"/>
      <point x="146.22727272727272" y="1480.0" type="line"/>
    </contour>
    <contour>
      <point x="305.92929292929296" y="650.1818181818181" type="line"/>
      <point x="1040.0555555555557" y="650.1818181818181" type="line"/>
      <point x="1040.0555555555557" y="865.3333333333334" type="line"/>
      <point x="305.92929292929296" y="865.3333333333334" type="line"/>
    </contour>
    <contour>
      <point x="546.3383838383838" y="1599.7878787878788" type="line"/>
      <point x="782.1868686868687" y="1599.7878787878788" type="line"/>
      <point x="1001.909090909091" y="1895.5656565656566" type="line"/>
      <point x="725.6616161616162" y="1895.5656565656566" type="line"/>
    </contour>
  </outline>
</glyph>
<glyph name="Igrave" format="2">
  <advance width="558.2424242424242"/>
  <unicode hex="00CC"/>
  <anchor x="279.1212121212121" y="1520.0" name="_top"/>
  <anchor x="278.5808080808081" y="0.0" name="bottom"/>
  <anchor x="412.01515151515156" y="0.0" name="ogonek"/>
  <anchor x="279.1212121212121" y="1520.0" name="top"/>
  <outline>
    <contour>
      <point x="146.22727272727272" y="0.0" type="line"/>
      <point x="412.01515151515156" y="0.0" type="line"/>
      <point x="412.01515151515156" y="1480.0" type="line"/>
      <point x="146.22727272727272" y="1480.0" type="line"/>
    </contour>
    <contour>
      <point x="161.1969696969697" y="1599.7878787878788" type="line"/>
      <point x="397.0454545454546" y="1599.7878787878788" type="line"/>
      <point x="217.72222222222226" y="1895.5656565656566" type="line"/>
      <point x="-58.52525252525254" y="1895.5656565656566" type="line"/>
    </contour>
  </outline>
</glyph>
<glyph name="Iacute" format="2">
  <advance width="558.2424242424242"/>
  <unicode hex="00CD"/>
  <anchor x="279.1212121212121" y="1520.0" name="_top"/>
  <anchor x="278.5808080808081" y="0.0" name="bottom"/>
  <anchor x="412.01515151515156" y="0.0" name="ogonek"/>
  <anchor x="279.1212121212121" y="1520.0" name="top"/>
  <outline>
    <contour>
      <point x="146.22727272727272" y="0.0" type="line"/>
      <point x="412.01515151515156" y="0.0" type="line"/>
      <point x="412.01515151515156" y="1480.0" type="line"/>
      <point x="146.22727272727272" y="1480.0" type="line"/>
    </contour>
    <contour>
      <point x="160.1161616161616" y="1599.7878787878788" type="line"/>
      <point x="395.96464646464653" y="1599.7878787878788" type="line"/>
      <point x="615.6868686868687" y="1895.5656565656566" type="line"/>
      <point x="339.43939393939394" y="1895.5656565656566" type="line"/>
    </contour>
  </outline>
</glyph>
<glyph name="Icircumflex" format="2">
  <advance width="558.2424242424242"/>
  <unicode hex="00CE"/>
  <anchor x="279.1212121212121" y="1520.0" name="_top"/>
  <anchor x="278.5808080808081" y="0.0" name="bottom"/>
  <anchor x="412.01515151515156" y="0.0" name="ogonek"/>
  <anchor x="279.1212121212121" y="1520.0" name="top"/>
  <outline>
    <contour>
      <point x="146.22727272727272" y="0.0" type="line"/>
      <point x="412.01515151515156" y="0.0" type="line"/>
      <point x="412.01515151515156" y="1480.0" type="line"/>
      <point x="146.22727272727272" y="1480.0" type="line"/>
    </contour>
    <contour>
      <point x="-85.8838383838384" y="1599.7878787878788" type="line"/>
      <point x="118.8686868686869" y="1599.7878787878788" type="line"/>
      <point x="301.30808080808083" y="1822.2525252525252" type="line"/>
      <point x="256.9343434343434" y="1822.2525252525252" type="line"/>
      <point x="439.3737373737374" y="1599.7878787878788" type="line"/>
      <point x="644.1262626262627" y="1599.7878787878788" type="line"/>
      <point x="392.2373737373738" y="1895.5656565656566" type="line"/>
      <point x="166.0050505050505" y="1895.5656565656566" type="line"/>
    </contour>
  </outline>
</glyph>
<glyph name="Idieresis" format="2">
  <advance width="558.2424242424242"/>
  <unicode hex="00CF"/>
  <anchor x="279.1212121212121" y="1520.0" name="_top"/>
  <anchor x="278.5808080808081" y="0.0" name="bottom"/>
  <anchor x="412.01515151515156" y="0.0" name="ogonek"/>
  <anchor x="279.1212121212121" y="1520.0" name="top"/>
  <outline>
    <contour>
      <point x="146.22727272727272" y="0.0" type="line"/>
      <point x="412.01515151515156" y="0.0" type="line"/>
      <point x="412.01515151515156" y="1480.0" type="line"/>
      <point x="146.22727272727272" y="1480.0" type="line"/>
    </contour>
    <contour>
      <point x="527.7626262626263" y="1625.151515151515" type="curve" smooth="yes"/>
      <point x="623.2070707070708" y="1625.151515151515"/>
      <point x="674.0656565656566" y="1671.8484848484848"/>
      <point x="674.0656565656566" y="1750.919191919192" type="curve" smooth="yes"/>
      <point x="674.0656565656566" y="1829.989898989899"/>
      <point x="623.2070707070708" y="1877.6060606060605"/>
      <point x="527.7626262626263" y="1877.6060606060605" type="curve" smooth="yes"/>
      <point x="432.3181818181818" y="1877.6060606060605"/>
      <point x="381.45959595959596" y="1829.989898989899"/>
      <point x="381.45959595959596" y="1750.919191919192" type="curve" smooth="yes"/>
      <point x="381.45959595959596" y="1671.8484848484848"/>
      <point x="432.3181818181818" y="1625.151515151515"/>
    </contour>
    <contour>
      <point x="30.479797979797986" y="1625.151515151515" type="curve" smooth="yes"/>
      <point x="125.92424242424245" y="1625.151515151515"/>
      <point x="176.78282828282832" y="1671.8484848484848"/>
      <point x="176.78282828282832" y="1750.919191919192" type="curve" smooth="yes"/>
      <point x="176.78282828282832" y="1829.989898989899"/>
      <point x="125.92424242424245" y="1877.6060606060605"/>
      <point x="30.479797979797986" y="1877.6060606060605" type="curve" smooth="yes"/>
      <point x="-64.96464646464648" y="1877.6060606060605"/>
      <point x="-115.82323232323235" y="1829.989898989899"/>
      <point x="-115.82323232323235" y="1750.919191919192" type="curve" smooth="yes"/>
      <point x="-115.82323232323235" y="1671.8484848484848"/>
      <point x="-64.96464646464648" y="1625.151515151515"/>
    </contour>
  </outline>
</glyph>
<glyph name="Ntilde" format="2">
  <advance width="1516.1666666666667"/>
  <unicode hex="00D1"/>
  <anchor x="758.3131313131313" y="1520.0" name="_top"/>
  <anchor x="758.3131313131313" y="0.0" name="bottom"/>
  <anchor x="758.3131313131313" y="1520.0" name="top"/>
  <outline>
    <contour>
      <point x="146.22727272727272" y="0.0" type="line"/>
      <point x="396.5050505050506" y="0.0" type="line"/>
      <point x="396.5050505050506" y="1156.2828282828282" type="line"/>
      <point x="346.5909090909091" y="1156.2828282828282" type="line"/>
      <point x="1101.4747474747473" y="0.0" type="line"/>
      <point x="1369.939393939394" y="0.0" type="line"/>
      <point x="1369.939393939394" y="1480.0" type="line"/>
      <point x="1119.6616161616162" y="1480.0" type="line"/>
      <point x="1119.6616161616162" y="323.71717171717177" type="line"/>
      <point x="1169.5757575757575" y="323.71717171717177" type="line"/>
      <point x="414.6919191919193" y="1480.0" type="line"/>
      <point x="146.22727272727272" y="1480.0" type="line"/>
    </contour>
    <contour>
      <point x="923.929292929293" y="1637.0151515151515" type="curve" smooth="yes"/>
      <point x="1009.6818181818182" y="1637.0151515151515"/>
      <point x="1068.7878787878788" y="1659.0151515151515"/>
      <point x="1117.29797979798" y="1705.580808080808" type="curve"/>
      <point x="1117.29797979798" y="1862.2878787878788" type="line"/>
      <point x="1060.2474747474748" y="1814.828282828283"/>
      <point x="1006.6818181818182" y="1791.828282828283"/>
      <point x="928.2525252525253" y="1791.828282828283" type="curve" smooth="yes"/>
      <point x="816.2575757575758" y="1791.828282828283"/>
      <point x="724.6919191919192" y="1868.909090909091"/>
      <point x="592.6969696969697" y="1868.909090909091" type="curve" smooth="yes"/>
      <point x="506.94444444444446" y="1868.909090909091"/>
      <point x="447.83838383838383" y="1845.828282828283"/>
      <point x="399.3282828282828" y="1799.2626262626263" type="curve"/>
      <point x="399.3282828282828" y="1642.5555555555557" type="line"/>
      <point x="456.3787878787879" y="1690.0151515151515"/>
      <point x="509.94444444444446" y="1713.0151515151515"/>
      <point x="588.3737373737374" y="1713.0151515151515" type="curve" smooth="yes"/>
      <point x="700.3686868686868" y="1713.0151515151515"/>
      <point x="791.9343434343434" y="1637.0151515151515"/>
    </contour>
  </outline>
</glyph>
<glyph name="Otilde" format="2">
  <advance width="1517.1515151515152"/>
  <unicode hex="00D5"/>
  <anchor x="758.5757575757576" y="1520.0" name="_top"/>
  <anchor x="758.5757575757576" y="0.0" name="bottom"/>
  <anchor x="758.5757575757576" y="740.0" name="center"/>
  <anchor x="926.6818181818182" y="0.0" name="ogonek"/>
  <anchor x="758.5757575757576" y="1520.0" name="top"/>
  <anchor x="47.782828282828284" y="1480.0" name="topleft"/>
  <anchor x="943.5151515151515" y="1480.0" name="topright"/>
  <outline>
    <contour>
      <point x="758.5757575757576" y="-19.08080808080808" type="curve" smooth="yes"/>
      <point x="1159.9646464646464" y="-19.08080808080808"/>
      <point x="1425.6313131313132" y="218.77777777777777"/>
      <point x="1425.6313131313132" y="740.0" type="curve" smooth="yes"/>
      <point x="1425.6313131313132" y="1261.2222222222222"/>
      <point x="1161.8838383838383" y="1499.080808080808"/>
      <point x="758.5757575757576" y="1499.080808080808" type="curve" smooth="yes"/>
      <point x="356.64646464646466" y="1499.080808080808"/>
      <point x="91.520202020202" y="1262.3030303030303"/>
      <point x="91.520202020202" y="740.0" type="curve" smooth="yes"/>
      <point x="91.520202020202" y="217.6969696969697"/>
      <point x="355.80808080808083" y="-19.08080808080808"/>
    </contour>
    <contour>
      <point x="758.5757575757576" y="198.69191919191923" type="curve" smooth="yes"/>
      <point x="515.3737373737374" y="198.69191919191923"/>
      <point x="364.5505050505051" y="344.51010101010104"/>
      <point x="364.5505050505051" y="746.1616161616162" type="curve" smooth="yes"/>
      <point x="364.5505050505051" y="1135.4898989898988"/>
      <point x="516.9949494949495" y="1281.3080808080808"/>
      <point x="758.5757575757576" y="1281.3080808080808" type="curve" smooth="yes"/>
      <point x="1000.1565656565656" y="1281.3080808080808"/>
      <point x="1152.6010101010102" y="1133.8686868686868"/>
      <point x="1152.6010101010102" y="733.8383838383838" type="curve" smooth="yes"/>
      <point x="1152.6010101010102" y="346.13131313131316"/>
      <point x="1001.7777777777778" y="198.69191919191923"/>
    </contour>
    <contour>
      <point x="924.1919191919192" y="1637.0151515151515" type="curve" smooth="yes"/>
      <point x="1009.9444444444445" y="1637.0151515151515"/>
      <point x="1069.050505050505" y="1659.0151515151515"/>
      <point x="1117.560606060606" y="1705.580808080808" type="curve"/>
      <point x="1117.560606060606" y="1862.2878787878788" type="line"/>
      <point x="1060.5101010101012" y="1814.828282828283"/>
      <point x="1006.9444444444445" y="1791.828282828283"/>
      <point x="928.5151515151515" y="1791.828282828283" type="curve" smooth="yes"/>
      <point x="816.5202020202021" y="1791.828282828283"/>
      <point x="724.9545454545455" y="1868.909090909091"/>
      <point x="592.959595959596" y="1868.909090909091" type="curve" smooth="yes"/>
      <point x="507.2070707070707" y="1868.909090909091"/>
      <point x="448.1010101010101" y="1845.828282828283"/>
      <point x="399.5909090909091" y="1799.2626262626263" type="curve"/>
      <point x="399.5909090909091" y="1642.5555555555557" type="line"/>
      <point x="456.64141414141415" y="1690.0151515151515"/>
      <point x="510.2070707070707" y="1713.0151515151515"/>
      <point x="588.6363636363636" y="1713.0151515151515" type="curve" smooth="yes"/>
      <point x="700.6313131313132" y="1713.0151515151515"/>
      <point x="792.1969696969697" y="1637.0151515151515"/>
    </contour>
  </outline>
</glyph>
<glyph name="multiply" format="2">
  <advance width="1025.7171717171718"/>
  <unicode hex="00D7"/>
  <outline>
    <contour>
      <point x="240.52525252525254" y="345.3131313131313" type="line"/>
      <point x="512.8585858585859" y="617.6464646464647" type="line"/>
      <point x="785.1919191919192" y="345.3131313131313" type="line"/>
      <point x="927.5454545454545" y="487.6666666666667" type="line"/>
      <point x="655.2121212121212" y="760.0" type="line"/>
      <point x="927.5454545454545" y="1032.3333333333333" type="line"/>
      <point x="785.1919191919192" y="1174.6868686868688" type="line"/>
      <point x="512.8585858585859" y="902.3535353535353" type="line"/>
      <point x="240.52525252525254" y="1174.6868686868688" type="line"/>
      <point x="98.17171717171716" y="1032.3333333333333" type="line"/>
      <point x="370.50505050505046" y="760.0" type="line"/>
      <point x="98.17171717171716" y="487.6666666666667" type="line"/>
    </contour>
  </outline>
</glyph>
<glyph name="Uacute" format="2">
  <advance width="1466.5707070707072"/>
  <unicode hex="00DA"/>
  <anchor x="736.1767676767677" y="1520.0" name="_top"/>
  <anchor x="736.1767676767677" y="0.0" name="bottom"/>
  <anchor x="936.0252525252525" y="0.9191919191919189" name="ogonek"/>
  <anchor x="736.1767676767677" y="1520.0" name="top"/>
  <anchor x="1085.090909090909" y="1480.0" name="topright"/>
  <outline>
    <contour>
      <point x="736.1767676767677" y="-19.08080808080808" type="curve" smooth="yes"/>
      <point x="1144.7828282828282" y="-19.08080808080808"/>
      <point x="1327.2626262626263" y="178.1010101010101"/>
      <point x="1327.2626262626263" y="593.8484848484849" type="curve" smooth="yes"/>
      <point x="1327.2626262626263" y="1480.0" type="line"/>
      <point x="1066.7171717171718" y="1480.0" type="line"/>
      <point x="1066.7171717171718" y="567.0959595959596" type="line" smooth="yes"/>
      <point x="1066.7171717171718" y="310.72727272727275"/>
      <point x="960.6565656565656" y="201.47474747474752"/>
      <point x="736.1767676767677" y="201.47474747474752" type="curve" smooth="yes"/>
      <point x="511.69696969696975" y="201.47474747474752"/>
      <point x="405.09595959595964" y="310.72727272727275"/>
      <point x="405.09595959595964" y="567.0959595959596" type="curve" smooth="yes"/>
      <point x="405.09595959595964" y="1480.0" type="line"/>
      <point x="139.3080808080808" y="1480.0" type="line"/>
      <point x="139.3080808080808" y="593.8484848484849" type="line" smooth="yes"/>
      <point x="139.3080808080808" y="178.1010101010101"/>
      <point x="323.78787878787875" y="-19.08080808080808"/>
    </contour>
    <contour>
      <point x="617.1717171717172" y="1599.7878787878788" type="line"/>
      <point x="853.0202020202021" y="1599.7878787878788" type="line"/>
      <point x="1072.7424242424242" y="1895.5656565656566" type="line"/>
      <point x="796.4949494949494" y="1895.5656565656566" type="line"/>
    </contour>
  </outline>
</glyph>
<glyph name="Ucircumflex" format="2">
  <advance width="1466.5707070707072"/>
  <unicode hex="00DB"/>
  <anchor x="736.1767676767677" y="1520.0" name="_top"/>
  <anchor x="736.1767676767677" y="0.0" name="bottom"/>
  <anchor x="936.0252525252525" y="0.9191919191919189" name="ogonek"/>
  <anchor x="736.1767676767677" y="1520.0" name="top"/>
  <anchor x="1085.090909090909" y="1480.0" name="topright"/>
  <outline>
    <contour>
      <point x="736.1767676767677" y="-19.08080808080808" type="curve" smooth="yes"/>
      <point x="1144.7828282828282" y="-19.08080808080808"/>
      <point x="1327.2626262626263" y="178.1010101010101"/>
      <point x="1327.2626262626263" y="593.8484848484849" type="curve" smooth="yes"/>
      <point x="1327.2626262626263" y="1480.0" type="line"/>
      <point x="1066.7171717171718" y="1480.0" type="line"/>
      <point x="1066.7171717171718" y="567.0959595959596" type="line" smooth="yes"/>
      <point x="1066.7171717171718" y="310.72727272727275"/>
      <point x="960.6565656565656" y="201.47474747474752"/>
      <point x="736.1767676767677" y="201.47474747474752" type="curve" smooth="yes"/>
      <point x="511.69696969696975" y="201.47474747474752"/>
      <point x="405.09595959595964" y="310.72727272727275"/>
      <point x="405.09595959595964" y="567.0959595959596" type="curve" smooth="yes"/>
      <point x="405.09595959595964" y="1480.0" type="line"/>
      <point x="139.3080808080808" y="1480.0" type="line"/>
      <point x="139.3080808080808" y="593.8484848484849" type="line" smooth="yes"/>
      <point x="139.3080808080808" y="178.1010101010101"/>
      <point x="323.78787878787875" y="-19.08080808080808"/>
    </contour>
    <contour>
      <point x="371.17171717171715" y="1599.7878787878788" type="line"/>
      <point x="575.9242424242425" y="1599.7878787878788" type="line"/>
      <point x="758.3636363636364" y="1822.2525252525252" type="line"/>
      <point x="713.989898989899" y="1822.2525252525252" type="line"/>
      <point x="896.429292929293" y="1599.7878787878788" type="line"/>
      <point x="1101.1818181818182" y="1599.7878787878788" type="line"/>
      <point x="849.2929292929293" y="1895.5656565656566" type="line"/>
      <point x="623.060606060606" y="1895.5656565656566" type="line"/>
    </contour>
  </outline>
</glyph>
<glyph name="Udieresis" format="2">
  <advance width="1466.5707070707072"/>
  <unicode hex="00DC"/>
  <anchor x="736.1767676767677" y="1520.0" name="_top"/>
  <anchor x="736.1767676767677" y="0.0" name="bottom"/>
  <anchor x="936.0252525252525" y="0.9191919191919189" name="ogonek"/>
  <anchor x="736.1767676767677" y="1520.0" name="top"/>
  <anchor x="1085.090909090909" y="1480.0" name="topright"/>
  <outline>
    <contour>
      <point x="736.1767676767677" y="-19.08080808080808" type="curve" smooth="yes"/>
      <point x="1144.7828282828282" y="-19.08080808080808"/>
      <point x="1327.2626262626263" y="178.1010101010101"/>
      <point x="1327.2626262626263" y="593.8484848484849" type="curve" smooth="yes"/>
      <point x="1327.2626262626263" y="1480.0" type="line"/>
      <point x="1066.7171717171718" y="1480.0" type="line"/>
      <point x="1066.7171717171718" y="567.0959595959596" type="line" smooth="yes"/>
      <point x="1066.7171717171718" y="310.72727272727275"/>
      <point x="960.6565656565656" y="201.47474747474752"/>
      <point x="736.1767676767677" y="201.47474747474752" type="curve" smooth="yes"/>
      <point x="511.69696969696975" y="201.47474747474752"/>
      <point x="405.09595959595964" y="310.72727272727275"/>
      <point x="405.09595959595964" y="567.0959595959596" type="curve" smooth="yes"/>
      <point x="405.09595959595964" y="1480.0" type="line"/>
      <point x="139.3080808080808" y="1480.0" type="line"/>
      <point x="139.3080808080808" y="593.8484848484849" type="line" smooth="yes"/>
      <point x="139.3080808080808" y="178.1010101010101"/>
      <point x="323.78787878787875" y="-19.08080808080808"/>
    </contour>
    <contour>
      <point x="984.8181818181819" y="1625.151515151515" type="curve" smooth="yes"/>
      <point x="1080.2626262626263" y="1625.151515151515"/>
      <point x="1131.1212121212122" y="1671.8484848484848"/>
      <point x="1131.1212121212122" y="1750.919191919192" type="curve" smooth="yes"/>
      <point x="1131.1212121212122" y="1829.989898989899"/>
      <point x="1080.2626262626263" y="1877.6060606060605"/>
      <point x="984.8181818181819" y="1877.6060606060605" type="curve" smooth="yes"/>
      <point x="889.3737373737374" y="1877.6060606060605"/>
      <point x="838.5151515151515" y="1829.989898989899"/>
      <point x="838.5151515151515" y="1750.919191919192" type="curve" smooth="yes"/>
      <point x="838.5151515151515" y="1671.8484848484848"/>
      <point x="889.3737373737374" y="1625.151515151515"/>
    </contour>
    <contour>
      <point x="487.5353535353535" y="1625.151515151515" type="curve" smooth="yes"/>
      <point x="582.979797979798" y="1625.151515151515"/>
      <point x="633.8383838383838" y="1671.8484848484848"/>
      <point x="633.8383838383838" y="1750.919191919192" type="curve" smooth="yes"/>
      <point x="633.8383838383838" y="1829.989898989899"/>
      <point x="582.979797979798" y="1877.6060606060605"/>
      <point x="487.5353535353535" y="1877.6060606060605" type="curve" smooth="yes"/>
      <point x="392.09090909090907" y="1877.6060606060605"/>
      <point x="341.2323232323232" y="1829.989898989899"/>
      <point x="341.2323232323232" y="1750.919191919192" type="curve" smooth="yes"/>
      <point x="341.2323232323232" y="1671.8484848484848"/>
      <point x="392.09090909090907" y="1625.151515151515"/>
    </contour>
  </outline>
</glyph>
<glyph name="Thorn" format="2">
  <advance width="1296.1363636363637"/>
  <unicode hex="00DE"/>
  <outline>
    <contour>
      <point x="146.22727272727272" y="0.0" type="line"/>
      <point x="412.01515151515156" y="0.0" type="line"/>
      <point x="412.01515151515156" y="242.46969696969697" type="line"/>
      <point x="467.7777777777778" y="238.79292929292927"/>
      <point x="517.5656565656566" y="236.33333333333331"/>
      <point x="576.030303030303" y="236.33333333333331" type="curve" smooth="yes"/>
      <point x="999.1111111111111" y="236.33333333333331"/>
      <point x="1207.1313131313132" y="416.35858585858585"/>
      <point x="1207.1313131313132" y="760.459595959596" type="curve" smooth="yes"/>
      <point x="1207.1313131313132" y="1122.939393939394"/>
      <point x="992.5151515151515" y="1284.2070707070707"/>
      <point x="573.2323232323232" y="1284.2070707070707" type="curve" smooth="yes"/>
      <point x="510.9494949494949" y="1284.2070707070707"/>
      <point x="454.99494949494954" y="1278.530303030303"/>
      <point x="412.01515151515156" y="1273.0151515151515" type="curve"/>
      <point x="412.01515151515156" y="1480.459595959596" type="line"/>
      <point x="146.22727272727272" y="1480.459595959596" type="line"/>
    </contour>
    <contour>
      <point x="577.409090909091" y="439.59595959595964" type="curve" smooth="yes"/>
      <point x="515.4848484848485" y="439.59595959595964"/>
      <point x="466.10101010101016" y="442.51515151515156"/>
      <point x="412.01515151515156" y="449.2727272727273" type="curve"/>
      <point x="412.01515151515156" y="1066.510101010101" type="line"/>
      <point x="467.4545454545455" y="1076.1868686868686"/>
      <point x="522.570707070707" y="1080.9444444444443"/>
      <point x="592.1464646464647" y="1080.9444444444443" type="curve" smooth="yes"/>
      <point x="832.9242424242424" y="1080.9444444444443"/>
      <point x="947.6111111111111" y="984.2878787878788"/>
      <point x="947.6111111111111" y="758.0" type="curve" smooth="yes"/>
      <point x="947.6111111111111" y="536.3636363636364"/>
      <point x="834.7626262626262" y="439.59595959595964"/>
    </contour>
  </outline>
</glyph>
<glyph name="germandbls" format="2">
  <advance width="1503.080808080808"/>
  <unicode hex="00DF"/>
  <outline>
    <contour>
      <point x="968.6666666666667" y="-20.161616161616163" type="curve" smooth="yes"/>
      <point x="1281.030303030303" y="-20.161616161616163"/>
      <point x="1446.858585858586" y="108.96969696969697"/>
      <point x="1446.858585858586" y="319.449494949495" type="curve" smooth="yes"/>
      <point x="1446.858585858586" y="500.0353535353536"/>
      <point x="1354.0" y="587.7929292929293"/>
      <point x="1156.5656565656566" y="627.2272727272727" type="curve" smooth="yes"/>
      <point x="990.2777777777778" y="658.469696969697" type="line" smooth="yes"/>
      <point x="901.0202020202021" y="677.4191919191919"/>
      <point x="869.0959595959597" y="715.9141414141415"/>
      <point x="869.0959595959597" y="777.3585858585858" type="curve" smooth="yes"/>
      <point x="869.0959595959597" y="851.9393939393939"/>
      <point x="925.2121212121212" y="913.8131313131313"/>
      <point x="1128.29797979798" y="913.8131313131313" type="curve" smooth="yes"/>
      <point x="1190.3535353535353" y="913.8131313131313"/>
      <point x="1238.0" y="909.5151515151515"/>
      <point x="1281.4040404040404" y="903.1363636363636" type="curve"/>
      <point x="1298.8080808080808" y="970.7525252525252"/>
      <point x="1312.969696969697" y="1052.1313131313132"/>
      <point x="1312.969696969697" y="1132.8030303030303" type="curve" smooth="yes"/>
      <point x="1312.969696969697" y="1485.439393939394"/>
      <point x="1097.6818181818182" y="1636.0"/>
      <point x="796.1313131313132" y="1636.0" type="curve" smooth="yes"/>
      <point x="427.1010101010101" y="1636.0"/>
      <point x="210.14141414141415" y="1433.6616161616162"/>
      <point x="210.14141414141415" y="1065.5353535353536" type="curve" smooth="yes"/>
      <point x="210.14141414141415" y="0.0" type="line"/>
      <point x="471.0656565656566" y="0.0" type="line"/>
      <point x="471.0656565656566" y="1066.560606060606" type="line" smooth="yes"/>
      <point x="471.0656565656566" y="1335.030303030303"/>
      <point x="588.4494949494949" y="1451.111111111111"/>
      <point x="814.5050505050506" y="1451.111111111111" type="curve" smooth="yes"/>
      <point x="994.7525252525253" y="1451.111111111111"/>
      <point x="1123.5959595959596" y="1370.3787878787878"/>
      <point x="1123.1363636363637" y="1150.8787878787878" type="curve" smooth="yes"/>
      <point x="1123.1363636363637" y="1092.3686868686868"/>
      <point x="1114.4343434343434" y="1033.4242424242425"/>
      <point x="1100.111111111111" y="978.1565656565656" type="curve"/>
      <point x="1245.7323232323233" y="1092.6464646464647" type="line"/>
      <point x="1203.3535353535353" y="1098.0252525252524"/>
      <point x="1133.7929292929293" y="1100.4848484848485"/>
      <point x="1094.2525252525252" y="1100.4848484848485" type="curve" smooth="yes"/>
      <point x="780.6717171717172" y="1100.4848484848485"/>
      <point x="624.6262626262626" y="970.6212121212121"/>
      <point x="624.6262626262626" y="770.1969696969697" type="curve" smooth="yes"/>
      <point x="624.6262626262626" y="603.8787878787879"/>
      <point x="709.1363636363636" y="502.3939393939394"/>
      <point x="912.3232323232323" y="463.25757575757575" type="curve" smooth="yes"/>
      <point x="1078.611111111111" y="432.0151515151515" type="line" smooth="yes"/>
      <point x="1168.7878787878788" y="413.0656565656566"/>
      <point x="1202.388888888889" y="379.54545454545456"/>
      <point x="1202.388888888889" y="309.12626262626264" type="curve" smooth="yes"/>
      <point x="1202.388888888889" y="224.03030303030306"/>
      <point x="1139.9747474747476" y="173.91414141414145"/>
      <point x="965.8838383838383" y="173.91414141414145" type="curve" smooth="yes"/>
      <point x="864.4545454545455" y="173.91414141414145"/>
      <point x="750.9494949494949" y="188.7777777777778"/>
      <point x="650.3535353535353" y="216.4545454545455" type="curve"/>
      <point x="650.3535353535353" y="20.919191919191917" type="line"/>
      <point x="749.8636363636364" y="-7.080808080808081"/>
      <point x="864.4242424242425" y="-20.161616161616163"/>
    </contour>
    <contour>
      <point x="22.565656565656568" y="878.8989898989898" type="line"/>
      <point x="314.8030303030303" y="878.8989898989898" type="line"/>
      <point x="314.8030303030303" y="1090.8080808080808" type="line"/>
      <point x="22.565656565656568" y="1090.8080808080808" type="line"/>
    </contour>
  </outline>
</glyph>
<glyph name="aacute" format="2">
  <advance width="1085.4595959595958"/>
  <unicode hex="00E1"/>
  <anchor x="539.040404040404" y="1200.0" name="_top"/>
  <anchor x="545.4747474747475" y="0.0" name="bottom"/>
  <anchor x="964.5858585858587" y="0.0" name="ogonek"/>
  <anchor x="539.040404040404" y="1200.0" name="top"/>
  <outline>
    <contour>
      <point x="418.75757575757575" y="-19.242424242424242" type="curve" smooth="yes"/>
      <point x="540.489898989899" y="-19.242424242424242"/>
      <point x="649.60101010101" y="23.949494949494945"/>
      <point x="717.1161616161617" y="113.4090909090909" type="curve"/>
      <point x="730.520202020202" y="113.4090909090909" type="line"/>
      <point x="748.9494949494949" y="0.0" type="line"/>
      <point x="964.5858585858587" y="0.0" type="line"/>
      <point x="964.5858585858587" y="672.5050505050505" type="line" smooth="yes"/>
      <point x="964.5858585858587" y="1000.1111111111111"/>
      <point x="814.3737373737374" y="1107.888888888889"/>
      <point x="493.2070707070707" y="1107.888888888889" type="curve" smooth="yes"/>
      <point x="386.85858585858585" y="1107.888888888889"/>
      <point x="256.02525252525254" y="1091.969696969697"/>
      <point x="154.11111111111111" y="1061.050505050505" type="curve"/>
      <point x="154.11111111111111" y="860.6515151515151" type="line"/>
      <point x="253.78787878787878" y="892.2474747474747"/>
      <point x="365.27272727272725" y="906.2474747474747"/>
      <point x="449.4343434343434" y="906.2474747474747" type="curve" smooth="yes"/>
      <point x="632.4090909090909" y="906.2474747474747"/>
      <point x="709.6060606060606" y="855.8131313131313"/>
      <point x="709.6060606060606" y="688.1767676767677" type="curve" smooth="yes"/>
      <point x="709.6060606060606" y="258.90909090909093" type="line"/>
      <point x="649.4090909090909" y="192.03030303030306"/>
      <point x="571.7222222222222" y="166.72727272727275"/>
      <point x="499.5757575757576" y="166.72727272727275" type="curve" smooth="yes"/>
      <point x="389.4545454545455" y="166.72727272727275"/>
      <point x="332.23232323232327" y="218.8686868686869"/>
      <point x="332.23232323232327" y="314.61111111111114" type="curve" smooth="yes"/>
      <point x="332.23232323232327" y="408.3787878787879"/>
      <point x="389.91414141414145" y="461.76262626262627"/>
      <point x="530.3888888888889" y="475.0353535353535" type="curve" smooth="yes"/>
      <point x="785.6515151515151" y="498.3636363636364" type="line"/>
      <point x="758.3333333333333" y="649.2070707070707" type="line"/>
      <point x="505.90909090909093" y="625.8787878787879" type="line" smooth="yes"/>
      <point x="201.86868686868686" y="602.2828282828283"/>
      <point x="73.41414141414141" y="489.1515151515152"/>
      <point x="73.41414141414141" y="289.6969696969697" type="curve" smooth="yes"/>
      <point x="73.41414141414141" y="102.21212121212122"/>
      <point x="201.97979797979798" y="-19.242424242424242"/>
    </contour>
    <contour>
      <point x="419.4949494949495" y="1240.2222222222222" type="line"/>
      <point x="658.5858585858587" y="1240.2222222222222" type="line"/>
      <point x="918.9545454545455" y="1616.0" type="line"/>
      <point x="641.0050505050505" y="1616.0" type="line"/>
    </contour>
  </outline>
</glyph>
